<?xml version="1.0" encoding="UTF-8" standalone="no"?>
<!-- Created with Inkscape (http://www.inkscape.org/) by Falzar FZ (http://yugioh.wikia.com/wiki/User:Falzar_FZ) -->

<svg
   xmlns:dc="http://purl.org/dc/elements/1.1/"
   xmlns:cc="http://creativecommons.org/ns#"
   xmlns:rdf="http://www.w3.org/1999/02/22-rdf-syntax-ns#"
   xmlns:svg="http://www.w3.org/2000/svg"
   xmlns="http://www.w3.org/2000/svg"
   xmlns:xlink="http://www.w3.org/1999/xlink"
   xmlns:sodipodi="http://sodipodi.sourceforge.net/DTD/sodipodi-0.dtd"
   xmlns:inkscape="http://www.inkscape.org/namespaces/inkscape"
   width="194.72433"
   height="193.51617"
   id="svg5784"
   version="1.1"
   inkscape:version="0.48.1 "
   sodipodi:docname="Emblem-Shien.svg">
  <defs
     id="defs5786">
    <linearGradient
       id="linearGradient5413-8-9">
      <stop
         style="stop-color:#382324;stop-opacity:1;"
         offset="0"
         id="stop5415-7-2" />
      <stop
         style="stop-color:#6e3a3e;stop-opacity:1"
         offset="1"
         id="stop5417-6-0" />
    </linearGradient>
    <linearGradient
       y2="186"
       x2="222.5"
       y1="40"
       x1="298"
       gradientTransform="translate(113.97845,190.92721)"
       gradientUnits="userSpaceOnUse"
       id="linearGradient7123"
       xlink:href="#linearGradient5413-8-9"
       inkscape:collect="always" />
  </defs>
  <sodipodi:namedview
     id="base"
     pagecolor="#ffffff"
     bordercolor="#666666"
     borderopacity="1.0"
     inkscape:pageopacity="0.0"
     inkscape:pageshadow="2"
     inkscape:zoom="3.6055405"
     inkscape:cx="91.694899"
     inkscape:cy="97.486665"
     inkscape:document-units="px"
     inkscape:current-layer="layer1"
     showgrid="false"
     fit-margin-top="0"
     fit-margin-left="0"
     fit-margin-right="0"
     fit-margin-bottom="0"
     inkscape:window-width="1280"
     inkscape:window-height="780"
     inkscape:window-x="-8"
     inkscape:window-y="-8"
     inkscape:window-maximized="1" />
  <metadata
     id="metadata5789">
    <rdf:RDF>
      <cc:Work
         rdf:about="">
        <dc:format>image/svg+xml</dc:format>
        <dc:type
           rdf:resource="http://purl.org/dc/dcmitype/StillImage" />
        <dc:title />
      </cc:Work>
    </rdf:RDF>
  </metadata>
  <g
     inkscape:label="Layer 1"
     inkscape:groupmode="layer"
     id="layer1"
     transform="translate(-296.61838,-194.49084)">
    <path
       style="fill:url(#linearGradient7123);fill-opacity:1;stroke:#4f2d2f;stroke-width:1;stroke-miterlimit:4;stroke-opacity:1;stroke-dasharray:none"
       d="m 371.63952,194.99084 c 1.28727,27.98439 -11.70165,55.78316 -25.98233,69.61758 -11.76201,15.82052 -23.35167,33.09781 3.96448,47.50972 -34.97286,18.33562 -23.02926,51.87864 -16.44967,59.00455 6.57958,7.12591 13.46705,11.4272 23.2648,14.19077 9.79774,2.76358 26.78403,3.51377 37.99066,-1.31542 11.20664,-4.82918 17.79381,-12.97524 19.72487,-33.25049 2.97687,-13.71016 8.60539,-25.15406 15.60648,-32.08 7.0011,-6.92594 19.29267,-13.87149 32.43453,-18.1516 -12.88885,0.6238 -21.95654,5.02521 -26.5821,7.48717 -19.8822,11.69142 -28.04708,20.09397 -36.28507,39.44973 -3.92137,8.29305 -6.37061,16.05272 -19.16003,19.92803 -16.4445,1.67496 -29.85353,-4.71356 -30.73738,-21.01054 -0.88386,-16.29697 10.43218,-27.88208 24.06,-32.90495 9.74889,-1.38707 17.94889,-5.62299 23.23633,-19.03124 6.98803,-14.90638 9.40291,-17.60235 26.33212,-23.89738 -15.14681,0.16183 -24.93897,5.54 -28.02283,10.84862 -5.31772,7.21815 -13.52108,17.80338 -30.99622,14.99956 -12.11993,-4.49665 -10.98746,-14.67913 -7.81428,-24.40935 5.87883,-10.45144 11.31477,-15.09018 14.95494,-34.34321 2.67956,-10.93387 3.49627,-29.78614 0.4607,-42.64155 z m 4.84048,55.74514 c -2.52511,3.81337 -3.79574,8.05248 -6.4167,14.34395 -5.31487,6.87628 -7.61571,16.32407 1.21454,19.34005 11.59379,1.3038 14.42334,-9.93744 7.06627,-14.73945 -1.72515,-2.41476 -2.60476,-6.44493 -1.86411,-18.94455 z m -1.604,81.11038 c -5.72314,0 -10.36097,4.63782 -10.36097,10.36098 0,5.72314 4.63783,10.36097 10.36097,10.36097 5.72314,0 10.36098,-4.63783 10.36098,-10.36097 0,-5.72316 -4.63784,-10.36098 -10.36098,-10.36098 z"
       id="path5025"
       inkscape:connector-curvature="0"
       sodipodi:nodetypes="ccczzzczcccczcccccccccccccsssss" />
  </g>
</svg>
