<?xml version="1.0" encoding="UTF-8" standalone="no"?>
<!-- Created with Inkscape (http://www.inkscape.org/) by Falzar FZ (http://yugioh.wikia.com/wiki/User:Falzar_FZ) -->

<svg
   xmlns:dc="http://purl.org/dc/elements/1.1/"
   xmlns:cc="http://creativecommons.org/ns#"
   xmlns:rdf="http://www.w3.org/1999/02/22-rdf-syntax-ns#"
   xmlns:svg="http://www.w3.org/2000/svg"
   xmlns="http://www.w3.org/2000/svg"
   xmlns:xlink="http://www.w3.org/1999/xlink"
   xmlns:sodipodi="http://sodipodi.sourceforge.net/DTD/sodipodi-0.dtd"
   xmlns:inkscape="http://www.inkscape.org/namespaces/inkscape"
   width="194.72433"
   height="193.51617"
   id="svg5784"
   version="1.1"
   inkscape:version="0.48.1 "
   sodipodi:docname="Crest-Landstar.svg">
  <defs
     id="defs5786">
    <radialGradient
       inkscape:collect="always"
       xlink:href="#linearGradient4492"
       id="radialGradient4559"
       gradientUnits="userSpaceOnUse"
       gradientTransform="matrix(1.5648984,1.7541111,-1.2634228,1.1271379,-280.50323,-1877.5521)"
       cx="1051.6544"
       cy="249.18178"
       fx="1051.6544"
       fy="249.18178"
       r="38.020405" />
    <linearGradient
       id="linearGradient4492">
      <stop
         style="stop-color:#ffe4ba;stop-opacity:1;"
         offset="0"
         id="stop4494" />
      <stop
         id="stop4504"
         offset="0.28479838"
         style="stop-color:#ffd6a3;stop-opacity:1;" />
      <stop
         id="stop4502"
         offset="0.40979838"
         style="stop-color:#fdd894;stop-opacity:1" />
      <stop
         id="stop4500"
         offset="0.93151087"
         style="stop-color:#fbaf72;stop-opacity:1" />
      <stop
         style="stop-color:#f9cba0;stop-opacity:1"
         offset="1"
         id="stop4496" />
    </linearGradient>
  </defs>
  <sodipodi:namedview
     id="base"
     pagecolor="#ffffff"
     bordercolor="#666666"
     borderopacity="1.0"
     inkscape:pageopacity="0.0"
     inkscape:pageshadow="2"
     inkscape:zoom="1.8627042"
     inkscape:cx="201.17925"
     inkscape:cy="90.795018"
     inkscape:document-units="px"
     inkscape:current-layer="layer1"
     showgrid="false"
     fit-margin-top="0"
     fit-margin-left="0"
     fit-margin-right="0"
     fit-margin-bottom="0"
     inkscape:window-width="1280"
     inkscape:window-height="780"
     inkscape:window-x="-8"
     inkscape:window-y="-8"
     inkscape:window-maximized="1" />
  <metadata
     id="metadata5789">
    <rdf:RDF>
      <cc:Work
         rdf:about="">
        <dc:format>image/svg+xml</dc:format>
        <dc:type
           rdf:resource="http://purl.org/dc/dcmitype/StillImage" />
        <dc:title />
      </cc:Work>
    </rdf:RDF>
  </metadata>
  <g
     inkscape:label="Layer 1"
     inkscape:groupmode="layer"
     id="layer1"
     transform="translate(-296.61838,-194.49084)">
    <g
       id="g4523"
       transform="matrix(2.1743472,0,0,2.1743472,-1963.175,-320.83009)">
      <g
         id="g4542"
         transform="translate(2.3784485,-0.31563109)">
        <path
           style="color:#000000;fill:#fef3bf;fill-opacity:1;fill-rule:evenodd;stroke:#000000;stroke-width:0.45990816;stroke-miterlimit:4;stroke-opacity:1;stroke-dasharray:none;marker:none;visibility:visible;display:inline;overflow:visible;enable-background:accumulate"
           d="m 1063.6654,261.72891 -3.3587,6.71751 c 0,0 -4.2327,-8.30118 -6.8944,-11.49048 -2.6617,-3.1893 -8.662,-7.6014 -8.662,-7.6014 l 3.7124,-3.09359 c 0,0 5.4097,4.40287 7.9549,6.98268 2.5452,2.57981 7.2478,8.48528 7.2478,8.48528 z"
           id="path4296-5"
           inkscape:connector-curvature="0"
           sodipodi:nodetypes="cczcczc" />
        <path
           sodipodi:nodetypes="cczcczc"
           inkscape:connector-curvature="0"
           id="path4351"
           d="m 1099.7278,261.72891 3.3587,6.71751 c 0,0 4.2327,-8.30118 6.8944,-11.49048 2.6617,-3.1893 8.662,-7.6014 8.662,-7.6014 l -3.7124,-3.09359 c 0,0 -5.4097,4.40287 -7.9549,6.98268 -2.5452,2.57981 -7.2478,8.48528 -7.2478,8.48528 z"
           style="color:#000000;fill:#fef3bf;fill-opacity:1;fill-rule:evenodd;stroke:#000000;stroke-width:0.45990816;stroke-miterlimit:4;stroke-opacity:1;stroke-dasharray:none;marker:none;visibility:visible;display:inline;overflow:visible;enable-background:accumulate" />
        <path
           style="fill:url(#radialGradient4559);fill-opacity:1;fill-rule:evenodd;stroke:#000000;stroke-width:0.45990816;stroke-miterlimit:4;stroke-opacity:1;stroke-dasharray:none"
           d="m 1081.7138,244.4671 c -5.5786,0 -11.8129,2.78461 -15.4069,6.32849 -3.5939,3.54389 -2.5384,7.77049 -5.2477,12.61062 -2.7093,4.84012 -8.7889,10.84269 -11.5047,15.92708 -2.7158,5.08441 -4.6696,8.18656 -5.1972,14.0339 -0.5275,5.84732 -0.1325,11.70377 3.5488,16.7632 3.6814,5.05941 9.4334,9.55677 15.1379,11.51396 5.7045,1.9572 12.3579,3.06245 18.6698,3.06245 6.3118,0 12.9707,-1.1042 18.6697,-3.06245 5.6989,-1.95825 11.428,-6.45672 15.1041,-11.51396 3.6761,-5.05725 4.0765,-10.91587 3.5489,-16.7632 -0.5275,-5.84735 -2.4814,-8.9495 -5.1973,-14.0339 -2.7158,-5.08438 -8.8017,-11.08583 -11.5045,-15.92708 -2.7028,-4.84126 -1.6258,-9.06434 -5.2142,-12.61062 -3.5885,-3.54629 -9.8282,-6.32848 -15.4067,-6.32849 z"
           id="rect3502"
           inkscape:connector-curvature="0"
           sodipodi:nodetypes="zzzzzzzzzzzzzzz" />
        <g
           id="g4453"
           transform="translate(-0.55338368,0)">
          <g
             transform="matrix(1,0,0,0.85282991,-5.8526041,40.069699)"
             id="g4401">
            <path
               sodipodi:type="arc"
               style="color:#000000;fill:#fbffff;fill-opacity:1;fill-rule:evenodd;stroke:none;stroke-width:1.16531754px;marker:none;visibility:visible;display:inline;overflow:visible;enable-background:accumulate"
               id="path4379"
               sodipodi:cx="1160.0087"
               sodipodi:cy="292.2229"
               sodipodi:rx="6.0104074"
               sodipodi:ry="10.606602"
               d="m 1166.0191,292.2229 c 0,5.85786 -2.691,10.6066 -6.0104,10.6066 -3.3195,0 -6.0104,-4.74874 -6.0104,-10.6066 0,-5.85786 2.6909,-10.6066 6.0104,-10.6066 3.3194,0 6.0104,4.74874 6.0104,10.6066 z"
               transform="matrix(1.1210945,0,0,1.1210945,-221.81422,-43.783485)" />
            <path
               sodipodi:type="arc"
               style="color:#000000;fill:#4e0006;fill-opacity:1;fill-rule:evenodd;stroke:none;stroke-width:1.16531754px;marker:none;visibility:visible;display:inline;overflow:visible;enable-background:accumulate"
               id="path4379-6"
               sodipodi:cx="1160.0087"
               sodipodi:cy="292.2229"
               sodipodi:rx="6.0104074"
               sodipodi:ry="10.606602"
               d="m 1166.0191,292.2229 c 0,5.85786 -2.691,10.6066 -6.0104,10.6066 -3.3195,0 -6.0104,-4.74874 -6.0104,-10.6066 0,-5.85786 2.6909,-10.6066 6.0104,-10.6066 3.3194,0 6.0104,4.74874 6.0104,10.6066 z"
               transform="matrix(0.74808898,0.08969902,-0.08969902,0.74808898,239.14673,-36.598673)" />
            <path
               transform="matrix(-0.24836271,-0.0242714,0.02770796,-0.21755884,1363.6472,378.98565)"
               d="m 1166.0191,292.2229 c 0,5.85786 -2.691,10.6066 -6.0104,10.6066 -3.3195,0 -6.0104,-4.74874 -6.0104,-10.6066 0,-5.85786 2.6909,-10.6066 6.0104,-10.6066 3.3194,0 6.0104,4.74874 6.0104,10.6066 z"
               sodipodi:ry="10.606602"
               sodipodi:rx="6.0104074"
               sodipodi:cy="292.2229"
               sodipodi:cx="1160.0087"
               id="path4399"
               style="color:#000000;fill:#aea9a5;fill-opacity:1;fill-rule:evenodd;stroke:none;stroke-width:1.16531754px;marker:none;visibility:visible;display:inline;overflow:visible;enable-background:accumulate"
               sodipodi:type="arc" />
          </g>
          <g
             transform="matrix(-1,0,0,0.85282991,2170.3526,40.069699)"
             id="g4406">
            <path
               transform="matrix(1.1210945,0,0,1.1210945,-221.81422,-43.783485)"
               d="m 1166.0191,292.2229 c 0,5.85786 -2.691,10.6066 -6.0104,10.6066 -3.3195,0 -6.0104,-4.74874 -6.0104,-10.6066 0,-5.85786 2.6909,-10.6066 6.0104,-10.6066 3.3194,0 6.0104,4.74874 6.0104,10.6066 z"
               sodipodi:ry="10.606602"
               sodipodi:rx="6.0104074"
               sodipodi:cy="292.2229"
               sodipodi:cx="1160.0087"
               id="path4408"
               style="color:#000000;fill:#fbffff;fill-opacity:1;fill-rule:evenodd;stroke:none;stroke-width:1.16531754px;marker:none;visibility:visible;display:inline;overflow:visible;enable-background:accumulate"
               sodipodi:type="arc" />
            <path
               transform="matrix(0.74808898,0.08969902,-0.08969902,0.74808898,239.14673,-36.598673)"
               d="m 1166.0191,292.2229 c 0,5.85786 -2.691,10.6066 -6.0104,10.6066 -3.3195,0 -6.0104,-4.74874 -6.0104,-10.6066 0,-5.85786 2.6909,-10.6066 6.0104,-10.6066 3.3194,0 6.0104,4.74874 6.0104,10.6066 z"
               sodipodi:ry="10.606602"
               sodipodi:rx="6.0104074"
               sodipodi:cy="292.2229"
               sodipodi:cx="1160.0087"
               id="path4410"
               style="color:#000000;fill:#4e0006;fill-opacity:1;fill-rule:evenodd;stroke:none;stroke-width:1.16531754px;marker:none;visibility:visible;display:inline;overflow:visible;enable-background:accumulate"
               sodipodi:type="arc" />
            <path
               sodipodi:type="arc"
               style="color:#000000;fill:#aea9a5;fill-opacity:1;fill-rule:evenodd;stroke:none;stroke-width:1.16531754px;marker:none;visibility:visible;display:inline;overflow:visible;enable-background:accumulate"
               id="path4412"
               sodipodi:cx="1160.0087"
               sodipodi:cy="292.2229"
               sodipodi:rx="6.0104074"
               sodipodi:ry="10.606602"
               d="m 1166.0191,292.2229 c 0,5.85786 -2.691,10.6066 -6.0104,10.6066 -3.3195,0 -6.0104,-4.74874 -6.0104,-10.6066 0,-5.85786 2.6909,-10.6066 6.0104,-10.6066 3.3194,0 6.0104,4.74874 6.0104,10.6066 z"
               transform="matrix(-0.24836271,-0.0242714,0.02770796,-0.21755884,1363.6472,378.98565)" />
          </g>
        </g>
        <path
           style="fill:none;stroke:#000000;stroke-width:0.91981632;stroke-linecap:butt;stroke-linejoin:miter;stroke-miterlimit:4;stroke-opacity:1;stroke-dasharray:none"
           d="m 1073.3274,298.69816 c 0,0 -0.2949,6.53255 8.3554,6.60312 8.6502,0.0706 8.3834,-6.5258 8.3834,-6.5258"
           id="path4463"
           inkscape:connector-curvature="0"
           sodipodi:nodetypes="czc" />
        <path
           style="color:#000000;fill:#fee1ab;fill-opacity:1;fill-rule:evenodd;stroke:#000000;stroke-width:0.45990816;stroke-miterlimit:4;stroke-opacity:1;stroke-dasharray:none;marker:none;visibility:visible;display:inline;overflow:visible;enable-background:accumulate"
           d="m 1050.5839,245.64224 c 0,3.70998 -3.0075,6.71751 -6.7175,6.71751 -3.71,0 -6.7175,-3.00753 -6.7175,-6.71751 0,-3.70999 3.0075,-6.71752 6.7175,-6.71752 3.71,0 6.7175,3.00753 6.7175,6.71752 z"
           id="path4296"
           inkscape:connector-curvature="0" />
        <path
           inkscape:connector-curvature="0"
           id="path4349"
           d="m 1112.8093,245.64224 c 0,3.70998 3.0075,6.71751 6.7175,6.71751 3.71,0 6.7175,-3.00753 6.7175,-6.71751 0,-3.70999 -3.0075,-6.71752 -6.7175,-6.71752 -3.71,0 -6.7175,3.00753 -6.7175,6.71752 z"
           style="color:#000000;fill:#fee1ab;fill-opacity:1;fill-rule:evenodd;stroke:#000000;stroke-width:0.45990816;stroke-miterlimit:4;stroke-opacity:1;stroke-dasharray:none;marker:none;visibility:visible;display:inline;overflow:visible;enable-background:accumulate" />
      </g>
    </g>
  </g>
</svg>
