<?xml version="1.0" encoding="UTF-8" standalone="no"?>
<!-- Created with Inkscape (http://www.inkscape.org/) by Falzar FZ (http://yugioh.wikia.com/wiki/User:Falzar_FZ) -->

<svg
   xmlns:dc="http://purl.org/dc/elements/1.1/"
   xmlns:cc="http://creativecommons.org/ns#"
   xmlns:rdf="http://www.w3.org/1999/02/22-rdf-syntax-ns#"
   xmlns:svg="http://www.w3.org/2000/svg"
   xmlns="http://www.w3.org/2000/svg"
   xmlns:xlink="http://www.w3.org/1999/xlink"
   xmlns:sodipodi="http://sodipodi.sourceforge.net/DTD/sodipodi-0.dtd"
   xmlns:inkscape="http://www.inkscape.org/namespaces/inkscape"
   width="194.72433"
   height="193.51617"
   id="svg5784"
   version="1.1"
   inkscape:version="0.48.1 "
   sodipodi:docname="Crest-AllyofJusticeUnlimiterReverseBreak.svg">
  <defs
     id="defs5786">
    <linearGradient
       id="linearGradient10445-2-7-8">
      <stop
         style="stop-color:#3d70b2;stop-opacity:1;"
         offset="0"
         id="stop10447-7-5-6" />
      <stop
         id="stop10461-4-2-07"
         offset="0.26511589"
         style="stop-color:#60a5cb;stop-opacity:1;" />
      <stop
         id="stop10459-7-3-96"
         offset="0.5218305"
         style="stop-color:#5179bb;stop-opacity:1;" />
      <stop
         id="stop10457-1-8-5"
         offset="0.75530851"
         style="stop-color:#609acc;stop-opacity:1;" />
      <stop
         style="stop-color:#5381be;stop-opacity:1;"
         offset="1"
         id="stop10449-5-8-5" />
    </linearGradient>
    <linearGradient
       y2="559.1557"
       x2="1967.171"
       y1="433.29068"
       x1="1877.3685"
       gradientTransform="matrix(0.96107412,0,0,0.96107412,-1459.2874,-192.77308)"
       gradientUnits="userSpaceOnUse"
       id="linearGradient4003"
       xlink:href="#linearGradient10445-2-7-8"
       inkscape:collect="always" />
  </defs>
  <sodipodi:namedview
     id="base"
     pagecolor="#ffffff"
     bordercolor="#666666"
     borderopacity="1.0"
     inkscape:pageopacity="0.0"
     inkscape:pageshadow="2"
     inkscape:zoom="0.93135215"
     inkscape:cx="48.554709"
     inkscape:cy="148.02387"
     inkscape:document-units="px"
     inkscape:current-layer="layer1"
     showgrid="false"
     fit-margin-top="0"
     fit-margin-left="0"
     fit-margin-right="0"
     fit-margin-bottom="0"
     inkscape:window-width="1280"
     inkscape:window-height="780"
     inkscape:window-x="-8"
     inkscape:window-y="-8"
     inkscape:window-maximized="1" />
  <metadata
     id="metadata5789">
    <rdf:RDF>
      <cc:Work
         rdf:about="">
        <dc:format>image/svg+xml</dc:format>
        <dc:type
           rdf:resource="http://purl.org/dc/dcmitype/StillImage" />
        <dc:title />
      </cc:Work>
    </rdf:RDF>
  </metadata>
  <g
     inkscape:label="Layer 1"
     inkscape:groupmode="layer"
     id="layer1"
     transform="translate(-296.61838,-194.49084)">
    <path
       id="path3778"
       style="fill:#000000;stroke:none"
       d="m 358.63521,382.54075 c -3.81255,-0.70934 -4.33741,-1.31991 -6.60413,-4.09345 -2.26672,-2.77355 -5.11305,-6.99769 -4.76279,-12.86901 0.35027,-5.87129 9.83808,-19.19409 9.83808,-19.19409 0,0 0.102,13.2716 1.31311,17.37933 1.21106,4.10774 0.74365,6.26749 3.9481,7.26252 3.20408,0.99507 5.76587,-1.71046 10.57475,-5.38039 4.80889,-3.66991 10.86388,-10.92913 16.43145,-18.07891 5.56766,-7.14978 10.87467,-14.7034 16.54787,-24.95309 5.67321,-10.2497 12.37316,-25.87426 16.65503,-36.7512 4.28167,-10.87694 10.81062,-38.82003 10.81062,-38.82003 -4.10317,2.83323 -12.13082,9.92244 -12.13082,9.92244 0,0 -2.95448,15.54164 -6.61253,22.79244 -3.65804,7.25076 -9.19697,18.90542 -14.98108,23.84226 -5.784,4.93684 -11.05903,6.64427 -16.06774,6.85515 -5.0087,0.21095 -8.48946,-1.02142 -11.97409,-3.95624 -3.48461,-2.9348 -5.64214,-4.8518 -6.92914,-12.99174 -1.28701,-8.13995 2.79107,-24.37349 6.0919,-34.18359 3.30083,-9.81012 7.77612,-18.50724 12.4677,-24.37746 4.69158,-5.87026 8.56232,-9.32473 13.60067,-11.34 5.03835,-2.0153 10.76134,-2.54474 14.81928,-0.97921 4.05795,1.56566 6.16994,4.60348 7.81526,8.0859 1.64521,3.48239 2.07607,13.17353 2.07607,13.17353 0,0 9.39551,-7.03274 12.90228,-9.41799 8.90383,-5.66263 17.88021,-11.74694 27.74027,-16.54778 7.32743,-3.53824 23.88137,-10.09297 23.88137,-10.09297 0,0 1.26708,3.98264 -2.03438,8.25414 -3.30146,4.27148 -13.30743,7.27569 -21.00713,11.37889 -7.69949,4.10316 -19.39126,13.58841 -19.39126,13.58841 0,0 -0.41638,9.17435 -0.99821,13.72408 -0.81244,6.35366 -1.79973,12.71676 -3.47288,18.89968 -1.27567,4.7136 -1.73021,6.08716 -4.98067,13.77691 -3.25066,7.68972 -9.20912,24.99783 -15.5196,36.74741 -6.31059,11.74956 -17.88993,26.6302 -22.19933,33.43292 -4.30929,6.80271 -7.26904,10.67008 -11.09384,14.14427 -3.82491,3.47418 -6.99067,6.00291 -11.52604,7.88579 -4.53508,1.88282 -11.41531,3.59027 -15.22815,2.88097 z m 45.79888,-109.94471 c 2.43134,-6.42646 6.22943,-18.00694 7.14397,-24.03356 0.91453,-6.02665 1.17732,-8.30083 0.14116,-11.50005 -1.03627,-3.19924 -1.52683,-5.98503 -5.17253,-6.96582 -3.6457,-0.98079 -8.31836,1.04827 -12.83701,5.52555 -4.51855,4.47732 -6.7036,13.13821 -9.76869,22.13144 -3.06498,8.99319 -9.43885,24.46571 -7.84095,31.86511 1.59776,7.39943 2.64171,9.45358 7.7935,9.90571 5.15188,0.45213 10.30933,-7.64649 13.74223,-12.27588 3.43301,-4.62941 4.36707,-8.22606 6.79832,-14.6525 z m -94.90401,96.44191 c -3.72302,-1.93566 -7.31719,-15.65247 -7.63061,-24.10292 -0.31372,-8.4504 -0.69928,-15.26155 1.1393,-27.9867 1.83855,-12.72517 4.55042,-27.98618 8.04423,-37.85971 3.4938,-9.87357 3.16669,-8.7882 10.94834,-21.50957 7.78164,-12.72135 28.2492,-45.15583 38.34381,-52.90682 10.0946,-7.75098 10.29242,-3.94446 10.29242,-3.94446 0,0 -4.71817,22.21117 -6.90086,32.5462 -2.18279,10.33504 -5.47693,16.7406 -6.19797,29.46349 -0.72105,12.72291 1.7867,34.02761 4.35613,46.14631 2.56931,12.11869 8.89934,26.52372 8.89934,26.52372 0,0 -3.26335,1.22403 -11.07515,-3.88524 -7.81183,-5.10928 -12.77015,-49.3789 -12.77015,-49.3789 l -27.71823,16.57807 c 0,0 -3.55015,23.02326 -5.31189,33.12658 -1.76173,10.10334 4.04804,37.1116 4.04804,37.1116 0,0 -4.74373,2.01402 -8.46675,0.0783 z m 34.71282,-96.17341 11.71318,-50.6148 c 0,0 -25.36557,40.37135 -27.71662,46.14642 -2.35107,5.77504 -6.66827,17.98698 -6.66827,17.98698 z"
       inkscape:connector-curvature="0"
       sodipodi:nodetypes="zzzczzzzzzcczzzzzzzzzzcccczzcaazzzzzzzzzzzzzzzzzzzzzzczzzczcczczcczcc" />
  </g>
</svg>
