<?xml version="1.0" encoding="UTF-8" standalone="no"?>
<!-- Created with Inkscape (http://www.inkscape.org/) by Falzar FZ (http://yugioh.wikia.com/wiki/User:Falzar_FZ) -->

<svg
   xmlns:dc="http://purl.org/dc/elements/1.1/"
   xmlns:cc="http://creativecommons.org/ns#"
   xmlns:rdf="http://www.w3.org/1999/02/22-rdf-syntax-ns#"
   xmlns:svg="http://www.w3.org/2000/svg"
   xmlns="http://www.w3.org/2000/svg"
   xmlns:sodipodi="http://sodipodi.sourceforge.net/DTD/sodipodi-0.dtd"
   xmlns:inkscape="http://www.inkscape.org/namespaces/inkscape"
   width="194.72433"
   height="193.51617"
   id="svg5784"
   version="1.1"
   inkscape:version="0.48.1 "
   sodipodi:docname="Emblem-HERO.svg">
  <defs
     id="defs5786" />
  <sodipodi:namedview
     id="base"
     pagecolor="#ffffff"
     bordercolor="#666666"
     borderopacity="1.0"
     inkscape:pageopacity="0.0"
     inkscape:pageshadow="2"
     inkscape:zoom="2.5495022"
     inkscape:cx="163.54704"
     inkscape:cy="102.11508"
     inkscape:document-units="px"
     inkscape:current-layer="layer1"
     showgrid="false"
     fit-margin-top="0"
     fit-margin-left="0"
     fit-margin-right="0"
     fit-margin-bottom="0"
     inkscape:window-width="1280"
     inkscape:window-height="780"
     inkscape:window-x="-8"
     inkscape:window-y="-8"
     inkscape:window-maximized="1" />
  <metadata
     id="metadata5789">
    <rdf:RDF>
      <cc:Work
         rdf:about="">
        <dc:format>image/svg+xml</dc:format>
        <dc:type
           rdf:resource="http://purl.org/dc/dcmitype/StillImage" />
        <dc:title />
      </cc:Work>
    </rdf:RDF>
  </metadata>
  <g
     inkscape:label="Layer 1"
     inkscape:groupmode="layer"
     id="layer1"
     transform="translate(-296.61838,-194.49084)">
    <path
       style="fill:#000000;stroke:none"
       d="m 332.65969,212.07971 c -18.7134,-0.0961 -34.54141,15.86541 -34.54141,15.86541 0,0 25.87121,3.82235 36.74786,12.84468 10.87665,9.02232 18.45461,25.81729 22.87876,39.76858 4.42415,13.9513 0.86682,42.05383 0.86682,42.05383 0,0 -8.97342,-5.43558 -13.71149,-6.96081 -4.73808,-1.52525 -14.31565,-2.20645 -14.31565,-2.20645 0,0 15.99187,16.23279 22.37968,25.79442 6.38781,9.56163 15.57647,31.1792 15.57647,31.1792 0,0 8.39569,-15.79007 10.9009,-24.8488 2.50521,-9.05872 3.67742,-29.02529 3.67742,-29.02529 l 21.72299,0 c 0,0 1.17221,19.96657 3.67742,29.02529 2.50521,9.05873 10.9009,24.8488 10.9009,24.8488 0,0 9.18866,-21.61757 15.57647,-31.1792 6.38781,-9.56163 22.37968,-25.79442 22.37968,-25.79442 0,0 -9.57757,0.6812 -14.31565,2.20645 -4.73807,1.52523 -13.71149,6.96081 -13.71149,6.96081 0,0 -3.55733,-28.10253 0.86682,-42.05383 4.42415,-13.95129 12.00211,-30.74626 22.87876,-39.76858 10.87665,-9.02233 36.74786,-12.84468 36.74786,-12.84468 0,0 -15.82801,-15.96149 -34.54141,-15.86541 -19.92814,0.10232 -37.77388,7.17737 -49.61881,25.66309 -8.96637,13.99332 -8.37924,26.18843 -8.37924,26.18843 0,0 5.80375,-6.07195 9.0622,-7.88017 3.25844,-1.80822 9.87647,-3.047 9.87647,-3.047 0,0 -5.42706,13.00684 -7.38108,20.48844 -1.95404,7.48159 -4.04517,24.29718 -4.04517,24.29718 l -21.67045,0 c 0,0 -2.09113,-16.81559 -4.04517,-24.29718 -1.95402,-7.4816 -7.38108,-20.48844 -7.38108,-20.48844 0,0 6.6443,1.23878 9.90274,3.047 3.25845,1.80822 9.03593,7.88017 9.03593,7.88017 0,0 0.58713,-12.19511 -8.37924,-26.18843 -11.84493,-18.48572 -29.69067,-25.56077 -49.61881,-25.66309 z"
       id="path9424"
       inkscape:connector-curvature="0"
       sodipodi:nodetypes="scsscscscsccscscscsscsscscsccscscss" />
  </g>
</svg>
