<?xml version="1.0" encoding="UTF-8" standalone="no"?>
<!-- Created with Inkscape (http://www.inkscape.org/) by Falzar FZ (http://yugioh.wikia.com/wiki/User:Falzar_FZ) -->

<svg
   xmlns:dc="http://purl.org/dc/elements/1.1/"
   xmlns:cc="http://creativecommons.org/ns#"
   xmlns:rdf="http://www.w3.org/1999/02/22-rdf-syntax-ns#"
   xmlns:svg="http://www.w3.org/2000/svg"
   xmlns="http://www.w3.org/2000/svg"
   xmlns:xlink="http://www.w3.org/1999/xlink"
   xmlns:sodipodi="http://sodipodi.sourceforge.net/DTD/sodipodi-0.dtd"
   xmlns:inkscape="http://www.inkscape.org/namespaces/inkscape"
   width="194.72433"
   height="193.51617"
   id="svg5784"
   version="1.1"
   inkscape:version="0.48.1 "
   sodipodi:docname="Crest-Gusto.svg">
  <defs
     id="defs5786">
    <linearGradient
       y2="658.06696"
       x2="1121.6682"
       y1="521.83978"
       x1="1023.4781"
       gradientTransform="translate(213.44735,-505.5424)"
       gradientUnits="userSpaceOnUse"
       id="linearGradient4678"
       xlink:href="#linearGradient4600-2"
       inkscape:collect="always" />
    <linearGradient
       id="linearGradient4600-2">
      <stop
         style="stop-color:#86c954;stop-opacity:1;"
         offset="0"
         id="stop4602-7" />
      <stop
         id="stop4612-0"
         offset="0.19931938"
         style="stop-color:#abcb71;stop-opacity:1;" />
      <stop
         id="stop4610-8"
         offset="0.52469605"
         style="stop-color:#59bc59;stop-opacity:1;" />
      <stop
         id="stop4608-9"
         offset="0.79626501"
         style="stop-color:#a7d380;stop-opacity:1;" />
      <stop
         style="stop-color:#96ce7c;stop-opacity:1;"
         offset="1"
         id="stop4604-4" />
    </linearGradient>
    <linearGradient
       y2="658.06696"
       x2="1121.6682"
       y1="521.83978"
       x1="1023.4781"
       gradientTransform="translate(-667.4816,-301.38917)"
       gradientUnits="userSpaceOnUse"
       id="linearGradient10675"
       xlink:href="#linearGradient4600-2"
       inkscape:collect="always" />
  </defs>
  <sodipodi:namedview
     id="base"
     pagecolor="#ffffff"
     bordercolor="#666666"
     borderopacity="1.0"
     inkscape:pageopacity="0.0"
     inkscape:pageshadow="2"
     inkscape:zoom="1.6414881"
     inkscape:cx="117.88624"
     inkscape:cy="123.97051"
     inkscape:document-units="px"
     inkscape:current-layer="layer1"
     showgrid="false"
     fit-margin-top="0"
     fit-margin-left="0"
     fit-margin-right="0"
     fit-margin-bottom="0"
     inkscape:window-width="1280"
     inkscape:window-height="780"
     inkscape:window-x="-8"
     inkscape:window-y="-8"
     inkscape:window-maximized="1" />
  <metadata
     id="metadata5789">
    <rdf:RDF>
      <cc:Work
         rdf:about="">
        <dc:format>image/svg+xml</dc:format>
        <dc:type
           rdf:resource="http://purl.org/dc/dcmitype/StillImage" />
        <dc:title />
      </cc:Work>
    </rdf:RDF>
  </metadata>
  <g
     inkscape:label="Layer 1"
     inkscape:groupmode="layer"
     id="layer1"
     transform="translate(-296.61838,-194.49084)">
    <path
       id="path4224-5"
       style="color:#000000;fill:url(#linearGradient10675);fill-opacity:1;fill-rule:evenodd;stroke:#8ec669;stroke-width:1.16499996000000010;marker:none;visibility:visible;display:inline;overflow:visible;enable-background:accumulate;stroke-opacity:1"
       d="m 393.96495,225.54212 c -36.2874,0 -65.6875,29.43133 -65.6875,65.71875 0,36.28742 29.4001,65.68751 65.6875,65.68751 36.2874,0 65.7187,-29.40009 65.7187,-65.68751 0,-36.28742 -29.4313,-65.71875 -65.7187,-65.71875 z m -11,4.28125 c 3.3811,0.0584 6.7653,0.79273 9.875,2.28125 10.1817,8.92079 11.016,11.4411 12.8437,23.34375 0.6583,6.11622 -0.9545,12.29762 0.2188,16.625 0.6043,2.2299 0.9236,3.45629 1.8438,4.5625 5.0161,2.74708 10.5385,5.17698 18.0312,5.625 6.485,-0.4943 13.2519,-0.5796 18.25,-11.6875 2.4711,-5.1028 -0.2188,-11.71875 -0.2188,-11.71875 10.3796,5.7152 14.5738,20.193 9.2813,31.25 -8.9206,10.1815 -11.41,11.01605 -23.3125,12.84375 -6.1164,0.6582 -12.2979,-0.95445 -16.625,0.21875 -2.23,0.60455 -3.4577,0.92635 -4.5625,1.84375 -2.747,5.01613 -5.1768,10.53852 -5.625,18.03125 0.4944,6.4852 0.5796,13.2518 11.6875,18.25 5.1028,2.4712 11.7188,-0.21875 11.7188,-0.21875 -5.7152,10.3795 -20.193,14.57376 -31.25,9.28125 -10.1815,-8.9208 -11.0162,-11.4098 -12.8438,-23.3125 -0.6582,-6.1162 0.9544,-12.2976 -0.2188,-16.625 -0.6044,-2.22991 -0.9262,-3.45787 -1.8437,-4.5625 -5.0162,-2.74708 -10.5385,-5.17698 -18.0313,-5.625 -6.4851,0.4943 -13.283,0.5796 -18.2813,11.6875 -2.471,5.1028 0.25,11.71875 0.25,11.71875 -10.3794,-5.7152 -14.605,-20.193 -9.3124,-31.25 8.9208,-10.1815 11.4411,-11.01605 23.3437,-12.84375 6.1163,-0.6582 12.2977,0.95445 16.625,-0.21875 2.23,-0.60455 3.4564,-0.92367 4.5626,-1.84375 2.75,-5.01448 5.1771,-10.5407 5.625,-18.03125 -0.4944,-6.48526 -0.5796,-13.28307 -11.6876,-18.28125 -5.1027,-2.47115 -11.7187,0.25 -11.7187,0.25 4.1077,-7.46029 12.7352,-11.74292 21.375,-11.59375 z m 11,57.21875 c -2.315,0 -4.1875,1.87258 -4.1875,4.1875 0,2.31492 1.8725,4.1875 4.1875,4.1875 2.3149,0 4.1875,-1.87258 4.1875,-4.1875 0,-2.31492 -1.8726,-4.1875 -4.1875,-4.1875 z m 0,-91.96507 c -53.1134,0 -96.1563,43.04287 -96.1563,96.15625 0,53.11338 43.0429,96.18751 96.1563,96.18751 53.1134,0 96.1875,-43.07413 96.1875,-96.18751 0,-53.11338 -43.0741,-96.15625 -96.1875,-96.15625 z m 0,15.84375 c 43.257,0 80.3438,37.05554 80.3438,80.3125 0,43.25696 -37.0868,80.34376 -80.3438,80.34376 -43.257,0 -80.3125,-37.0868 -80.3125,-80.34376 0,-43.25696 37.0555,-80.3125 80.3125,-80.3125 z"
       inkscape:connector-curvature="0"
       sodipodi:nodetypes="ssssssccccccccccccccccccccccccccccssssssssssssssss" />
  </g>
</svg>
