<?xml version="1.0" encoding="UTF-8" standalone="no"?>
<!-- Created with Inkscape (http://www.inkscape.org/) by Falzar FZ (http://yugioh.wikia.com/wiki/User:Falzar_FZ) -->

<svg
   xmlns:dc="http://purl.org/dc/elements/1.1/"
   xmlns:cc="http://creativecommons.org/ns#"
   xmlns:rdf="http://www.w3.org/1999/02/22-rdf-syntax-ns#"
   xmlns:svg="http://www.w3.org/2000/svg"
   xmlns="http://www.w3.org/2000/svg"
   xmlns:sodipodi="http://sodipodi.sourceforge.net/DTD/sodipodi-0.dtd"
   xmlns:inkscape="http://www.inkscape.org/namespaces/inkscape"
   width="194.72433"
   height="193.51617"
   id="svg5784"
   version="1.1"
   inkscape:version="0.48.1 "
   sodipodi:docname="Emblem-Dark Scorpion.svg">
  <defs
     id="defs5786" />
  <sodipodi:namedview
     id="base"
     pagecolor="#ffffff"
     bordercolor="#666666"
     borderopacity="1.0"
     inkscape:pageopacity="0.0"
     inkscape:pageshadow="2"
     inkscape:zoom="3.6055405"
     inkscape:cx="121.9122"
     inkscape:cy="83.812019"
     inkscape:document-units="px"
     inkscape:current-layer="layer1"
     showgrid="false"
     fit-margin-top="0"
     fit-margin-left="0"
     fit-margin-right="0"
     fit-margin-bottom="0"
     inkscape:window-width="1280"
     inkscape:window-height="780"
     inkscape:window-x="-8"
     inkscape:window-y="-8"
     inkscape:window-maximized="1" />
  <metadata
     id="metadata5789">
    <rdf:RDF>
      <cc:Work
         rdf:about="">
        <dc:format>image/svg+xml</dc:format>
        <dc:type
           rdf:resource="http://purl.org/dc/dcmitype/StillImage" />
        <dc:title />
      </cc:Work>
    </rdf:RDF>
  </metadata>
  <g
     inkscape:label="Layer 1"
     inkscape:groupmode="layer"
     id="layer1"
     transform="translate(-296.61838,-194.49084)">
    <g
       transform="translate(-284.34298,-226.60107)"
       id="g5768">
      <g
         transform="matrix(3.0363172,0,0,3.0363172,-1361.5459,-995.9432)"
         style="fill:#000000"
         id="g5753">
        <path
           inkscape:connector-curvature="0"
           style="fill:#000000;stroke:none"
           d="m 668.46875,490.375 -0.1875,7.1875 6.28125,6.25 3.15625,0.0312 0.53125,0 3.125,-0.0312 6.28125,-6.25 -0.1875,-7.1875 -6.03125,0.84375 -2.4375,-0.0312 0,-0.0312 -1.03125,0 -1.03125,0 0,0.0312 -2.4375,0.0312 -6.03125,-0.84375 z m 0.71875,1.8125 4.4375,2.53125 3.625,0 1.4375,0 3.625,0 4.4375,-2.53125 -6.0625,9.75 -2.71875,0.15625 -2.71875,-0.15625 -6.0625,-9.75 z"
           id="path5586" />
        <path
           style="fill:#000000;fill-opacity:1;stroke:none"
           inkscape:transform-center-x="0.0040068202"
           inkscape:transform-center-y="-0.68289552"
           d="m 675.41954,488.84279 -3.85313,-0.0214 2.31424,-4.11862 z"
           id="path5619"
           inkscape:connector-curvature="0"
           sodipodi:nodetypes="cccc" />
        <path
           style="fill:#000000;fill-opacity:1;stroke:none"
           d="m 668.28038,490.14295 -2.31897,2.18064 -3.99712,-4.2507 2.31897,-2.18064 z"
           id="path5626"
           inkscape:connector-curvature="0" />
        <path
           style="fill:#000000;fill-opacity:1;stroke:none"
           d="m 681.48891,506.29586 0.004,1.79372 -6.90605,0.003 -0.004,-1.79372 z"
           id="path5626-7"
           inkscape:connector-curvature="0" />
        <path
           style="fill:#000000;fill-opacity:1;stroke:none"
           d="m 681.21287,511.63249 0.004,1.79372 -6.90605,0.003 -0.004,-1.79372 z"
           id="path5626-7-0"
           inkscape:connector-curvature="0" />
        <path
           style="fill:#000000;fill-opacity:1;stroke:none"
           d="m 679.65791,520.28159 -1.01076,1.48182 -5.69819,-3.90182 1.01076,-1.48182 z"
           id="path5626-7-5"
           inkscape:connector-curvature="0" />
        <path
           style="fill:#000000;fill-opacity:1;stroke:none"
           d="m 672.10436,526.837 -1.75937,0.34938 -1.33296,-6.7762 1.75937,-0.34938 z"
           id="path5626-7-5-0"
           inkscape:connector-curvature="0" />
        <path
           style="fill:#000000;fill-opacity:1;stroke:none"
           d="m 661.01986,525.11468 -1.47581,-1.01951 3.93548,-5.67499 1.47581,1.01951 z"
           id="path5626-7-5-6"
           inkscape:connector-curvature="0" />
        <path
           style="fill:#000000;fill-opacity:1;stroke:none"
           d="m 657.98312,485.01644 -0.1378,-10.19403 11.96219,-4.88425 -5.23209,8.39891 8.86584,-4.85934 -6.20437,11.80186 z"
           id="path5626-9"
           inkscape:connector-curvature="0"
           sodipodi:nodetypes="ccccccc" />
        <path
           sodipodi:nodetypes="cccc"
           inkscape:connector-curvature="0"
           id="path5717"
           d="m 680.52226,488.84279 3.85313,-0.0214 -2.31424,-4.11862 z"
           inkscape:transform-center-y="-0.68289552"
           inkscape:transform-center-x="-0.0040068202"
           style="fill:#000000;fill-opacity:1;stroke:none" />
        <path
           inkscape:connector-curvature="0"
           id="path5719"
           d="m 687.66142,490.14295 2.31897,2.18064 3.99712,-4.2507 -2.31897,-2.18064 z"
           style="fill:#000000;fill-opacity:1;stroke:none" />
        <path
           sodipodi:nodetypes="ccccccc"
           inkscape:connector-curvature="0"
           id="path5721"
           d="m 697.95868,485.01644 0.1378,-10.19403 -11.96219,-4.88425 5.23209,8.39891 -8.86584,-4.85934 6.20437,11.80186 z"
           style="fill:#000000;fill-opacity:1;stroke:none" />
        <path
           sodipodi:nodetypes="ccccccc"
           inkscape:connector-curvature="0"
           id="path5721-0"
           d="m 659.61875,518.94447 1.27901,-10.11441 -11.3397,-6.19368 4.25819,8.93221 -8.26561,-5.82202 4.8431,12.42267 z"
           style="fill:#000000;fill-opacity:1;stroke:none" />
      </g>
    </g>
  </g>
</svg>
