<?xml version="1.0" encoding="UTF-8" standalone="no"?>
<!-- Created with Inkscape (http://www.inkscape.org/) by Falzar FZ (http://yugioh.wikia.com/wiki/User:Falzar_FZ) -->

<svg
   xmlns:dc="http://purl.org/dc/elements/1.1/"
   xmlns:cc="http://creativecommons.org/ns#"
   xmlns:rdf="http://www.w3.org/1999/02/22-rdf-syntax-ns#"
   xmlns:svg="http://www.w3.org/2000/svg"
   xmlns="http://www.w3.org/2000/svg"
   xmlns:sodipodi="http://sodipodi.sourceforge.net/DTD/sodipodi-0.dtd"
   xmlns:inkscape="http://www.inkscape.org/namespaces/inkscape"
   width="194.72433"
   height="193.51617"
   id="svg5784"
   version="1.1"
   inkscape:version="0.48.1 "
   sodipodi:docname="Crest-Destiny HERO.svg">
  <defs
     id="defs5786" />
  <sodipodi:namedview
     id="base"
     pagecolor="#ffffff"
     bordercolor="#666666"
     borderopacity="1.0"
     inkscape:pageopacity="0.0"
     inkscape:pageshadow="2"
     inkscape:zoom="2.0457217"
     inkscape:cx="183.11868"
     inkscape:cy="113.47226"
     inkscape:document-units="px"
     inkscape:current-layer="layer1"
     showgrid="false"
     fit-margin-top="0"
     fit-margin-left="0"
     fit-margin-right="0"
     fit-margin-bottom="0"
     inkscape:window-width="1280"
     inkscape:window-height="780"
     inkscape:window-x="-8"
     inkscape:window-y="-8"
     inkscape:window-maximized="1" />
  <metadata
     id="metadata5789">
    <rdf:RDF>
      <cc:Work
         rdf:about="">
        <dc:format>image/svg+xml</dc:format>
        <dc:type
           rdf:resource="http://purl.org/dc/dcmitype/StillImage" />
        <dc:title />
      </cc:Work>
    </rdf:RDF>
  </metadata>
  <g
     inkscape:label="Layer 1"
     inkscape:groupmode="layer"
     id="layer1"
     transform="translate(-296.61838,-194.49084)">
    <path
       style="fill:#000000;stroke:none"
       d="m 322.73092,363.82545 18.4022,-7.75445 c 0,0 12.21652,-7.59248 13.86185,-19.81586 1.6453,-12.22335 -9.69453,-24.31405 -9.69453,-24.31405 0,0 9.29212,-7.76244 9.57351,-16.74719 0.28141,-8.98476 -9.39699,-15.21424 -9.39699,-15.21424 0,0 9.68932,-8.52215 9.83705,-22.00956 0.14767,-13.48742 -10.35515,-20.10658 -10.35515,-20.10658 l -23.46488,-7.42801 c 0,0 21.63696,-14.39651 36.67971,-17.45576 15.04278,-3.05923 35.50726,-2.35015 51.43532,2.20855 15.92808,4.55872 30.51022,11.90128 41.71638,23.58689 11.2062,11.68564 19.89146,29.03467 22.41023,43.8224 2.51878,14.78773 -1.44986,29.15428 -5.50116,40.41146 -4.05131,11.25718 -9.9448,19.32594 -16.35134,26.33668 -6.40643,7.01079 -11.80718,11.23662 -20.75282,15.63379 -8.94568,4.39712 -20.73832,7.26321 -32.61682,8.95964 -11.87849,1.69643 -25.39434,2.27737 -38.16457,0.59649 -12.7702,-1.68084 -37.61799,-10.7102 -37.61799,-10.7102 z M 431.8019,330.66562 c 2.98854,-5.06229 4.72112,-11.34237 6.16662,-16.80491 1.4455,-5.46253 2.36023,-10.22409 2.63922,-15.78355 0.27892,-5.55949 0.029,-11.89524 -1.13701,-17.3589 -1.16602,-5.46363 -2.73818,-10.04502 -5.60631,-15.11802 -2.86815,-5.07302 -7.29142,-10.45641 -11.75982,-14.72148 -4.46837,-4.26506 -8.4361,-7.55357 -14.75021,-10.69762 -6.31412,-3.14406 -23.04864,-7.04216 -23.04864,-7.04216 l -0.3782,126.83394 c 0,0 13.67804,-2.72589 19.82152,-5.47251 6.14352,-2.74663 11.98081,-6.65963 16.66579,-10.71669 4.68502,-4.05706 8.39852,-8.0558 11.38704,-13.1181 z"
       id="path9426"
       inkscape:connector-curvature="0"
       sodipodi:nodetypes="cczczczcczzzzzzzzzczzzzzzzcczzz" />
  </g>
</svg>
