<?xml version="1.0" encoding="UTF-8" standalone="no"?>
<!-- Created with Inkscape (http://www.inkscape.org/) -->

<svg
   xmlns:dc="http://purl.org/dc/elements/1.1/"
   xmlns:cc="http://creativecommons.org/ns#"
   xmlns:rdf="http://www.w3.org/1999/02/22-rdf-syntax-ns#"
   xmlns:svg="http://www.w3.org/2000/svg"
   xmlns="http://www.w3.org/2000/svg"
   xmlns:xlink="http://www.w3.org/1999/xlink"
   xmlns:sodipodi="http://sodipodi.sourceforge.net/DTD/sodipodi-0.dtd"
   xmlns:inkscape="http://www.inkscape.org/namespaces/inkscape"
   width="77.379837"
   height="77.407059"
   id="svg3155"
   version="1.1"
   inkscape:version="0.48.1 "
   sodipodi:docname="New document 2">
  <defs
     id="defs3157">
    <linearGradient
       y2="22.401928"
       x2="106.24998"
       y1="22.901928"
       x1="143.49998"
       gradientTransform="matrix(0.48429931,0,0,0.48429922,310.09527,520.09598)"
       gradientUnits="userSpaceOnUse"
       id="linearGradient3069"
       xlink:href="#linearGradient5507-3"
       inkscape:collect="always" />
    <linearGradient
       id="linearGradient5507-3">
      <stop
         style="stop-color:#ff0000;stop-opacity:1;"
         offset="0"
         id="stop5509-1" />
      <stop
         style="stop-color:#ff6600;stop-opacity:1"
         offset="1"
         id="stop5511-9" />
    </linearGradient>
    <linearGradient
       y2="22.401928"
       x2="106.24998"
       y1="22.901928"
       x1="143.49998"
       gradientTransform="matrix(0.48429931,0,0,0.48429922,310.09527,520.09598)"
       gradientUnits="userSpaceOnUse"
       id="linearGradient3103"
       xlink:href="#linearGradient5507-3"
       inkscape:collect="always" />
    <linearGradient
       id="linearGradient3105">
      <stop
         style="stop-color:#ff0000;stop-opacity:1;"
         offset="0"
         id="stop3107" />
      <stop
         style="stop-color:#ff6600;stop-opacity:1"
         offset="1"
         id="stop3109" />
    </linearGradient>
    <linearGradient
       inkscape:collect="always"
       xlink:href="#linearGradient3226"
       id="linearGradient3232"
       x1="27.889833"
       y1="72.126396"
       x2="50.486893"
       y2="5.2095485"
       gradientUnits="userSpaceOnUse" />
    <linearGradient
       id="linearGradient3226">
      <stop
         style="stop-color:#4c3b2e;stop-opacity:1"
         offset="0"
         id="stop3228" />
      <stop
         id="stop3242"
         offset="0.14261003"
         style="stop-color:#382719;stop-opacity:1" />
      <stop
         id="stop3240"
         offset="0.25030407"
         style="stop-color:#3a261d;stop-opacity:1" />
      <stop
         id="stop3238"
         offset="0.37586871"
         style="stop-color:#5e3f28;stop-opacity:1" />
      <stop
         id="stop3236"
         offset="0.54912984"
         style="stop-color:#67472d;stop-opacity:1" />
      <stop
         id="stop3234"
         offset="0.73748988"
         style="stop-color:#4b3223;stop-opacity:1" />
      <stop
         style="stop-color:#1f2123;stop-opacity:1"
         offset="1"
         id="stop3230" />
    </linearGradient>
    <filter
       id="filter3460"
       inkscape:label="Organic"
       x="0"
       y="0"
       width="1"
       height="1"
       inkscape:menu="Textures"
       inkscape:menu-tooltip="Bulging, knotty, slick 3D surface"
       color-interpolation-filters="sRGB">
      <feTurbulence
         id="feTurbulence3462"
         numOctaves="3"
         baseFrequency="0.037"
         result="result0" />
      <feSpecularLighting
         id="feSpecularLighting3464"
         specularExponent="24.29999924"
         surfaceScale="2"
         specularConstant="1"
         result="result1">
        <feDistantLight
           id="feDistantLight3466"
           elevation="45"
           azimuth="225" />
      </feSpecularLighting>
      <feDiffuseLighting
         id="feDiffuseLighting3468"
         in="result0"
         surfaceScale="3"
         diffuseConstant="1.21000004"
         result="result2">
        <feDistantLight
           id="feDistantLight3470"
           azimuth="225"
           elevation="42" />
      </feDiffuseLighting>
      <feBlend
         id="feBlend3472"
         in2="SourceGraphic"
         mode="multiply"
         result="result91" />
      <feComposite
         k4="0"
         k1="0"
         id="feComposite3474"
         in2="result91"
         operator="arithmetic"
         in="result1"
         k2="1"
         k3="1"
         result="result92" />
      <feComposite
         id="feComposite3476"
         in2="SourceAlpha"
         operator="in"
         result="result2" />
    </filter>
    <linearGradient
       y2="18.742847"
       x2="67.666588"
       y1="55.566059"
       x1="5.9798379"
       gradientTransform="matrix(0.9194574,0,0,0.93574462,338.41327,495.14202)"
       gradientUnits="userSpaceOnUse"
       id="linearGradient3257"
       xlink:href="#linearGradient3430"
       inkscape:collect="always" />
    <linearGradient
       id="linearGradient3430">
      <stop
         style="stop-color:#eaeaeb;stop-opacity:1"
         offset="0"
         id="stop3432" />
      <stop
         id="stop3434"
         offset="0.17826565"
         style="stop-color:#a3a3a3;stop-opacity:1" />
      <stop
         id="stop3436"
         offset="0.37303641"
         style="stop-color:#dad9d9;stop-opacity:1" />
      <stop
         id="stop3438"
         offset="0.4905695"
         style="stop-color:#babcbd;stop-opacity:1" />
      <stop
         id="stop3440"
         offset="0.61295938"
         style="stop-color:#bcbebf;stop-opacity:1" />
      <stop
         id="stop3442"
         offset="0.82820266"
         style="stop-color:#f0f3f5;stop-opacity:1" />
      <stop
         style="stop-color:#a4a4a4;stop-opacity:1"
         offset="1"
         id="stop3444" />
    </linearGradient>
    <filter
       id="filter3527"
       inkscape:label="Organic"
       x="0"
       y="0"
       width="1"
       height="1"
       inkscape:menu="Textures"
       inkscape:menu-tooltip="Bulging, knotty, slick 3D surface"
       color-interpolation-filters="sRGB">
      <feTurbulence
         id="feTurbulence3529"
         numOctaves="3"
         baseFrequency="0.037"
         result="result0" />
      <feSpecularLighting
         id="feSpecularLighting3531"
         specularExponent="24.29999924"
         surfaceScale="2"
         specularConstant="1"
         result="result1">
        <feDistantLight
           id="feDistantLight3533"
           elevation="45"
           azimuth="225" />
      </feSpecularLighting>
      <feDiffuseLighting
         id="feDiffuseLighting3535"
         in="result0"
         surfaceScale="3"
         diffuseConstant="1.21000004"
         result="result2">
        <feDistantLight
           id="feDistantLight3537"
           azimuth="225"
           elevation="42" />
      </feDiffuseLighting>
      <feBlend
         id="feBlend3539"
         in2="SourceGraphic"
         mode="multiply"
         result="result91" />
      <feComposite
         k4="0"
         k1="0"
         id="feComposite3541"
         in2="result91"
         operator="arithmetic"
         in="result1"
         k2="1"
         k3="1"
         result="result92" />
      <feComposite
         id="feComposite3543"
         in2="SourceAlpha"
         operator="in"
         result="result2" />
    </filter>
  </defs>
  <sodipodi:namedview
     id="base"
     pagecolor="#ffffff"
     bordercolor="#666666"
     borderopacity="1.0"
     inkscape:pageopacity="0.0"
     inkscape:pageshadow="2"
     inkscape:zoom="0.35"
     inkscape:cx="38.683237"
     inkscape:cy="38.700955"
     inkscape:document-units="px"
     inkscape:current-layer="layer1"
     showgrid="false"
     fit-margin-left="0.2"
     fit-margin-top="0.2"
     fit-margin-bottom="0.2"
     fit-margin-right="0.2"
     inkscape:window-width="469"
     inkscape:window-height="455"
     inkscape:window-x="23"
     inkscape:window-y="23"
     inkscape:window-maximized="0" />
  <metadata
     id="metadata3160">
    <rdf:RDF>
      <cc:Work
         rdf:about="">
        <dc:format>image/svg+xml</dc:format>
        <dc:type
           rdf:resource="http://purl.org/dc/dcmitype/StillImage" />
        <dc:title></dc:title>
      </cc:Work>
    </rdf:RDF>
  </metadata>
  <g
     inkscape:label="Layer 1"
     inkscape:groupmode="layer"
     id="layer1"
     transform="translate(-336.31676,-493.65608)">
    <g
       transform="translate(1.1635588,1.2696485)"
       style="display:inline"
       id="g3545">
      <text
         xml:space="preserve"
         style="font-size:19.37196732px;font-style:normal;font-weight:normal;line-height:125%;letter-spacing:0px;word-spacing:0px;fill:url(#linearGradient3069);fill-opacity:1;stroke:none;font-family:StoneSerITCStd Medium;-inkscape-font-specification:StoneSerITCStd Medium"
         x="355.98264"
         y="531.79266"
         id="text5503"
         sodipodi:linespacing="125%"><tspan
           sodipodi:role="line"
           id="tspan5505"
           x="355.98264"
           y="531.79266"
           style="font-size:2.90579534px;fill:url(#linearGradient3069);fill-opacity:1">Created by Falzar FZ</tspan></text>
      <path
         sodipodi:type="arc"
         style="fill:url(#linearGradient3232);fill-opacity:1;stroke:#131b40;stroke-width:0;stroke-miterlimit:4.0999999;stroke-opacity:1;stroke-dasharray:none"
         id="path3293"
         sodipodi:cx="36.399899"
         sodipodi:cy="36.455563"
         sodipodi:rx="36.5522"
         sodipodi:ry="36.399899"
         d="m 72.952099,36.455563 c 0,20.103108 -16.364978,36.399898 -36.5522,36.399898 -20.187223,0 -36.55220079,-16.29679 -36.55220079,-36.399898 0,-20.103109 16.36497779,-36.39989894 36.55220079,-36.39989894 20.187222,0 36.5522,16.29678994 36.5522,36.39989894 z"
         transform="matrix(1.0518167,0,0,1.0562477,335.55042,492.58643)" />
      <path
         sodipodi:type="arc"
         style="opacity:0.11000001;fill:#666666;fill-opacity:1;stroke:#131b40;stroke-width:0;stroke-miterlimit:4.0999999;stroke-opacity:1;stroke-dasharray:none;display:inline;filter:url(#filter3460)"
         id="path3293-5"
         sodipodi:cx="36.399899"
         sodipodi:cy="36.455563"
         sodipodi:rx="36.5522"
         sodipodi:ry="36.399899"
         d="m 72.952099,36.455563 c 0,20.103108 -16.364978,36.399898 -36.5522,36.399898 -20.187223,0 -36.55220079,-16.29679 -36.55220079,-36.399898 0,-20.103109 16.36497779,-36.39989894 36.55220079,-36.39989894 20.187222,0 36.5522,16.29678994 36.5522,36.39989894 z"
         transform="matrix(1.0518167,0,0,1.0562477,335.55042,492.58643)" />
      <path
         d="m 374.426,497.28628 c -6.12428,0.15074 -12.35534,1.46707 -17.52715,4.9419 -9.34965,5.9929 -15.54122,16.93317 -15.45839,28.2478 -0.0936,4.62112 0.43529,9.27244 2.0113,13.62678 3.07623,9.06999 10.56459,16.18765 19.2799,19.59215 4.17347,1.65786 8.6841,2.3367 13.15974,2.07619 3.83555,-0.003 7.68946,-0.47491 11.26333,-1.95922 7.38132,-3.06662 13.86417,-8.59509 17.67084,-15.76144 4.10807,-8.10183 4.93507,-17.86111 2.49977,-26.61024 -1.86291,-6.48339 -5.92613,-12.09166 -10.7749,-16.60947 -5.94394,-5.52705 -14.20819,-7.72562 -22.12444,-7.54445 z m 0.63214,2.4271 c 17.28111,0 31.29029,14.25732 31.29029,31.84455 0,17.58724 -14.00918,31.84456 -31.29029,31.84456 -17.28112,0 -31.2903,-14.25732 -31.2903,-31.84456 0,-17.58723 14.00918,-31.84455 31.2903,-31.84455 z m -16.40659,10.84878 c -2.27542,0.003 -4.55482,0.0368 -6.34998,0.0292 l -0.0575,0.0292 c 0.15158,0.55717 -0.41175,1.81236 0.48847,1.69603 2.61376,0.0584 4.36558,1.88188 5.89028,3.91844 0.3813,0.56302 0.0732,1.37842 0.17239,2.04693 -0.0501,9.73258 0.005,19.4521 -0.14367,29.18354 0.0713,1.71297 -0.41661,3.52583 -2.06877,4.06464 -0.91072,0.39979 -1.96915,0.46683 -2.90205,0.70181 0.15286,0.54851 -0.39193,1.85674 0.5172,1.6668 l 14.0792,0 c -0.0361,-0.48821 0.41323,-1.71355 -0.31607,-1.72528 -1.84876,-0.24893 -4.08018,-0.35442 -5.31561,-1.98847 -1.08858,-1.69811 -0.70473,-3.84072 -0.83326,-5.76067 -0.0267,-8.54532 -0.10793,-14.61502 0,-23.15968 -0.1075,-0.89546 0.42103,9.4e-4 0.66086,0.29242 9.49801,11.54577 16.47,22.68489 25.94594,34.2424 0.67952,-0.0389 3.84146,0.0765 4.48236,-0.0585 0.067,-12.3095 0.006,-26.58331 0.17239,-38.89189 -0.18509,-1.82034 1.03612,-3.63647 2.78711,-4.03539 0.8047,-0.292 1.69064,-0.39697 2.49977,-0.58484 0.14896,-0.52005 0.0732,-1.13606 0,-1.63756 l -14.53892,0 c 0.0362,0.48341 -0.38407,1.68585 0.3448,1.69604 1.95502,0.25601 4.34284,0.43576 5.45928,2.3686 0.99837,1.99997 0.53678,4.32912 0.66086,6.49173 0.0117,7.654 -0.0594,13.51731 -0.0861,21.17123 -9.04781,-11.17329 -16.18199,-20.55242 -25.22761,-31.7276 -1.79133,-0.0253 -4.04583,-0.032 -6.32127,-0.0292 z m 15.9312,-13.92682 c -12.12892,0.0669 -23.86091,7.06054 -29.7803,17.6245 -6.35082,10.93923 -5.95808,25.39415 0.92797,35.99787 4.09164,6.35453 10.27084,11.37753 17.40546,13.93247 7.18192,2.75276 15.26547,2.82464 22.5734,0.47992 9.58755,-2.96759 17.59382,-10.43196 21.53284,-19.62832 3.66367,-8.75436 3.62136,-19.03368 -0.28546,-27.70288 -4.92029,-11.44627 -16.4557,-19.60974 -28.86045,-20.58235 -1.16834,-0.0995 -2.34103,-0.1412 -3.51346,-0.12121 z m 0.55487,4.10601 c 10.18344,-0.10077 20.14594,5.32001 25.6617,13.84696 6.48247,9.61147 6.73713,22.96745 0.62225,32.8172 -4.4531,7.3539 -12.04682,12.74374 -20.55203,14.29138 -2.82383,0.4724 -5.73228,0.58755 -8.58749,0.43044 -9.74825,-0.82108 -18.77749,-6.69536 -23.70029,-15.07693 -3.09197,-5.17534 -4.51473,-11.25976 -4.13392,-17.27842 0.40469,-11.29997 7.74894,-21.83463 18.06214,-26.343 3.94888,-1.7668 8.28981,-2.69332 12.62764,-2.68763 z"
         style="fill:#070506;fill-opacity:1;stroke:none;display:inline"
         id="path3316-4"
         inkscape:connector-curvature="0" />
      <path
         inkscape:connector-curvature="0"
         d="m 373.15122,496.89404 c -6.12429,0.15074 -12.35535,1.46707 -17.52716,4.9419 -9.34963,5.9929 -15.54121,16.93317 -15.45838,28.2478 -0.0936,4.62112 0.4353,9.27244 2.01131,13.62678 3.07623,9.06999 10.56458,16.18765 19.27988,19.59215 4.17347,1.65786 8.6841,2.3367 13.15974,2.07619 3.83556,-0.003 7.68946,-0.47491 11.26334,-1.95922 7.38132,-3.06662 13.86416,-8.59509 17.67083,-15.76144 4.10807,-8.10183 4.93507,-17.86111 2.49978,-26.61024 -1.86292,-6.48339 -5.92614,-12.09166 -10.7749,-16.60947 -5.94395,-5.52705 -14.20819,-7.72562 -22.12444,-7.54445 z m 0.63213,2.4271 c 17.28111,0 31.29029,14.25732 31.29029,31.84455 0,17.58724 -14.00918,31.84456 -31.29029,31.84456 -17.28112,0 -31.29029,-14.25732 -31.29029,-31.84456 0,-17.58723 14.00917,-31.84455 31.29029,-31.84455 z m -16.40658,10.84878 c -2.27543,0.003 -4.55482,0.0368 -6.34999,0.0292 l -0.0575,0.0292 c 0.15158,0.55717 -0.41174,1.81236 0.48847,1.69603 2.61377,0.0584 4.36558,1.88188 5.89028,3.91844 0.3813,0.56302 0.0732,1.37842 0.17239,2.04693 -0.0501,9.73258 0.005,19.4521 -0.14367,29.18354 0.0713,1.71297 -0.41661,3.52583 -2.06877,4.06464 -0.91072,0.39979 -1.96915,0.46683 -2.90205,0.70181 0.15286,0.54851 -0.39193,1.85674 0.5172,1.6668 l 14.0792,0 c -0.0361,-0.48821 0.41323,-1.71355 -0.31607,-1.72528 -1.84876,-0.24893 -4.08018,-0.35442 -5.31561,-1.98847 -1.08858,-1.69811 -0.70473,-3.84072 -0.83326,-5.76067 -0.0267,-8.54532 -0.10793,-14.61502 0,-23.15968 -0.1075,-0.89546 0.42103,9.4e-4 0.66086,0.29242 9.49801,11.54577 16.47,22.68489 25.94594,34.2424 0.67952,-0.0389 3.84146,0.0765 4.48236,-0.0585 0.067,-12.3095 0.006,-26.58331 0.17239,-38.89189 -0.18509,-1.82034 1.03612,-3.63647 2.78711,-4.03539 0.8047,-0.292 1.69064,-0.39697 2.49977,-0.58484 0.14896,-0.52005 0.0732,-1.13606 0,-1.63756 l -14.53892,0 c 0.0362,0.48341 -0.38407,1.68585 0.3448,1.69604 1.95502,0.25601 4.34284,0.43576 5.45928,2.3686 0.99837,1.99997 0.53678,4.32912 0.66086,6.49173 0.0117,7.654 -0.0594,13.51731 -0.0861,21.17123 -9.04781,-11.17329 -16.18199,-20.55242 -25.22761,-31.7276 -1.79133,-0.0253 -4.04583,-0.032 -6.32127,-0.0292 z m 15.93119,-13.92682 c -12.12892,0.0669 -23.86091,7.06054 -29.78029,17.6245 -6.35081,10.93923 -5.95807,25.39415 0.92797,35.99787 4.09164,6.35453 10.27083,11.37753 17.40545,13.93247 7.18192,2.75276 15.26547,2.82464 22.5734,0.47992 9.58755,-2.96759 17.59382,-10.43196 21.53284,-19.62832 3.66367,-8.75436 3.62136,-19.03368 -0.28546,-27.70288 -4.92029,-11.44627 -16.4557,-19.60974 -28.86045,-20.58235 -1.16834,-0.0995 -2.34103,-0.1412 -3.51346,-0.12121 z m 0.55487,4.10601 c 10.18345,-0.10077 20.14595,5.32001 25.66171,13.84696 6.48247,9.61147 6.73713,22.96745 0.62225,32.8172 -4.45311,7.3539 -12.04682,12.74374 -20.55203,14.29138 -2.82383,0.4724 -5.73228,0.58755 -8.5875,0.43044 -9.74824,-0.82108 -18.77748,-6.69536 -23.70028,-15.07693 -3.09197,-5.17534 -4.51473,-11.25976 -4.13392,-17.27842 0.40469,-11.29997 7.74893,-21.83463 18.06214,-26.343 3.94888,-1.7668 8.2898,-2.69332 12.62763,-2.68763 z"
         style="fill:url(#linearGradient3257);fill-opacity:1;stroke:none;display:inline"
         id="path3316" />
      <path
         d="m 373.15123,496.89404 c -6.12429,0.15074 -12.35535,1.46707 -17.52716,4.9419 -9.34964,5.9929 -15.54122,16.93317 -15.45839,28.2478 -0.0936,4.62112 0.4353,9.27244 2.01131,13.62678 3.07623,9.06999 10.56459,16.18765 19.27989,19.59215 4.17347,1.65786 8.6841,2.3367 13.15974,2.07619 3.83556,-0.003 7.68946,-0.47491 11.26334,-1.95922 7.38132,-3.06662 13.86416,-8.59509 17.67083,-15.76144 4.10807,-8.10183 4.93507,-17.86111 2.49978,-26.61024 -1.86292,-6.48339 -5.92614,-12.09166 -10.7749,-16.60947 -5.94395,-5.52705 -14.20819,-7.72562 -22.12444,-7.54445 z m 0.63213,2.4271 c 17.28111,0 31.29029,14.25732 31.29029,31.84455 0,17.58724 -14.00918,31.84456 -31.29029,31.84456 -17.28112,0 -31.2903,-14.25732 -31.2903,-31.84456 0,-17.58723 14.00918,-31.84455 31.2903,-31.84455 z m -16.40658,10.84878 c -2.27543,0.003 -4.55482,0.0368 -6.34999,0.0292 l -0.0575,0.0292 c 0.15158,0.55717 -0.41174,1.81236 0.48847,1.69603 2.61377,0.0584 4.36558,1.88188 5.89028,3.91844 0.3813,0.56302 0.0732,1.37842 0.17239,2.04693 -0.0501,9.73258 0.005,19.4521 -0.14367,29.18354 0.0713,1.71297 -0.41661,3.52583 -2.06877,4.06464 -0.91072,0.39979 -1.96915,0.46683 -2.90205,0.70181 0.15286,0.54851 -0.39193,1.85674 0.5172,1.6668 l 14.0792,0 c -0.0361,-0.48821 0.41323,-1.71355 -0.31607,-1.72528 -1.84876,-0.24893 -4.08018,-0.35442 -5.31561,-1.98847 -1.08858,-1.69811 -0.70473,-3.84072 -0.83326,-5.76067 -0.0267,-8.54532 -0.10793,-14.61502 0,-23.15968 -0.1075,-0.89546 0.42103,9.4e-4 0.66086,0.29242 9.49801,11.54577 16.47,22.68489 25.94594,34.2424 0.67952,-0.0389 3.84146,0.0765 4.48236,-0.0585 0.067,-12.3095 0.006,-26.58331 0.17239,-38.89189 -0.18509,-1.82034 1.03612,-3.63647 2.78711,-4.03539 0.8047,-0.292 1.69064,-0.39697 2.49977,-0.58484 0.14896,-0.52005 0.0732,-1.13606 0,-1.63756 l -14.53892,0 c 0.0362,0.48341 -0.38407,1.68585 0.3448,1.69604 1.95502,0.25601 4.34284,0.43576 5.45928,2.3686 0.99837,1.99997 0.53678,4.32912 0.66086,6.49173 0.0117,7.654 -0.0594,13.51731 -0.0861,21.17123 -9.04781,-11.17329 -16.18199,-20.55242 -25.22761,-31.7276 -1.79133,-0.0253 -4.04583,-0.032 -6.32127,-0.0292 z m 15.93119,-13.92682 c -12.12892,0.0669 -23.86091,7.06054 -29.7803,17.6245 -6.35081,10.93923 -5.95807,25.39415 0.92797,35.99787 4.09164,6.35453 10.27084,11.37753 17.40546,13.93247 7.18192,2.75276 15.26547,2.82464 22.5734,0.47992 9.58755,-2.96759 17.59382,-10.43196 21.53284,-19.62832 3.66367,-8.75436 3.62136,-19.03368 -0.28546,-27.70288 -4.92029,-11.44627 -16.4557,-19.60974 -28.86045,-20.58235 -1.16834,-0.0995 -2.34103,-0.1412 -3.51346,-0.12121 z m 0.55487,4.10601 c 10.18345,-0.10077 20.14595,5.32001 25.66171,13.84696 6.48247,9.61147 6.73713,22.96745 0.62225,32.8172 -4.45311,7.3539 -12.04682,12.74374 -20.55203,14.29138 -2.82383,0.4724 -5.73228,0.58755 -8.5875,0.43044 -9.74824,-0.82108 -18.77748,-6.69536 -23.70029,-15.07693 -3.09197,-5.17534 -4.51473,-11.25976 -4.13392,-17.27842 0.40469,-11.29997 7.74894,-21.83463 18.06215,-26.343 3.94888,-1.7668 8.2898,-2.69332 12.62763,-2.68763 z"
         style="opacity:0.07999998;fill:#666666;fill-opacity:1;stroke:none;display:inline;filter:url(#filter3527)"
         id="path3316-42"
         inkscape:connector-curvature="0" />
    </g>
  </g>
</svg>
