<?xml version="1.0" encoding="UTF-8" standalone="no"?>
<!-- Created with Inkscape (http://www.inkscape.org/) by Falzar FZ (http://yugioh.wikia.com/wiki/User:Falzar_FZ) -->

<svg
   xmlns:dc="http://purl.org/dc/elements/1.1/"
   xmlns:cc="http://creativecommons.org/ns#"
   xmlns:rdf="http://www.w3.org/1999/02/22-rdf-syntax-ns#"
   xmlns:svg="http://www.w3.org/2000/svg"
   xmlns="http://www.w3.org/2000/svg"
   xmlns:xlink="http://www.w3.org/1999/xlink"
   xmlns:sodipodi="http://sodipodi.sourceforge.net/DTD/sodipodi-0.dtd"
   xmlns:inkscape="http://www.inkscape.org/namespaces/inkscape"
   width="194.72433"
   height="193.51617"
   id="svg5784"
   version="1.1"
   inkscape:version="0.48.1 "
   sodipodi:docname="Crest-Gishki.svg">
  <defs
     id="defs5786">
    <linearGradient
       id="linearGradient10445-2-7">
      <stop
         style="stop-color:#3d70b2;stop-opacity:1;"
         offset="0"
         id="stop10447-7-5" />
      <stop
         id="stop10461-4-2"
         offset="0.26511589"
         style="stop-color:#60a5cb;stop-opacity:1;" />
      <stop
         id="stop10459-7-3"
         offset="0.5218305"
         style="stop-color:#5179bb;stop-opacity:1;" />
      <stop
         id="stop10457-1-8"
         offset="0.75530851"
         style="stop-color:#609acc;stop-opacity:1;" />
      <stop
         style="stop-color:#5381be;stop-opacity:1;"
         offset="1"
         id="stop10449-5-8" />
    </linearGradient>
    <linearGradient
       y2="559.1557"
       x2="1967.171"
       y1="433.29068"
       x1="1877.3685"
       gradientTransform="matrix(1.052305,0,0,1.052305,-1635.1624,-238.3554)"
       gradientUnits="userSpaceOnUse"
       id="linearGradient10695"
       xlink:href="#linearGradient10445-2-7"
       inkscape:collect="always" />
    <linearGradient
       id="linearGradient10445-2-7-8">
      <stop
         style="stop-color:#3d70b2;stop-opacity:1;"
         offset="0"
         id="stop10447-7-5-6" />
      <stop
         id="stop10461-4-2-07"
         offset="0.26511589"
         style="stop-color:#60a5cb;stop-opacity:1;" />
      <stop
         id="stop10459-7-3-96"
         offset="0.5218305"
         style="stop-color:#5179bb;stop-opacity:1;" />
      <stop
         id="stop10457-1-8-5"
         offset="0.75530851"
         style="stop-color:#609acc;stop-opacity:1;" />
      <stop
         style="stop-color:#5381be;stop-opacity:1;"
         offset="1"
         id="stop10449-5-8-5" />
    </linearGradient>
    <linearGradient
       y2="559.1557"
       x2="1967.171"
       y1="433.29068"
       x1="1877.3685"
       gradientTransform="matrix(0.96107412,0,0,0.96107412,-1459.2874,-192.77308)"
       gradientUnits="userSpaceOnUse"
       id="linearGradient4003"
       xlink:href="#linearGradient10445-2-7-8"
       inkscape:collect="always" />
  </defs>
  <sodipodi:namedview
     id="base"
     pagecolor="#ffffff"
     bordercolor="#666666"
     borderopacity="1.0"
     inkscape:pageopacity="0.0"
     inkscape:pageshadow="2"
     inkscape:zoom="0.82074406"
     inkscape:cx="243.02772"
     inkscape:cy="74.89488"
     inkscape:document-units="px"
     inkscape:current-layer="layer1"
     showgrid="false"
     fit-margin-top="0"
     fit-margin-left="0"
     fit-margin-right="0"
     fit-margin-bottom="0"
     inkscape:window-width="1280"
     inkscape:window-height="780"
     inkscape:window-x="-8"
     inkscape:window-y="-8"
     inkscape:window-maximized="1" />
  <metadata
     id="metadata5789">
    <rdf:RDF>
      <cc:Work
         rdf:about="">
        <dc:format>image/svg+xml</dc:format>
        <dc:type
           rdf:resource="http://purl.org/dc/dcmitype/StillImage" />
        <dc:title />
      </cc:Work>
    </rdf:RDF>
  </metadata>
  <g
     inkscape:label="Layer 1"
     inkscape:groupmode="layer"
     id="layer1"
     transform="translate(-296.61838,-194.49084)">
    <path
       style="fill:url(#linearGradient4003);fill-opacity:1;stroke:none"
       d="m 393.99176,195.68643 c 0,0 -3.1856,9.77471 -11.9376,25.21875 -6.2883,11.09667 -13.9936,22.32568 -25.5,37.46875 -0.2122,0.2793 -0.4101,0.53051 -0.625,0.8125 -4.7564,6.216 -7.9879,13.58898 -9.1874,21.53126 -0.4875,3.22575 -0.4875,10.61802 0,13.84375 3.1817,21.06558 20.7524,37.81539 41.875,39.96874 4.2655,0.43477 5.7566,0.43968 9.8124,0.0312 8.7719,-0.88324 16.4021,-3.74407 23.4063,-8.75 17.8087,-12.72758 24.5171,-36.2968 15.9687,-56.375 -1.5899,-3.73434 -3.6112,-7.1619 -5.9687,-10.25 -0.1022,-0.13384 -0.209,-0.27368 -0.3125,-0.40625 -12.1694,-15.71687 -19.9068,-27.2042 -26.0938,-38.49995 -8.2418,-15.04746 -11.4374,-24.59375 -11.4374,-24.59375 z m -35.5938,5.21875 c -0.101,-0.10144 -1.5777,0.55864 -3.2812,1.4375 -2.0991,1.08274 -3.9006,2.38118 -5.5626,4.03125 -3.2056,3.18327 -4.25,5.89601 -4.25,11.1875 0,4.0137 0.5323,6.55174 2.0938,10.03125 1.8816,4.19205 4.2023,5.87987 8.625,6.28125 3.1454,0.28551 3.4332,0.62576 3.0625,3.625 -0.2538,2.05408 -0.3773,2.31405 -2.1563,3.875 -1.0489,0.92082 -3.2782,2.97386 -4.9374,4.5625 l -3.0313,2.875 -0.625,-2.3125 c -1.5335,-5.51608 -6.3869,-11.92131 -9.7813,-12.90625 -2.0936,-0.60753 -4.5525,-0.53315 -6.49997,0.15625 -1.6022,0.56729 -1.6446,0.57436 -2.4374,-0.34375 -1.3944,-1.61391 -1.5007,-5.19928 -0.3438,-9.875 0.533,-2.15426 0.8643,-3.98041 0.75,-4.09375 -0.51,-0.5056 -5.3548,5.20977 -6.6875,7.90625 -1.3084,2.6476 -1.3745,3.03594 -1.3437,6.09375 0.056,5.60239 2.2264,10.74417 6.375,15 3.0471,3.1263 6.44257,4.05271 10.18737,2.78125 2.6803,-0.91004 3.3009,-0.22737 3.75,3.96875 0.2537,2.36448 0.2677,2.46336 -1.6874,6.5 l -2.0313,4.125 -1.7813,-2.03125 c -0.999,-1.10014 -2.8781,-2.71305 -4.1562,-3.625 -5.08997,-3.63217 -8.58437,-3.71301 -13.99997,-0.28125 -0.9436,0.59803 -1.0491,0.5719 -1.75,-0.0625 -1.5695,-1.42023 -2.7371,-4.68417 -3.1562,-8.875 -0.2202,-2.19972 -0.5006,-3.96875 -0.6563,-3.96875 -0.1555,0 -0.7308,0.70774 -1.25,1.59375 -2.4579,4.19392 -3.3977,9.7417 -2.25,13.28125 0.8767,2.70355 2.3786,5.31865 4.4375,7.65625 1.9575,2.22243 6.6506,5.4968 8.6875,6.0625 2.9752,0.82634 5.8677,0.26679 8.6875,-1.6875 1.69177,-1.17231 2.23307,-1.02971 3.53117,0.875 0.7283,1.06828 0.7258,1.2961 0.2813,4.25 -0.2578,1.71411 -0.4885,5.30604 -0.5,8.03126 l -0.031,4.96875 -1.0937,-0.78125 c -1.80247,-1.2836 -5.58787,-2.8581 -8.43747,-3.5 -4.4328,-0.99849 -7.5818,0.0323 -10.4375,3.375 -2.7125,3.17497 -4.3055,3.02732 -5.9063,-0.46875 -1.18,-2.57723 -1.4595,-6.06262 -0.7812,-10.37501 0.289,-1.84163 0.4384,-3.42896 0.3438,-3.53125 -0.2367,-0.25575 -2.1384,2.07811 -3.25,3.96876 -2.2935,3.89901 -2.6622,10.335 -0.8126,14.375 1.8859,4.11959 6.539,7.8199 12.3126,9.75 5.8949,1.97082 9.8061,1.20933 13.0624,-2.5625 0.9952,-1.1525 2.0616,-2.125 2.375,-2.125 0.3138,0 1.52607,1.02954 2.68757,2.25 1.613,1.69536 2.3646,2.88069 3.2187,5.09374 0.6148,1.59314 1.2444,3.14574 1.375,3.46875 0.2115,0.52397 -0.027,0.52525 -2.2813,-0.0625 -2.8696,-0.74837 -9.54267,-0.8942 -11.74997,-0.28125 -2.136,0.59332 -4.3759,2.53216 -5.375,4.625 -0.4873,1.02124 -1.0969,2.27113 -1.3437,2.78125 -0.247,0.51011 -0.7605,0.96106 -1.125,1.03125 -1.4097,0.27151 -4.7487,-1.92388 -7.6563,-5.03125 -1.5842,-1.69351 -3.028,-3.09375 -3.1874,-3.09375 -0.4795,0 0.1086,4.31581 0.9374,6.8125 1.6504,4.97132 4.9659,8.25191 10.0626,9.96875 4.6603,1.57001 11.5089,1.63485 14.625,0.15625 1.88857,-0.89632 4.12037,-3.56856 4.68737,-5.59375 0.5174,-1.84793 1.4392,-2.57739 2.7188,-2.1875 0.4528,0.13793 2.2294,1.09803 3.9688,2.125 2.3037,1.36027 4.1439,2.85482 6.7187,5.53125 l 3.5313,3.6875 -1.2188,0 c -1.9369,-0.007 -6.3704,1.08114 -8.8125,2.1875 -3.9685,1.79773 -5.8357,4.4454 -6.0937,8.6875 -0.1794,2.9424 -0.7136,3.48316 -3.1876,3.125 -2.78947,-0.40383 -4.18667,-1.00198 -7.46867,-3.0625 -1.7898,-1.12365 -3.4321,-2.03125 -3.625,-2.03125 -0.7206,0 2.9117,6.1606 4.875,8.28125 2.124,2.29422 3.915,3.42341 6.74997,4.25 2.4987,0.72848 9.2178,0.41289 12.25,-0.5625 5.9222,-1.90517 8.564,-4.67294 8.9375,-9.46875 0.2049,-2.62934 0.222,-2.68833 1.5625,-3.34375 0.7858,-0.38416 2.3563,-0.67403 3.7187,-0.71875 2.1046,-0.069 2.7242,0.0658 5.6876,1.5 9.0634,4.3871 16.913,6.19182 27,6.15625 9.8394,-0.0348 18.3841,-2.04835 26.5937,-6.21875 2.559,-1.3 3.2682,-1.47317 5.1875,-1.4375 1.2277,0.0229 2.9002,0.22512 3.7188,0.5 1.4802,0.49724 1.4916,0.53453 1.75,2.875 0.3626,3.28684 0.9375,4.74265 2.4687,6.4375 2.4526,2.71479 6.9305,4.38929 12.7187,4.6875 3.2953,0.16976 4.3361,0.0715 6.5626,-0.59375 3.1418,-0.9387 5.1353,-2.30189 7.2187,-4.9375 1.6394,-2.07407 4.2465,-6.9721 3.9063,-7.3125 -0.1125,-0.11236 -1.0685,0.40269 -2.1563,1.125 -3.7026,2.45841 -7.5014,3.98748 -9.875,4 -1.4838,0.007 -2.2216,-1.17404 -2.25,-3.53125 -0.066,-5.55223 -4.639,-9.19581 -12.9687,-10.34375 l -3.0313,-0.40625 3.2187,-3.375 c 2.3197,-2.42362 4.1993,-3.94804 6.75,-5.5 5.2319,-3.18328 5.7923,-3.17844 6.875,0 1.7484,5.13097 6.4119,7.24298 14.1563,6.4375 6.2787,-0.65307 11.4078,-3.48137 13.7813,-7.59375 1.604,-2.77919 3.4189,-10.65625 2.4687,-10.65625 -0.1943,0 -1.0412,0.9102 -1.9063,2.03125 -2.0909,2.71038 -4.0325,4.42259 -6.3437,5.59375 -2.7483,1.39265 -3.3189,1.1771 -4.375,-1.59375 -1.08,-2.83372 -3.6036,-5.31665 -6.1563,-6.03125 -2.2726,-0.63633 -10.2532,-0.30904 -12.5,0.5 -0.9127,0.32873 -1.684,0.5421 -1.7187,0.5 -0.034,-0.0421 0.534,-1.58786 1.2813,-3.4375 1.4121,-3.4954 3.3768,-6.26851 5.25,-7.37499 1.307,-0.77221 1.8314,-0.56256 3.2812,1.4375 0.5931,0.81851 1.9231,1.94579 3,2.53125 1.649,0.89655 2.4128,1.07491 4.6562,1.06249 6.5444,-0.0361 14.8634,-4.82889 17.5313,-10.09374 2.2604,-4.46032 1.9381,-10.50991 -0.7813,-15.37501 -0.9165,-1.63995 -2.6231,-3.47054 -2.9374,-3.15625 -0.099,0.0987 -0.01,1.1286 0.1874,2.34375 0.9224,5.63187 0.1661,10.85659 -1.9062,13.06251 -1.3574,1.44488 -2.3563,1.15954 -4.875,-1.5 -2.5901,-2.73506 -4.3465,-3.62816 -7.3438,-3.65625 -3.1034,-0.029 -8.1932,1.66239 -11.5,3.84375 l -1.2187,0.8125 0.25,-2.5625 c 0.2149,-2.28235 -0.083,-7.22855 -0.75,-12.06251 -0.191,-1.3855 -0.1368,-1.89326 0.5937,-2.96875 1.1315,-1.66476 1.9299,-1.78395 3.5313,-0.5625 4.4661,3.40641 10.0016,2.3753 15.6875,-2.9375 5.935,-5.54549 7.8288,-11.6114 5.6562,-18.09375 -0.9266,-2.76611 -2.8858,-6.42008 -3.3124,-6.15625 -0.1589,0.0981 -0.3924,1.92756 -0.5,4.03125 -0.1693,3.30098 -0.3401,4.18542 -1.375,6.375 -1.5209,3.2164 -2.4516,3.72308 -4.2188,2.375 -5.11,-3.89743 -10.7371,-2.55005 -17.25,4.125 -1.2859,1.31791 -2.3438,2.18646 -2.3438,1.9375 0,-0.24897 -0.7665,-1.95937 -1.6874,-3.8125 -1.4585,-2.93538 -1.6563,-3.67673 -1.6563,-5.75 0,-2.30099 0.6365,-4.6181 1.4063,-5.09375 0.2056,-0.12693 1.4423,0.0239 2.7812,0.375 2.0653,0.54166 2.8041,0.59409 4.5938,0.21875 3.6552,-0.76671 6.9124,-3.96214 9.4374,-9.21875 1.845,-3.84004 2.3689,-6.24911 2.1563,-9.78125 -0.1894,-3.14864 -1.4008,-6.02191 -3.7187,-8.875 -1.5426,-1.89868 -3.9875,-4.01262 -4.2813,-3.71875 -0.1204,0.12035 0.1598,1.54726 0.5937,3.15625 0.8524,3.15788 1.0473,7.52331 0.4063,9.25 -0.6325,1.70393 -1.2533,1.99784 -3.2187,1.40625 -4.4794,-1.3481 -8.1697,-0.19173 -11.3126,3.65625 -2.1572,2.6416 -4.6689,7.55327 -5.0312,9.84375 -0.1375,0.86966 -0.3676,1.59375 -0.5,1.59375 -0.1325,0 -1.4704,-1.26739 -3,-2.8125 -1.5296,-1.5451 -3.6472,-3.47458 -4.6875,-4.28125 -1.0401,-0.80665 -1.883,-1.68029 -1.9063,-1.9375 -0.023,-0.25721 -0.2446,-1.22074 -0.4687,-2.15625 -0.2697,-1.12626 -0.302,-2.06222 -0.062,-2.6875 0.3253,-0.85576 0.6237,-0.9282 2.9375,-1.09375 2.8838,-0.20634 4.8495,-1.00553 6.4687,-2.625 3.6963,-3.70028 5.517,-13.17137 3.6876,-19.1875 -0.877,-2.88308 -2.1889,-4.83037 -4.5938,-6.84375 -1.7967,-1.5043 -7.3208,-4.55419 -7.6562,-4.21875 -0.095,0.0948 0.4338,1.09961 1.1562,2.1875 1.8411,2.773 2.9529,4.95963 3.5312,7.125 1.0692,4.00253 0.4537,5.03125 -2.8437,5.03125 -2.588,0 -5.5472,1.34339 -6.9063,3.125 -2.2971,3.01153 -4.0709,9.37217 -3.8437,13.78125 0.033,0.65529 0.052,1.25733 -0.031,2.65625 -0.082,1.39893 0.3857,5.64694 5.6563,12 4.95,8.24181 10.8842,13.0718 14.4063,21.34375 9.1142,21.40795 1.9882,46.58574 -17,60.15625 -7.4683,5.33747 -15.6477,8.40202 -25,9.34375 -4.3247,0.4355 -5.9206,0.43223 -10.4688,-0.0312 -22.5214,-2.29596 -41.2325,-20.1955 -44.625,-42.65624 -0.5195,-3.43937 -0.5195,-11.27937 0,-14.71876 1.9731,-13.06367 8.1753,-22.11234 18.3438,-34 5.4405,-6.95428 5.4126,-10.19417 5.3124,-11.59375 -0.1002,-1.39957 -0.1496,-2.28037 -0.1562,-3.3125 -0.035,-5.36641 -1.9445,-11.23236 -4.4062,-13.5625 -1.6353,-1.54767 -4.1587,-2.52177 -6.5313,-2.53125 -2.761,-0.0107 -3.0701,-0.4044 -2.7813,-3.5 0.2425,-2.59586 1.2332,-4.95205 3.6563,-8.53125 0.8095,-1.19593 1.4135,-2.27356 1.3125,-2.375 z m 34.125,43.65625 c 0.7019,-0.0222 1.3948,-0.0111 2.0938,0 16.7694,0.26702 32.4718,10.1194 39.4062,26.40625 7.8168,18.35985 1.7221,39.95543 -14.5625,51.59375 -6.4048,4.57751 -13.4165,7.19235 -21.4375,8 -3.7088,0.37348 -5.0679,0.36624 -8.9688,-0.0312 -19.3146,-1.96905 -35.3718,-17.29977 -38.2812,-36.56249 -0.4456,-2.94966 -0.4456,-9.67532 0,-12.625 2.2898,-15.1607 12.6734,-28.14236 27,-33.75001 4.8445,-1.89629 9.8366,-2.87603 14.75,-3.03125 z m 1.9062,8.25 c -4.2152,0 -7.9875,0.55789 -11.4687,1.59375 -11.7367,3.49258 -20.0625,12.30028 -20.0625,22.625 0,4.15995 0.7151,9.0362 3.2188,12.37501 3.2695,4.36082 6.6462,2.23101 10.8124,10.25 0.014,-0.062 1.0653,-3.40838 0.8126,-4.75 -0.2538,-1.34159 -0.9192,-2.00388 -1.7188,-2.875 -0.8003,-0.8711 -2.2328,-1.21447 -3.0625,-2.1875 -0.83,-0.97302 -1.4846,-2.14766 -1.75,-3.5 -0.2649,-1.35235 0.013,-2.83938 0.375,-4.375 0.3573,-1.53562 1.875,-4.71876 1.875,-4.71876 0,0 -0.3812,4.09521 -0.3125,5.75001 0.068,1.6548 0.049,2.92486 0.5625,4.125 0.5137,1.20014 1.3909,1.95322 2.2813,2.84375 0.8902,0.89053 2.341,1.20067 3.0624,2.46875 0.7211,1.26808 0.752,2.85924 0.6563,4.8125 -0.096,1.95326 -1.9375,6.53125 -1.9375,6.53125 0,0 9.7473,-0.38038 16.6875,3.49999 6.94,-3.88037 16.7187,-3.49999 16.7187,-3.49999 0,0 -1.8414,-4.57799 -1.9374,-6.53125 -0.096,-1.95326 -0.065,-3.54442 0.6562,-4.8125 0.7215,-1.26808 2.1722,-1.57822 3.0625,-2.46875 0.8904,-0.89053 1.7363,-1.64361 2.25,-2.84375 0.5137,-1.20014 0.494,-2.4702 0.5625,-4.125 0.068,-1.6548 -0.2812,-5.75001 -0.2812,-5.75001 0,0 1.5174,3.18314 1.875,4.71876 0.3614,1.53562 0.6087,3.02265 0.3437,4.375 -0.2654,1.35234 -0.9199,2.52698 -1.75,3.5 -0.8296,0.97303 -2.2307,1.3164 -3.0313,2.1875 -0.7994,0.87112 -1.4649,1.53341 -1.7187,2.875 -0.2528,1.34162 0.7678,4.68801 0.7813,4.75 4.1664,-8.01899 7.5432,-5.88918 10.8124,-10.25 2.5038,-3.33881 3.25,-8.21506 3.25,-12.37501 0,-10.32472 -8.3256,-19.13242 -20.0624,-22.625 -3.4812,-1.03586 -7.2847,-1.59375 -11.5,-1.59375 l -0.031,0 -0.031,0 z m -17.4062,23.4375 c 0,0 1.8724,1.5441 2.9688,2.21875 1.096,0.67466 1.9705,1.4349 2.8437,2.21876 0.8733,0.78385 1.0205,0.81332 1.9375,2.125 0.9176,1.31169 1.625,4.3125 1.625,4.3125 0,0 -1.8174,-0.1482 -2.75,-0.4375 -0.9332,-0.2893 -1.1123,-0.43917 -1.9375,-0.6875 -0.8256,-0.24832 -1.8412,-0.57315 -2.6875,-1.15625 -0.8461,-0.58309 -1.4337,-0.92207 -1.875,-2.625 -0.2434,-1.63715 -0.125,-5.96876 -0.125,-5.96876 z m 34.9062,0 c 0,0 0.1187,4.33161 -0.125,5.96876 -0.4411,1.70293 -1.0286,2.04191 -1.875,2.625 -0.846,0.5831 -1.8623,0.90793 -2.6874,1.15625 -0.8255,0.24833 -1.0355,0.3982 -1.9688,0.6875 -0.9325,0.2893 -2.75,0.4375 -2.75,0.4375 0,0 0.7387,-3.00081 1.6562,-4.3125 0.9169,-1.31168 1.0642,-1.34115 1.9376,-2.125 0.8731,-0.78386 1.7164,-1.5441 2.8124,-2.21876 1.0962,-0.67465 3,-2.21875 3,-2.21875 z m -51.4687,15.78126 c -2.7367,0.0679 -8.0313,2.1875 -8.0313,2.1875 0,0 6.2341,0.1194 8.4063,0.5 2.1729,0.38062 3.442,0.8334 4.625,1.375 1.183,0.54159 2.2756,0.80383 2.5,1.59375 0.2245,0.78992 -0.08,0.95399 -0.8437,1.75 -0.7645,0.79602 -2.7943,1.28117 -4.125,2.21875 -1.3317,0.93756 -2.9147,2.11771 -3.7813,3.40624 -0.8665,1.28853 -1.4375,3.96875 -1.4375,3.96875 0,0 2.19,-2.54932 3.1875,-3.40625 0.998,-0.85692 1.4915,-1.30794 2.6563,-1.81249 1.1643,-0.50455 3.3867,-0.98054 4.4374,-1.125 1.052,-0.14426 1.6305,-0.30204 1.75,-0.125 0.119,0.17703 0.094,0.5 0.094,0.5 0,0 0.1456,5.99481 0.3438,7.81249 0.1973,1.81768 0.3692,3.52239 0.875,5.0625 0.5055,1.54009 2.0312,4.125 2.0312,4.125 0,0 -0.6417,-4.88318 -0.8125,-6.875 -0.1715,-1.99182 -0.2873,-3.5456 -0.25,-5.09375 0.037,-1.54815 0.1481,-3.30213 0.4063,-4.18749 0.258,-0.88536 0.287,-0.9145 0.5937,-1.1875 0.3068,-0.273 0.6188,0.0116 1.0625,-0.375 0.4438,-0.3857 1.1273,-1.20303 1.1562,-2.125 0.029,-0.92198 -0.2452,-1.60495 -1.3124,-2.84375 -1.0673,-1.23879 -3.3215,-2.68071 -5.5938,-3.625 -2.2728,-0.9443 -5.2009,-1.78662 -7.9375,-1.71875 z m 66.9687,0 c -2.419,0.12942 -4.8859,0.8925 -6.875,1.71875 -2.2723,0.94429 -4.5267,2.38621 -5.5937,3.625 -1.0676,1.2388 -1.3421,1.92177 -1.3125,2.84375 0.029,0.92197 0.6817,1.7393 1.125,2.125 0.4443,0.38572 0.7558,0.102 1.0625,0.375 0.3068,0.273 0.3358,0.30214 0.5937,1.1875 0.2584,0.88536 0.4009,2.63934 0.4376,4.18749 0.037,1.54815 -0.1092,3.10193 -0.2813,5.09375 -0.1707,1.99182 -0.8125,6.875 -0.8125,6.875 0,0 1.5257,-2.58491 2.0312,-4.125 0.5058,-1.54011 0.709,-3.24481 0.9063,-5.0625 0.1982,-1.81768 0.3125,-7.81249 0.3125,-7.81249 0,0 -0.055,-0.32297 0.062,-0.5 0.1201,-0.17704 0.7291,-0.0192 1.7813,0.125 1.0507,0.14446 3.273,0.62045 4.4374,1.125 1.1648,0.50455 1.6894,0.95557 2.6876,1.81249 0.9972,0.85693 3.1874,3.40625 3.1874,3.40625 0,0 -0.6021,-2.68022 -1.4687,-3.96875 -0.8666,-1.28853 -2.4495,-2.46868 -3.7813,-3.40624 -1.3306,-0.93758 -3.3295,-1.42273 -4.0937,-2.21875 -0.7641,-0.79601 -1.0994,-0.96008 -0.875,-1.75 0.2245,-0.78992 1.317,-1.05216 2.5,-1.59375 1.183,-0.5416 2.483,-0.99438 4.6563,-1.375 2.1721,-0.3806 8.375,-0.5 8.375,-0.5 0,0 -5.3253,-2.1196 -8.0626,-2.1875 -0.3414,-0.008 -0.6542,-0.0185 -1,0 z m -32.2812,2.5 c 0.4251,0.0134 0.9419,0.13077 1.2812,0.40625 0.6794,0.55095 0.8123,1.54103 0.9063,2.53125 0.094,0.99021 0.127,2.78289 -0.5,3.25 -0.627,0.46712 -1.0551,-0.0405 -1.375,-0.1875 -0.3198,-0.14698 -0.3065,-0.39592 -0.5313,-0.5 -0.1978,-0.0919 -0.3942,-0.0911 -0.4374,-0.0937 -0.011,-3.9e-4 -0.031,0 -0.031,0 -0.041,0.002 -0.2346,-7.5e-4 -0.4375,0.0937 -0.2243,0.10408 -0.2115,0.35302 -0.5312,0.5 -0.3199,0.14698 -0.7482,0.65462 -1.375,0.1875 -0.6272,-0.46711 -0.5931,-2.25979 -0.5,-3.25 0.094,-0.99022 0.1957,-1.9803 0.875,-2.53125 0.3394,-0.27548 0.8252,-0.36069 1.2187,-0.375 0.3942,-0.0143 0.6875,0.0312 0.6875,0.0312 0,0 0.3255,-0.0759 0.75,-0.0625 z m -41.3125,0.375 c 0,0 3.1939,2.33846 3.7813,4.46875 0.5862,2.13029 0.4062,6.87499 0.4062,6.87499 0,0 0.96,-1.93033 1.8438,-2.84374 0.8837,-0.91341 1.8563,-1.72685 2.5312,-2.15625 0.6754,-0.42941 2.6295,-1.26697 3.4062,-1.5 0.7772,-0.23302 1.3692,-1.04084 1.5938,-1.53125 0.2254,-0.4904 -0.6875,-1.0625 -0.6875,-1.0625 0,0 -3.6463,-1.57641 -5.9063,-1.9375 -2.2594,-0.36105 -6.9687,-0.3125 -6.9687,-0.3125 z m 81.25,0 c 0,0 -4.7098,-0.0486 -6.9687,0.3125 -2.2604,0.36109 -5.9063,1.9375 -5.9063,1.9375 0,0 -0.913,0.5721 -0.6875,1.0625 0.2246,0.49041 0.848,1.29823 1.625,1.53125 0.7769,0.23303 2.6685,1.07059 3.3438,1.5 0.6749,0.4294 1.6788,1.24284 2.5624,2.15625 0.8838,0.91341 1.8438,2.84374 1.8438,2.84374 0,0 -0.149,-4.7447 0.4375,-6.87499 0.5872,-2.13029 3.75,-4.46875 3.75,-4.46875 z m -65.4687,8.09375 c -0.7727,0.0447 -1.3502,0.0506 -2.5,0.28125 -1.1503,0.23062 -2.266,0.62008 -4.3126,1.5 -2.0459,0.87992 -4.375,3.90624 -4.375,3.90624 0,0 5.2534,1.96902 7.0313,3.28125 1.7779,1.31224 6.1875,6.28125 6.1875,6.28125 0,0 -1.1408,-3.17924 -1.4375,-4.65625 -0.2964,-1.47699 -0.3293,-2.79212 -0.4063,-4.125 -0.076,-1.33288 -0.071,-2.94188 -0.094,-3.875 -0.022,-0.93311 -0.047,-1.55115 -0.094,-2.59374 z m 49.6874,0 c -0.047,1.04259 -0.04,1.66063 -0.062,2.59374 -0.023,0.93312 -0.018,2.54212 -0.094,3.875 -0.077,1.33288 -0.1098,2.64801 -0.4062,4.125 -0.297,1.47701 -1.4376,4.65625 -1.4376,4.65625 0,0 4.3475,-4.96901 6.125,-6.28125 1.7783,-1.31223 7.0938,-3.28125 7.0938,-3.28125 0,0 -2.3291,-3.02632 -4.375,-3.90624 -2.0466,-0.87992 -3.1938,-1.26938 -4.3438,-1.5 -1.1502,-0.23064 -1.7276,-0.23652 -2.5,-0.28125 z m -41.875,1.375 c 0,0 -0.4617,1.01592 -0.625,1.90624 -0.1633,0.89031 -0.5016,2.39145 -0.1562,3.40625 0.3455,1.0148 1.0271,1.62133 1.9375,2.3125 0.9112,0.69118 3.5313,1.59375 3.5313,1.59375 0,0 -1.4127,-2.64918 -1.375,-3.75 0.036,-1.10082 0.9062,-2.375 0.9062,-2.375 0,0 0.8339,1.38155 1.4688,2.25 0.6331,0.86844 2.3437,2.9375 2.3437,2.9375 0,0 -0.5262,-1.95206 -0.5625,-2.78125 -0.036,-0.8292 0.25,-2.125 0.25,-2.125 0,0 0.6718,1.44354 1.2188,2.34375 0.5465,0.9002 2.125,3.03125 2.125,3.03125 0,0 -0.4127,-2.02079 -0.375,-2.875 0.037,-0.85421 0.4687,-2.1875 0.4687,-2.1875 0,0 0.5847,1.56892 1.0625,2.53125 0.4786,0.96236 1.875,3.1875 1.875,3.1875 0,0 -0.3541,-2.07774 -0.2812,-2.96875 0.073,-0.89101 0.5937,-2.3125 0.5937,-2.3125 0,0 0.372,1.51004 0.75,2.4375 0.3769,0.92745 1.5937,3.0625 1.5937,3.0625 0,0 -0.3724,-2.36632 -0.3124,-3.40625 0.06,-1.03991 0.5624,-2.78125 0.5624,-2.78125 0,0 -3.843,-2.0201 -7.8124,-2.78125 -3.9693,-0.76114 -9.1876,-0.65624 -9.1876,-0.65624 z m 33.1876,0 c -1.6478,0.005 -5.3045,0.0855 -8.2813,0.65624 -3.9696,0.76115 -7.8437,2.78125 -7.8437,2.78125 0,0 0.472,1.74134 0.5312,2.78125 0.06,1.03993 -0.25,3.40625 -0.25,3.40625 0,0 1.1856,-2.13504 1.5625,-3.0625 0.378,-0.92746 0.75,-2.4375 0.75,-2.4375 0,0 0.4908,1.42149 0.5625,2.3125 0.073,0.89101 -0.2188,2.96875 -0.2188,2.96875 0,0 1.3968,-2.22515 1.875,-3.1875 0.478,-0.96233 1.0626,-2.53125 1.0626,-2.53125 0,0 0.4003,1.33329 0.4374,2.1875 0.037,0.85421 -0.3437,2.875 -0.3437,2.875 0,0 1.5163,-2.13105 2.0625,-3.03125 0.5473,-0.90021 1.25,-2.34375 1.25,-2.34375 0,0 0.3169,1.2958 0.2812,2.125 -0.036,0.82919 -0.5937,2.78125 -0.5937,2.78125 0,0 1.6785,-2.06906 2.3125,-2.9375 0.6343,-0.86845 1.5312,-2.25 1.5312,-2.25 0,0 0.8388,1.27418 0.875,2.375 0.037,1.10082 -1.3437,3.75 -1.3437,3.75 0,0 2.5892,-0.90257 3.5,-1.59375 0.9108,-0.69117 1.5926,-1.2977 1.9375,-2.3125 0.3459,-1.0148 0.01,-2.51594 -0.1562,-3.40625 -0.1633,-0.89032 -0.625,-1.90624 -0.625,-1.90624 0,0 -0.3261,-0.002 -0.875,0 z m -52,37.78124 c 0,0 9.4367,4.895 13.125,7.8125 3.688,2.91751 6.3241,5.94651 9,9.3125 2.6757,3.36598 4.7056,6.20607 7,10.78125 2.2938,4.57519 6.1874,16.75 6.1874,16.75 0,0 3.9249,-12.17481 6.2188,-16.75 2.2942,-4.57518 4.2928,-7.41527 6.9688,-10.78125 2.6757,-3.36599 5.3744,-6.39499 9.0624,-9.3125 3.6883,-2.9175 13.0938,-7.8125 13.0938,-7.8125 0,0 -12.7867,0.53549 -18.8438,2.90625 -5.9943,2.3463 -16.2876,10.91597 -16.5,11.09375 -0.2145,-0.17993 -10.4752,-8.74775 -16.4687,-11.09375 -6.0567,-2.37076 -18.8437,-2.90625 -18.8437,-2.90625 z"
       id="path3853"
       inkscape:connector-curvature="0" />
  </g>
</svg>
