<?xml version="1.0" encoding="UTF-8" standalone="no"?>
<!-- Created with Inkscape (http://www.inkscape.org/) by Falzar FZ (http://yugioh.wikia.com/wiki/User:Falzar_FZ) -->

<svg
   xmlns:dc="http://purl.org/dc/elements/1.1/"
   xmlns:cc="http://creativecommons.org/ns#"
   xmlns:rdf="http://www.w3.org/1999/02/22-rdf-syntax-ns#"
   xmlns:svg="http://www.w3.org/2000/svg"
   xmlns="http://www.w3.org/2000/svg"
   xmlns:xlink="http://www.w3.org/1999/xlink"
   xmlns:sodipodi="http://sodipodi.sourceforge.net/DTD/sodipodi-0.dtd"
   xmlns:inkscape="http://www.inkscape.org/namespaces/inkscape"
   width="194.72433"
   height="193.51617"
   id="svg5784"
   version="1.1"
   inkscape:version="0.48.1 "
   sodipodi:docname="Emblem-lswarm.svg">
  <defs
     id="defs5786">
    <linearGradient
       id="linearGradient5975-3-9">
      <stop
         style="stop-color:#3d516c;stop-opacity:1"
         offset="0"
         id="stop5977-1-8" />
      <stop
         id="stop5993-8-9"
         offset="0.2374623"
         style="stop-color:#3a4c60;stop-opacity:1" />
      <stop
         id="stop5991-2-5"
         offset="0.47075981"
         style="stop-color:#1d2f47;stop-opacity:1" />
      <stop
         id="stop5989-6-9"
         offset="0.6629442"
         style="stop-color:#2d4866;stop-opacity:1" />
      <stop
         style="stop-color:#264969;stop-opacity:1"
         offset="1"
         id="stop5979-7-6" />
    </linearGradient>
    <linearGradient
       y2="606.68628"
       x2="427.34314"
       y1="454.36395"
       x1="308.24265"
       gradientTransform="matrix(1.0358364,0,0,1.0358364,7.3950744,-261.30384)"
       gradientUnits="userSpaceOnUse"
       id="linearGradient7940"
       xlink:href="#linearGradient5975-3-9"
       inkscape:collect="always" />
  </defs>
  <sodipodi:namedview
     id="base"
     pagecolor="#ffffff"
     bordercolor="#666666"
     borderopacity="1.0"
     inkscape:pageopacity="0.0"
     inkscape:pageshadow="2"
     inkscape:zoom="1.5886719"
     inkscape:cx="93.64486"
     inkscape:cy="116.56014"
     inkscape:document-units="px"
     inkscape:current-layer="layer1"
     showgrid="false"
     fit-margin-top="0"
     fit-margin-left="0"
     fit-margin-right="0"
     fit-margin-bottom="0"
     inkscape:window-width="469"
     inkscape:window-height="455"
     inkscape:window-x="46"
     inkscape:window-y="46"
     inkscape:window-maximized="0" />
  <metadata
     id="metadata5789">
    <rdf:RDF>
      <cc:Work
         rdf:about="">
        <dc:format>image/svg+xml</dc:format>
        <dc:type
           rdf:resource="http://purl.org/dc/dcmitype/StillImage" />
        <dc:title />
      </cc:Work>
    </rdf:RDF>
  </metadata>
  <g
     inkscape:label="Layer 1"
     inkscape:groupmode="layer"
     id="layer1"
     transform="translate(-296.61838,-194.49084)">
    <path
       style="fill:url(#linearGradient7940);fill-opacity:1;stroke:#22344b;stroke-width:1;stroke-miterlimit:4;stroke-opacity:0.78235294000000000;stroke-dasharray:none"
       d="m 323.39537,196.24996 c -0.73871,0.007 -1.52954,0.0518 -2.38649,0.12692 -2.28527,0.20026 -4.80095,0.71196 -7.47012,1.53213 -10.67663,3.28092 -14.03982,13.86493 -15.32856,22.02201 -1.27131,9.70514 0.23051,23.19735 6.32631,31.67385 10.67558,14.84472 35.03463,17.96922 35.03463,17.96922 l 2.73248,7.11001 5.48608,13.0621 -16.35939,0.50837 c 0,0 4.53,15.2116 8.52211,22.00083 3.99219,6.78927 14.83432,20.39808 14.83432,20.39808 l -10.25195,18.95766 17.0513,-12.82908 c 0,0 8.62368,7.85915 12.63848,13.97998 10.17592,15.51392 9.5282,18.56499 14.18473,33.48842 2.20698,-20.392 -8.69687,-34.24969 -18.18808,-47.70847 -10.63025,-15.07393 -17.09891,-23.27861 -23.70244,-38.49439 l 5.57787,0.56487 c 0,0 4.27709,3.19083 10.36496,5.66966 6.50507,2.64868 9.56711,2.94425 9.56711,2.94425 0,0 3.49302,7.19468 5.33783,9.99783 1.84479,2.80316 3.59646,4.90948 4.86473,7.56897 1.26831,2.65946 1.83578,9.13639 1.83578,9.13639 0,0 1.13076,-6.9184 0.74135,-10.08254 -0.38939,-3.16412 -1.93015,-4.66142 -2.57007,-8.05614 -0.6399,-3.39468 -3.24671,-8.27158 -3.98218,-12.59609 -0.73544,-4.32452 -0.99666,-6.62182 -2.39351,-12.93503 -3.54332,-11.17087 -11.12046,-17.41141 -11.12046,-17.41141 0,0 13.32489,-12.43337 17.40439,-19.45194 4.07946,-7.01854 11.23801,-14.69578 11.20516,-36.51035 -9.52233,27.66609 -15.89718,31.85177 -20.96291,37.67535 -5.06576,5.82356 -13.69052,11.43109 -13.69052,11.43109 0,0 -5.91685,-1.0938 -11.30401,-3.73504 -5.38716,-2.64124 -12.90128,-4.61742 -18.56229,-8.4092 -6.08454,-4.07543 -13.16934,-10.37312 -15.87222,-16.04165 -2.70289,-5.66855 -1.81551,-9.27696 -1.05204,-13.64813 0.76349,-4.37118 1.92325,-8.28521 5.19662,-11.22637 3.27335,-2.94115 8.87344,-5.0393 12.91382,-4.75179 4.04039,0.28754 6.84329,3.01935 5.28133,9.8566 6.11995,-6.38017 4.56124,-11.35331 1.04495,-16.88894 -5.15136,-5.18728 -7.77831,-6.94285 -12.9491,-6.8982 z m 140.63292,0 c -4.81761,0.0831 -7.44512,1.89618 -12.41251,6.89821 -3.51627,5.53562 -5.07501,10.50876 1.04498,16.88893 -1.56197,-6.83725 1.24094,-9.56906 5.2813,-9.8566 4.04041,-0.28754 9.64753,1.81063 12.92087,4.7518 3.27338,2.94115 4.43314,6.85515 5.1966,11.22632 0.76352,4.37118 1.64381,7.97963 -1.05904,13.64815 -2.70288,5.66855 -9.78066,11.96621 -15.86519,16.04168 -5.66097,3.79178 -13.17515,5.76796 -18.5623,8.40915 -5.38717,2.64128 -11.30401,3.73504 -11.30401,3.73504 0,0 -8.62473,-5.60753 -13.69049,-11.43107 -5.06579,-5.82356 -11.44767,-10.00925 -20.96999,-37.67536 -0.0313,21.81457 7.13274,29.4918 11.21224,36.51034 4.0795,7.01857 17.40435,19.45198 17.40435,19.45198 0,0 -7.58419,6.24054 -11.12747,17.41142 -1.39686,6.3132 -1.65102,8.6105 -2.3865,12.93501 -0.73546,4.32453 -3.34228,9.20142 -3.98217,12.59611 -0.63992,3.39468 -2.18774,4.89201 -2.57713,8.05614 -0.38938,3.1641 0.74841,10.08253 0.74841,10.08253 0,0 0.56747,-6.47693 1.83578,-9.13643 1.26831,-2.65949 3.01994,-4.7658 4.86475,-7.56896 1.84479,-2.80316 5.33074,-9.9978 5.33074,-9.9978 0,0 3.06914,-0.29553 9.57417,-2.94425 6.08787,-2.47883 10.35791,-5.66966 10.35791,-5.66966 l 5.58493,-0.56486 c -6.60353,15.21577 -13.07929,23.42046 -23.7095,38.49437 -9.49121,13.45876 -20.38799,27.31649 -18.18103,47.70845 4.65653,-14.92344 4.00878,-17.9745 14.18477,-33.48842 4.01476,-6.12083 12.63844,-13.97997 12.63844,-13.97997 l 17.04429,12.82911 -10.24494,-18.9577 c 0,0 10.84213,-13.60882 14.83433,-20.39808 3.99216,-6.7892 8.51506,-22.00081 8.51506,-22.00081 l -16.3594,-0.50835 5.49315,-13.06211 2.72541,-7.11001 c 0,0 24.36611,-3.1245 35.04169,-17.96921 6.09591,-8.47651 7.59056,-21.96871 6.31926,-31.67386 -1.28875,-8.15711 -4.64488,-18.74112 -15.32148,-22.022 -2.66915,-0.82021 -5.18488,-1.33174 -7.47015,-1.53214 -1.0712,-0.0939 -2.03795,-0.14256 -2.93013,-0.12691 z M 349.24416,273.4505 c 0,0 11.73799,3.66916 18.05395,14.1 3.19296,4.17104 3.14904,12.69498 3.14904,12.69498 0,0 -7.30652,-0.94823 -12.46902,-4.68824 -5.87789,-6.55395 -8.73397,-22.10674 -8.73397,-22.10674 z m 89.47898,0 c 0,0 -2.86314,15.55279 -8.74103,22.10674 -5.16245,3.74001 -12.46196,4.68824 -12.46196,4.68824 0,0 -0.0511,-8.52394 3.14198,-12.69498 6.31595,-10.43084 18.06101,-14.1 18.06101,-14.1 z"
       id="path5822"
       inkscape:connector-curvature="0" />
  </g>
</svg>
