<?xml version="1.0" encoding="UTF-8" standalone="no"?>
<!-- Created with Inkscape (http://www.inkscape.org/) by Falzar FZ (http://yugioh.wikia.com/wiki/User:Falzar_FZ) -->

<svg
   xmlns:dc="http://purl.org/dc/elements/1.1/"
   xmlns:cc="http://creativecommons.org/ns#"
   xmlns:rdf="http://www.w3.org/1999/02/22-rdf-syntax-ns#"
   xmlns:svg="http://www.w3.org/2000/svg"
   xmlns="http://www.w3.org/2000/svg"
   xmlns:xlink="http://www.w3.org/1999/xlink"
   xmlns:sodipodi="http://sodipodi.sourceforge.net/DTD/sodipodi-0.dtd"
   xmlns:inkscape="http://www.inkscape.org/namespaces/inkscape"
   width="194.72433"
   height="193.51617"
   id="svg5784"
   version="1.1"
   inkscape:version="0.48.1 "
   sodipodi:docname="Crest-Koa'ki Meiru.svg">
  <defs
     id="defs5786">
    <linearGradient
       inkscape:collect="always"
       xlink:href="#linearGradient4828-7"
       id="linearGradient5015-1"
       gradientUnits="userSpaceOnUse"
       x1="1316.9121"
       y1="-377.75323"
       x2="1502.174"
       y2="-51.069885" />
    <linearGradient
       id="linearGradient4828-7">
      <stop
         style="stop-color:#1b0707;stop-opacity:1;"
         offset="0"
         id="stop4830-9" />
      <stop
         id="stop4842-0"
         offset="0.2753149"
         style="stop-color:#3a1a21;stop-opacity:1;" />
      <stop
         id="stop4838-9"
         offset="0.5413419"
         style="stop-color:#1f0809;stop-opacity:1" />
      <stop
         id="stop4836-9"
         offset="0.76895529"
         style="stop-color:#35171d;stop-opacity:1;" />
      <stop
         style="stop-color:#200709;stop-opacity:1"
         offset="1"
         id="stop4832-5" />
    </linearGradient>
    <linearGradient
       inkscape:collect="always"
       xlink:href="#linearGradient4745-3"
       id="linearGradient5017-1"
       gradientUnits="userSpaceOnUse"
       x1="1292.5365"
       y1="-189.22017"
       x2="1375.6652"
       y2="-347.36624" />
    <linearGradient
       id="linearGradient4745-3">
      <stop
         style="stop-color:#ff740d;stop-opacity:1"
         offset="0"
         id="stop4747-3" />
      <stop
         id="stop4757-7"
         offset="0.17033088"
         style="stop-color:#ffff7f;stop-opacity:1" />
      <stop
         id="stop4755-4"
         offset="0.34795558"
         style="stop-color:#ffffc6;stop-opacity:1" />
      <stop
         id="stop4753-6"
         offset="0.64968133"
         style="stop-color:#ffff62;stop-opacity:1" />
      <stop
         style="stop-color:#fe742f;stop-opacity:1"
         offset="1"
         id="stop4749-8" />
    </linearGradient>
    <linearGradient
       inkscape:collect="always"
       xlink:href="#linearGradient4745-3"
       id="linearGradient5019-0"
       gradientUnits="userSpaceOnUse"
       x1="1439.5493"
       y1="-333.60773"
       x2="1534.9172"
       y2="-182.6003" />
    <linearGradient
       inkscape:collect="always"
       xlink:href="#linearGradient4745-3"
       id="linearGradient5021-5"
       gradientUnits="userSpaceOnUse"
       x1="1491.1172"
       y1="-134.07031"
       x2="1312.5775"
       y2="-126.86243" />
    <radialGradient
       inkscape:collect="always"
       xlink:href="#linearGradient4735-6"
       id="radialGradient5023-3"
       gradientUnits="userSpaceOnUse"
       gradientTransform="matrix(0,-1.0139834,1,0,1627.572,1209.2379)"
       cx="1408.5568"
       cy="-219.01527"
       fx="1408.5568"
       fy="-219.01527"
       r="25.455851" />
    <linearGradient
       id="linearGradient4735-6">
      <stop
         style="stop-color:#ffffba;stop-opacity:1"
         offset="0"
         id="stop4737-2" />
      <stop
         id="stop4743-5"
         offset="0.79540741"
         style="stop-color:#ffff71;stop-opacity:1" />
      <stop
         style="stop-color:#ffff3b;stop-opacity:1"
         offset="1"
         id="stop4739-2" />
    </linearGradient>
    <radialGradient
       inkscape:collect="always"
       xlink:href="#linearGradient4783-6"
       id="radialGradient5025-3"
       gradientUnits="userSpaceOnUse"
       gradientTransform="matrix(0.99590789,0,1.3307766e-6,0.86601486,5.7619768,-29.337517)"
       cx="1408"
       cy="-219.15038"
       fx="1408"
       fy="-219.15038"
       r="226.9375" />
    <linearGradient
       id="linearGradient4783-6">
      <stop
         style="stop-color:#ffc600;stop-opacity:1"
         offset="0"
         id="stop4785-8" />
      <stop
         id="stop4791-6"
         offset="0.87387592"
         style="stop-color:#ffae00;stop-opacity:1" />
      <stop
         style="stop-color:#ffff05;stop-opacity:1"
         offset="1"
         id="stop4787-7" />
    </linearGradient>
    <linearGradient
       inkscape:collect="always"
       xlink:href="#linearGradient4745-3"
       id="linearGradient3197"
       gradientUnits="userSpaceOnUse"
       x1="1292.5365"
       y1="-189.22017"
       x2="1375.6652"
       y2="-347.36624" />
    <linearGradient
       inkscape:collect="always"
       xlink:href="#linearGradient4745-3"
       id="linearGradient3199"
       gradientUnits="userSpaceOnUse"
       x1="1439.5493"
       y1="-333.60773"
       x2="1534.9172"
       y2="-182.6003" />
    <linearGradient
       inkscape:collect="always"
       xlink:href="#linearGradient4745-3"
       id="linearGradient3201"
       gradientUnits="userSpaceOnUse"
       x1="1491.1172"
       y1="-134.07031"
       x2="1312.5775"
       y2="-126.86243" />
    <radialGradient
       inkscape:collect="always"
       xlink:href="#linearGradient4735-6"
       id="radialGradient3203"
       gradientUnits="userSpaceOnUse"
       gradientTransform="matrix(0,-1.0139834,1,0,1627.572,1209.2379)"
       cx="1408.5568"
       cy="-219.01527"
       fx="1408.5568"
       fy="-219.01527"
       r="25.455851" />
  </defs>
  <sodipodi:namedview
     id="base"
     pagecolor="#ffffff"
     bordercolor="#666666"
     borderopacity="1.0"
     inkscape:pageopacity="0.0"
     inkscape:pageshadow="2"
     inkscape:zoom="2.0457217"
     inkscape:cx="166.95504"
     inkscape:cy="101.70752"
     inkscape:document-units="px"
     inkscape:current-layer="g4876"
     showgrid="false"
     fit-margin-top="0"
     fit-margin-left="0"
     fit-margin-right="0"
     fit-margin-bottom="0"
     inkscape:window-width="1280"
     inkscape:window-height="780"
     inkscape:window-x="-8"
     inkscape:window-y="-8"
     inkscape:window-maximized="1" />
  <metadata
     id="metadata5789">
    <rdf:RDF>
      <cc:Work
         rdf:about="">
        <dc:format>image/svg+xml</dc:format>
        <dc:type
           rdf:resource="http://purl.org/dc/dcmitype/StillImage" />
        <dc:title></dc:title>
      </cc:Work>
    </rdf:RDF>
  </metadata>
  <g
     inkscape:label="Layer 1"
     inkscape:groupmode="layer"
     id="layer1"
     transform="translate(-296.61838,-194.49084)">
    <g
       id="g4844"
       transform="matrix(0.47153604,0,0,0.47153604,-216.53489,400.15378)"
       style="stroke:none">
      <g
         id="g4876"
         transform="matrix(0.90377066,0,0,0.90377066,22.480838,-33.067121)">
        <g
           id="g3191"
           transform="matrix(1.4033208,0,0,1.4033208,-566.91233,88.206461)">
          <path
             sodipodi:nodetypes="zczczzzczcssssssczzzzzcczzzczzzzczczzczzzzzczzzczzz"
             inkscape:connector-curvature="0"
             id="path4574"
             d="m 1297.1545,-176.94496 c -2.5014,-3.99458 -4.6353,-12.21971 -4.6353,-12.21971 0,0 -16.0162,-5.02485 -23.7543,-6.27291 -7.7381,-1.24806 -22.4175,-1.38354 -22.4175,-1.38354 0,0 5.1469,-4.65089 8.6024,-6.94292 3.4556,-2.29203 7.4988,-5.14236 12.1835,-6.53404 4.6847,-1.39168 10.7485,-1.40867 15.4408,-1.31982 4.6923,0.0888 12.5658,1.55518 12.5658,1.55518 0,0 1.3004,-7.96947 2.621,-11.87648 1.3207,-3.90702 5.2994,-11.41248 5.2994,-11.41248 0,0 -6.8865,-7.38408 -9.2767,-11.77082 -4.5392,-8.33083 -7.7759,-17.54795 -9.2321,-26.92275 -1.3501,-8.69142 -1.0093,-17.73038 0.5843,-26.38047 1.8072,-9.81008 4.6538,-19.79562 10.0421,-28.19023 5.6004,-8.72497 13.1811,-16.74269 22.2922,-21.69023 10.1873,-5.53199 22.3222,-7.79235 33.9143,-7.69913 12.8931,0.10369 24.3281,8.66878 24.3281,8.66878 0,0 -13.3515,-2.79997 -22.6721,-1.88172 -9.3206,0.91826 -13.7298,2.08249 -19.501,5.24223 -5.7713,3.15974 -9.9039,6.96106 -14.251,12.99222 -4.3471,6.03116 -8.6596,15.57148 -10.2679,23.14777 -1.6083,7.57629 -1.6333,14.34328 -0.018,21.14776 1.6154,6.80449 9.3709,18.58501 9.3709,18.58501 l 3.696,-4.2583 c 0,0 -5.8533,-9.20124 -7.049,-14.46527 -1.1958,-5.26403 -0.817,-11.33945 0.1093,-16.29705 0.9263,-4.95759 2.5115,-9.98791 4.9544,-13.05441 2.4429,-3.06649 7.9545,-5.30441 7.9545,-5.30441 0,0 -2.7762,7.69178 -2.9321,12.27887 -0.1559,4.58709 0.7416,10.66275 2.4712,14.70818 1.7296,4.04543 4.1738,6.65173 6.8726,9.20008 2.6987,2.54834 5.7021,4.88182 8.9976,5.95007 3.2954,1.06824 9.9894,0.42646 9.9894,0.42646 0,0 -4.3838,5.83482 -7.0552,9.34739 -2.6713,3.51258 -8.9817,11.7212 -8.9817,11.7212 0,0 5.9182,0.45105 9.5582,-0.90685 3.64,-1.3579 7.7774,-4.79033 11.1614,-7.96014 3.384,-3.16981 8.4263,-8.92924 8.4263,-8.92924 0,0 3.0229,7.71418 3.32,14.3921 0.2971,6.67792 -2.9087,16.32703 -4.729,21.3536 -1.8203,5.02656 -2.9658,8.22516 -5.7291,11.6036 -2.7633,3.37843 -6.2506,6.42746 -10.479,8.10359 -4.2284,1.67614 -9.6474,1.9055 -13.979,1.3536 -4.3316,-0.55189 -11.4184,-4.16786 -11.4184,-4.16786 0,0 -6.0101,11.71757 -7.4828,17.57116 -1.4726,5.85359 -2.4267,10.84838 -1.5444,17.0481 0.8823,6.19972 4.2792,13.77043 7.4556,19.04809 3.1765,5.27766 10.7641,12.51041 10.7641,12.51041 0,0 -8.353,1.03763 -12.7572,-0.42717 -4.4042,-1.4648 -8.5513,-5.32794 -12.375,-8.625 -3.8238,-3.29706 -7.9364,-7.06792 -10.4377,-11.0625 z"
             style="fill:url(#linearGradient3197);fill-opacity:1;stroke:none" />
          <path
             inkscape:transform-center-y="-13"
             inkscape:transform-center-x="5"
             style="fill:url(#linearGradient3199);fill-opacity:1;stroke:none"
             d="m 1426.6139,-335.72611 c 4.7101,-0.16899 12.9002,2.09565 12.9002,2.09565 0,0 12.3597,-11.35801 17.3097,-17.43546 4.9499,-6.07736 12.4069,-18.72235 12.4069,-18.72235 0,0 1.4543,6.78279 1.7115,10.92144 0.2572,4.13857 0.704,9.06533 -0.4331,13.81815 -1.1371,4.75291 -4.1543,10.0129 -6.5774,14.03204 -2.4231,4.01922 -7.6297,10.10471 -7.6297,10.10471 0,0 6.2516,5.11091 8.9748,8.20809 2.7233,3.09727 7.2338,10.29566 7.2338,10.29566 0,0 9.8381,-2.27184 14.8322,-2.14845 9.4843,0.23436 19.0849,2.03985 27.9318,5.46614 8.202,3.17658 15.8596,7.9912 22.5541,13.69625 7.5921,6.47013 14.8166,13.92813 19.3924,22.79183 4.7558,9.21258 7.909,19.78652 7.6382,30.15073 -0.3029,11.58846 -4.4128,23.22786 -10.2896,33.22021 -6.5363,11.11391 -19.6714,16.73436 -19.6714,16.73436 0,0 9.1006,-10.16275 12.9657,-18.69375 3.865,-8.53101 5.0613,-12.93151 5.2106,-19.50948 0.1492,-6.57796 -1.0766,-12.05747 -4.1261,-18.83783 -3.0496,-6.78028 -9.1555,-15.28518 -14.9126,-20.46615 -5.7571,-5.18097 -11.605,-8.58612 -18.3055,-10.58947 -6.7006,-2.00327 -20.7806,-1.17707 -20.7806,-1.17707 l 1.8398,5.33007 c 0,0 10.8951,-0.46849 16.0518,1.12794 5.1567,1.59642 10.2288,4.96218 14.059,8.24317 3.8303,3.281 7.3941,7.16898 8.8283,10.81785 1.4341,3.64894 0.6165,9.541 0.6165,9.541 0,0 -5.2732,-6.25015 -9.1678,-8.67871 -3.8946,-2.42855 -9.605,-4.68913 -13.9732,-5.21397 -4.3683,-0.52483 -7.8476,0.28884 -11.4038,1.35181 -3.5564,1.06306 -7.0789,2.49734 -9.6517,4.81712 -2.5729,2.31986 -5.3641,8.43784 -5.3641,8.43784 0,0 -2.8612,-6.71389 -4.5675,-10.78368 -1.7063,-4.0697 -5.66,-13.63898 -5.66,-13.63898 0,0 -3.3497,4.89979 -3.9937,8.73107 -0.644,3.83128 0.2598,9.13059 1.313,13.64613 1.0531,4.51553 3.5198,11.76201 3.5198,11.76201 0,0 -8.1921,-1.23918 -14.1239,-4.32085 -5.9318,-3.08166 -12.6853,-10.68252 -16.1283,-14.77223 -3.443,-4.08971 -5.6403,-6.68104 -7.1845,-10.76335 -1.5441,-4.0823 -2.4411,-8.62682 -1.7784,-13.12688 0.6626,-4.49996 3.1735,-9.30764 5.8173,-12.78296 2.6437,-3.47533 9.3186,-7.8047 9.3186,-7.8047 0,0 -7.1426,-11.06368 -11.4756,-15.26587 -4.3331,-4.20211 -8.1817,-7.52578 -13.9919,-9.86154 -5.8103,-2.33568 -14.0652,-3.17932 -20.224,-3.06731 -6.1588,0.1121 -16.2163,3.06678 -16.2163,3.06678 0,0 3.2779,-7.75272 6.7485,-10.83447 3.4707,-3.08175 8.8898,-4.74168 13.657,-6.40457 4.7672,-1.66289 10.0892,-3.33916 14.7992,-3.50806 z"
             id="path4613"
             inkscape:connector-curvature="0"
             sodipodi:nodetypes="zczczzzczcssssssczzzzzcczzzczzzzczczzczzzzzczzzczzz" />
          <path
             sodipodi:nodetypes="zczczzzczcssssssczzzzzcczzzczzzzczczzczzzzzczzzczzz"
             inkscape:connector-curvature="0"
             id="path4615"
             d="m 1499.4024,-144.2162 c -2.2087,4.16356 -8.2649,10.12407 -8.2649,10.12407 0,0 3.6564,16.38282 6.4447,23.70837 2.7882,7.32542 10.0105,20.10587 10.0105,20.10587 0,0 -6.6012,-2.13194 -10.314,-3.97852 -3.7127,-1.84654 -8.2028,-3.92298 -11.7503,-7.28415 -3.5476,-3.36121 -6.5943,-8.60418 -8.8634,-12.71222 -2.2692,-4.10807 -4.9361,-11.65987 -4.9361,-11.65987 0,0 -7.5519,2.85859 -11.5958,3.66836 -4.0439,0.80982 -12.5332,1.11683 -12.5332,1.11683 0,0 -2.9516,9.65596 -5.5555,13.91929 -4.9451,8.09646 -11.309,15.50808 -18.6997,21.45657 -6.852,5.51485 -14.8504,9.73922 -23.1383,12.6843 -9.3994,3.33989 -19.4704,5.86749 -29.4345,5.3984 -10.3564,-0.48765 -21.0903,-3.04387 -29.9305,-8.46049 -9.8845,-6.05655 -17.9096,-15.43553 -23.6248,-25.52116 -6.3568,-11.21756 -4.6567,-25.40311 -4.6567,-25.40311 0,0 4.2509,12.96272 9.7064,20.5755 5.4556,7.61269 8.6684,10.84897 14.2905,14.26725 5.622,3.41819 10.9803,5.09637 18.377,5.84561 7.3967,0.74911 17.8152,-0.28631 25.1806,-2.68162 7.3655,-2.39531 13.2383,-5.75716 18.3235,-10.55829 5.0852,-4.80126 11.4097,-17.40799 11.4097,-17.40799 l -5.5359,-1.07173 c 0,0 -5.0418,9.66968 -9.0027,13.3373 -3.9609,3.66762 -9.4118,6.37731 -14.1683,8.05387 -4.7566,1.67663 -9.9055,2.81899 -13.7827,2.2366 -3.8771,-0.5825 -8.5711,-4.23659 -8.5711,-4.23659 0,0 8.0495,-1.44165 12.1,-3.60019 4.0505,-2.15855 8.8634,-5.97361 11.5021,-9.49416 2.6386,-3.52065 3.6736,-6.94065 4.5312,-10.55189 0.8575,-3.61146 1.3766,-7.37918 0.6541,-10.76718 -0.7226,-3.38812 -4.6254,-8.86436 -4.6254,-8.86436 0,0 7.245,0.87907 11.6227,1.43626 4.3776,0.55716 14.6417,1.91779 14.6417,1.91779 0,0 -2.5685,-5.35082 -5.5645,-7.82418 -2.9959,-2.47336 -8.0372,-4.3403 -12.4744,-5.68597 -4.4371,-1.34576 -11.9461,-2.83277 -11.9461,-2.83277 0,0 5.1693,-6.47498 10.804,-10.07123 5.6347,-3.59626 15.5939,-5.64454 20.8572,-6.58141 5.2633,-0.93687 8.6061,-1.54412 12.9136,-0.84028 4.3074,0.70392 8.6916,2.19935 12.2574,5.0233 3.5658,2.82381 6.4739,7.40215 8.1618,11.42941 1.6878,4.02718 2.0997,11.97249 2.0997,11.97249 0,0 13.1527,-0.65383 18.9585,-2.30522 5.8056,-1.65152 10.6083,-3.32267 15.5362,-7.18657 4.928,-3.86403 9.786,-10.59116 12.7684,-15.98085 2.9823,-5.38972 5.4523,-15.57711 5.4523,-15.57711 0,0 5.0751,6.7151 6.0086,11.2616 0.9336,4.54659 -0.3385,10.06964 -1.2819,15.0296 -0.9435,4.95996 -2.1529,10.40708 -4.3616,14.57051 z"
             style="fill:url(#linearGradient3201);fill-opacity:1;stroke:none"
             inkscape:transform-center-x="-1.6939778"
             inkscape:transform-center-y="5.2075461" />
          <path
             style="color:#000000;fill:url(#radialGradient3203);fill-opacity:1;fill-rule:evenodd;stroke:none;stroke-width:2.12072873;marker:none;visibility:visible;display:inline;overflow:visible;enable-background:accumulate"
             d="m 1433.1766,-218.96099 c 0,14.05887 -11.3969,25.45584 -25.4558,25.45584 -14.0589,0 -25.4559,-11.39697 -25.4559,-25.45584 0,-14.05888 11.397,-25.45585 25.4559,-25.45585 14.0589,0 25.4558,11.39697 25.4558,25.45585 z"
             id="path4576"
             inkscape:connector-curvature="0" />
        </g>
      </g>
    </g>
  </g>
</svg>
