<?xml version="1.0" encoding="UTF-8" standalone="no"?>
<!-- Created with Inkscape (http://www.inkscape.org/) by Falzar FZ (http://yugioh.wikia.com/wiki/User:Falzar_FZ) -->

<svg
   xmlns:dc="http://purl.org/dc/elements/1.1/"
   xmlns:cc="http://creativecommons.org/ns#"
   xmlns:rdf="http://www.w3.org/1999/02/22-rdf-syntax-ns#"
   xmlns:svg="http://www.w3.org/2000/svg"
   xmlns="http://www.w3.org/2000/svg"
   xmlns:xlink="http://www.w3.org/1999/xlink"
   xmlns:sodipodi="http://sodipodi.sourceforge.net/DTD/sodipodi-0.dtd"
   xmlns:inkscape="http://www.inkscape.org/namespaces/inkscape"
   width="194.72433"
   height="193.51617"
   id="svg5784"
   version="1.1"
   inkscape:version="0.48.1 "
   sodipodi:docname="Emblem-Laval.svg">
  <defs
     id="defs5786">
    <linearGradient
       id="linearGradient5589-4-0">
      <stop
         style="stop-color:#ffea6f;stop-opacity:1;"
         offset="0"
         id="stop5591-4-9" />
      <stop
         id="stop5603-0-5"
         offset="0.18012173"
         style="stop-color:#ffe11a;stop-opacity:1;" />
      <stop
         id="stop5601-7-5"
         offset="0.35975441"
         style="stop-color:#fec402;stop-opacity:1;" />
      <stop
         id="stop5599-3-1"
         offset="0.61547101"
         style="stop-color:#fc4705;stop-opacity:1" />
      <stop
         id="stop5597-0-9"
         offset="0.8021118"
         style="stop-color:#fb1c05;stop-opacity:1;" />
      <stop
         style="stop-color:#ef0b03;stop-opacity:1;"
         offset="1"
         id="stop5593-3-6" />
    </linearGradient>
    <radialGradient
       r="84.387489"
       fy="116.80486"
       fx="91.704277"
       cy="116.80486"
       cx="91.704277"
       gradientTransform="matrix(1.2332755,-0.04338161,0.0458516,1.3034255,261.12377,158.80173)"
       gradientUnits="userSpaceOnUse"
       id="radialGradient7060"
       xlink:href="#linearGradient5589-4-0"
       inkscape:collect="always" />
  </defs>
  <sodipodi:namedview
     id="base"
     pagecolor="#ffffff"
     bordercolor="#666666"
     borderopacity="1.0"
     inkscape:pageopacity="0.0"
     inkscape:pageshadow="2"
     inkscape:zoom="1.5886719"
     inkscape:cx="91.694899"
     inkscape:cy="97.486665"
     inkscape:document-units="px"
     inkscape:current-layer="layer1"
     showgrid="false"
     fit-margin-top="0"
     fit-margin-left="0"
     fit-margin-right="0"
     fit-margin-bottom="0"
     inkscape:window-width="469"
     inkscape:window-height="455"
     inkscape:window-x="138"
     inkscape:window-y="138"
     inkscape:window-maximized="0" />
  <metadata
     id="metadata5789">
    <rdf:RDF>
      <cc:Work
         rdf:about="">
        <dc:format>image/svg+xml</dc:format>
        <dc:type
           rdf:resource="http://purl.org/dc/dcmitype/StillImage" />
        <dc:title />
      </cc:Work>
    </rdf:RDF>
  </metadata>
  <g
     inkscape:label="Layer 1"
     inkscape:groupmode="layer"
     id="layer1"
     transform="translate(-296.61838,-194.49084)">
    <path
       style="fill:url(#radialGradient7060);fill-opacity:1;stroke:#fc9005;stroke-width:1;stroke-miterlimit:4;stroke-opacity:0.63529412;stroke-dasharray:none"
       d="m 371.67901,382.90569 c -27.40669,-9.04607 -39.031,-16.06088 -54.62735,-38.06641 -10.16111,-15.65943 -8.2468,-30.42795 -4.17151,-45.60362 5.03976,-13.2425 8.42778,-16.16259 18.9347,-22.69922 10.71004,-5.91721 23.42925,-10.65252 40.5173,-16.96885 13.91507,-10.07642 19.0993,-14.95843 22.25568,-27.8477 0.45729,-7.72933 0.68475,-24.96986 -9.58048,-34.99356 22.04722,5.02699 30.69176,19.4727 38.50976,38.21653 5.03163,19.28851 3.63663,27.20845 -1.92095,36.11543 -7.39172,11.02823 -14.49363,14.47073 -26.77247,21.62214 -15.80471,11.75276 -21.24006,18.96709 -23.25021,40.15906 0.32068,16.89907 9.50363,33.0704 30.72411,38.2195 4.81507,1.16836 9.1832,3.42257 21.00648,1.13122 -11.23288,-1.30228 -14.37192,-2.31865 -18.18701,-4.23935 -5.26131,-2.6488 -9.15076,-5.96936 -11.4399,-10.19252 -6.2827,-11.12947 -7.3913,-18.49247 -3.75816,-33.65493 3.94492,-12.6684 13.88648,-25.11274 28.94609,-34.52303 16.30663,-10.65732 21.0898,-11.30998 45.92547,-13.33847 -25.90352,21.4853 -17.20433,49.58541 13.57747,56.64585 -12.48027,32.80173 -43.62053,44.30699 -50.89273,47.74687 -22.98571,6.42971 -37.21583,6.39247 -55.79629,2.27106 z m -5.42962,-23.06379 c -6.18189,-6.55788 -10.47422,-16.41677 -12.89779,-32.9445 0.10412,-10.10821 0.99322,-19.77292 7.28159,-30.90169 -10.71864,0.67131 -20.01711,7.21328 -25.08064,18.37761 -2.41486,7.22981 -2.97413,13.22426 0.11742,24.02037 5.81863,15.85796 12.9989,21.57125 21.39371,27.6486 10.97407,6.04412 29.07073,14.48727 47.06218,13.09639 -21.55091,-4.80206 -31.82738,-13.361 -37.87647,-19.29678 z m 76.7339,3.35056 c 6.18349,-3.69535 9.68695,-6.69373 13.94417,-14.12625 -18.63209,-1.47036 -36.22254,-12.72939 -33.84811,-35.12901 -5.09915,3.76763 -11.34239,10.4064 -16.21061,21.31332 -4.89981,10.61838 1.42609,26.26205 11.28952,29.90867 6.00961,1.91911 20.46887,1.13063 24.82503,-1.96673 z"
       id="path5262"
       inkscape:connector-curvature="0"
       sodipodi:nodetypes="cccccccccccscsccccccccccccccccccccc" />
  </g>
</svg>
