<?xml version="1.0" encoding="UTF-8" standalone="no"?>
<!-- Created with Inkscape (http://www.inkscape.org/) by Falzar FZ (http://yugioh.wikia.com/wiki/User:Falzar_FZ) -->

<svg
   xmlns:dc="http://purl.org/dc/elements/1.1/"
   xmlns:cc="http://creativecommons.org/ns#"
   xmlns:rdf="http://www.w3.org/1999/02/22-rdf-syntax-ns#"
   xmlns:svg="http://www.w3.org/2000/svg"
   xmlns="http://www.w3.org/2000/svg"
   xmlns:xlink="http://www.w3.org/1999/xlink"
   xmlns:sodipodi="http://sodipodi.sourceforge.net/DTD/sodipodi-0.dtd"
   xmlns:inkscape="http://www.inkscape.org/namespaces/inkscape"
   width="194.72433"
   height="193.51617"
   id="svg5784"
   version="1.1"
   inkscape:version="0.48.1 "
   sodipodi:docname="Emblem-Steelswarm.svg">
  <defs
     id="defs5786">
    <linearGradient
       inkscape:collect="always"
       xlink:href="#linearGradient5743-8-9"
       id="linearGradient6008-0-2"
       gradientUnits="userSpaceOnUse"
       x1="816.89154"
       y1="173.1447"
       x2="929.90308"
       y2="90.286674" />
    <linearGradient
       id="linearGradient5743-8-9">
      <stop
         style="stop-color:#333d42;stop-opacity:1"
         offset="0"
         id="stop5745-1-7" />
      <stop
         id="stop5755-9-9"
         offset="0.30866849"
         style="stop-color:#596771;stop-opacity:1" />
      <stop
         id="stop5753-2-3"
         offset="0.50858778"
         style="stop-color:#383956;stop-opacity:1" />
      <stop
         id="stop5751-3-6"
         offset="0.72372782"
         style="stop-color:#2d3247;stop-opacity:1" />
      <stop
         style="stop-color:#2f354f;stop-opacity:1;"
         offset="1"
         id="stop5747-3-6" />
    </linearGradient>
    <linearGradient
       y2="125.41593"
       x2="949.87854"
       y1="204.82991"
       x1="827.91248"
       gradientUnits="userSpaceOnUse"
       id="linearGradient7716"
       xlink:href="#linearGradient5743-8-9"
       inkscape:collect="always" />
  </defs>
  <sodipodi:namedview
     id="base"
     pagecolor="#ffffff"
     bordercolor="#666666"
     borderopacity="1.0"
     inkscape:pageopacity="0.0"
     inkscape:pageshadow="2"
     inkscape:zoom="1.8027703"
     inkscape:cx="47.13951"
     inkscape:cy="134.91915"
     inkscape:document-units="px"
     inkscape:current-layer="layer1"
     showgrid="false"
     fit-margin-top="0"
     fit-margin-left="0"
     fit-margin-right="0"
     fit-margin-bottom="0"
     inkscape:window-width="469"
     inkscape:window-height="455"
     inkscape:window-x="69"
     inkscape:window-y="69"
     inkscape:window-maximized="0" />
  <metadata
     id="metadata5789">
    <rdf:RDF>
      <cc:Work
         rdf:about="">
        <dc:format>image/svg+xml</dc:format>
        <dc:type
           rdf:resource="http://purl.org/dc/dcmitype/StillImage" />
        <dc:title />
      </cc:Work>
    </rdf:RDF>
  </metadata>
  <g
     inkscape:label="Layer 1"
     inkscape:groupmode="layer"
     id="layer1"
     transform="translate(-296.61838,-194.49084)">
    <g
       id="g5588"
       transform="matrix(1.0820686,0,0,1.0820686,-552.81341,111.2059)"
       style="fill:url(#linearGradient6008-0-2);fill-opacity:1;stroke:#000000;stroke-width:1.38623374;stroke-miterlimit:4;stroke-opacity:1;stroke-dasharray:none">
      <path
         style="fill:url(#linearGradient7716);fill-opacity:1;stroke:#000000;stroke-width:1.38623374;stroke-miterlimit:4;stroke-opacity:1;stroke-dasharray:none"
         d="m 838.85499,78.909107 c -7.0501,-0.10338 -20.51716,7.766052 -27.9374,16.758015 -7.42024,8.991958 -14.01193,23.751818 -12.79199,35.114128 1.21994,11.36231 16.6562,26.375 16.6562,26.375 l 27.3438,-21.29786 c 0,0 -15.4187,-6.82591 -16.9688,-15.76464 -2.425,-21.313729 15.76389,-37.211163 18.47949,-40.840893 -1.5768,-0.16495 -3.1543,-0.31989 -4.7813,-0.34375 z m 72.29122,0 c -1.627,0.0239 -3.2045,0.1788 -4.7813,0.34375 2.7156,3.62973 20.90449,19.527164 18.47949,40.840893 -1.5501,8.93873 -16.9688,15.76464 -16.9688,15.76464 l 27.3438,21.29786 c 0,0 15.40589,-15.01718 16.625,-26.375 1.21911,-11.35782 -5.34521,-26.12063 -12.76079,-35.114128 -7.41558,-8.993501 -20.8873,-16.861395 -27.9374,-16.758015 z m -36.14561,26.332873 -15.5,30.28927 15.5,0 15.5,0 z m -28,31.55654 -28.75,23.26398 0.9375,5.625 26.6875,14.125 7.9375,12.375 -16.5,-8.03125 -15.5313,-9.03125 c 0,0 9.06569,32.27892 18.625,44.75 9.55931,12.47108 34.5938,33.99253 34.5938,33.99253 0,0 25.18617,-21.10921 34.5938,-33.99253 9.40763,-12.88332 18.625,-44.75 18.625,-44.75 l -15.5313,9.03125 -16.5,8.03125 7.9375,-12.375 26.6875,-14.125 0.9375,-5.625 -28.75,-23.26398 c 0,0 -7.7367,2.46036 -12.5625,3.38898 -3.8443,0.73973 -11.5939,0.85793 -14.6875,0.875 0,0 -0.7101,0.004 -1.5,0 -3.0936,-0.0171 -10.8432,-0.13527 -14.6875,-0.875 -4.8258,-0.92862 -12.5625,-3.38898 -12.5625,-3.38898 z m -20.3438,68.97534 -20.8437,27.53125 32.6563,-11.15625 z m 96.6876,0 -11.8126,16.375 32.6563,11.15625 z"
         id="path5501"
         inkscape:connector-curvature="0"
         sodipodi:nodetypes="sccccccscccccccccccccccccccczczcccccccsccsccccccccc" />
    </g>
  </g>
</svg>
