<?xml version="1.0" encoding="UTF-8" standalone="no"?>
<!-- Created with Inkscape (http://www.inkscape.org/) -->

<svg
   xmlns:dc="http://purl.org/dc/elements/1.1/"
   xmlns:cc="http://creativecommons.org/ns#"
   xmlns:rdf="http://www.w3.org/1999/02/22-rdf-syntax-ns#"
   xmlns:svg="http://www.w3.org/2000/svg"
   xmlns="http://www.w3.org/2000/svg"
   xmlns:xlink="http://www.w3.org/1999/xlink"
   xmlns:sodipodi="http://sodipodi.sourceforge.net/DTD/sodipodi-0.dtd"
   xmlns:inkscape="http://www.inkscape.org/namespaces/inkscape"
   width="77.201485"
   height="77.58036"
   id="svg3114"
   version="1.1"
   inkscape:version="0.48.1 "
   sodipodi:docname="New document 2">
  <defs
     id="defs3116">
    <linearGradient
       inkscape:collect="always"
       xlink:href="#linearGradient5507-3"
       id="linearGradient3081"
       gradientUnits="userSpaceOnUse"
       gradientTransform="matrix(0.37606897,0,0,0.37606891,284.34192,546.05033)"
       x1="143.49998"
       y1="22.901928"
       x2="106.24998"
       y2="22.401928" />
    <linearGradient
       id="linearGradient5507-3">
      <stop
         style="stop-color:#ff0000;stop-opacity:1;"
         offset="0"
         id="stop5509-1" />
      <stop
         style="stop-color:#ff6600;stop-opacity:1"
         offset="1"
         id="stop5511-9" />
    </linearGradient>
    <linearGradient
       inkscape:collect="always"
       xlink:href="#linearGradient5507-3"
       id="linearGradient3079"
       gradientUnits="userSpaceOnUse"
       gradientTransform="matrix(0.37606897,0,0,0.37606891,284.34192,546.05033)"
       x1="143.49998"
       y1="22.901928"
       x2="106.24998"
       y2="22.401928" />
    <linearGradient
       id="linearGradient3082">
      <stop
         style="stop-color:#ff0000;stop-opacity:1;"
         offset="0"
         id="stop3084" />
      <stop
         style="stop-color:#ff6600;stop-opacity:1"
         offset="1"
         id="stop3086" />
    </linearGradient>
    <linearGradient
       inkscape:collect="always"
       xlink:href="#linearGradient3418"
       id="linearGradient3083"
       gradientUnits="userSpaceOnUse"
       x1="297.6759"
       y1="553.48169"
       x2="359.14716"
       y2="570.18866" />
    <linearGradient
       id="linearGradient3418">
      <stop
         id="stop3420"
         offset="0"
         style="stop-color:#d23388;stop-opacity:1" />
      <stop
         style="stop-color:#ef2e43;stop-opacity:1"
         offset="0.29348826"
         id="stop3422" />
      <stop
         id="stop3430"
         offset="0.68986225"
         style="stop-color:#e5282c;stop-opacity:1" />
      <stop
         id="stop3424"
         offset="1"
         style="stop-color:#602b33;stop-opacity:1" />
    </linearGradient>
    <linearGradient
       inkscape:collect="always"
       xlink:href="#linearGradient3795"
       id="linearGradient3085"
       gradientUnits="userSpaceOnUse"
       x1="328.6752"
       y1="598.91052"
       x2="335.13403"
       y2="548.35461" />
    <linearGradient
       id="linearGradient3795">
      <stop
         id="stop3797"
         offset="0"
         style="stop-color:#1c2224;stop-opacity:1" />
      <stop
         style="stop-color:#2a2723;stop-opacity:1"
         offset="0.63092703"
         id="stop3799" />
      <stop
         id="stop3801"
         offset="1"
         style="stop-color:#e6282e;stop-opacity:1" />
    </linearGradient>
    <linearGradient
       inkscape:collect="always"
       xlink:href="#linearGradient3432"
       id="linearGradient3087"
       gradientUnits="userSpaceOnUse"
       x1="301.63666"
       y1="603.81531"
       x2="324.00909"
       y2="564.27753" />
    <linearGradient
       id="linearGradient3432">
      <stop
         style="stop-color:#7260a4;stop-opacity:1;"
         offset="0"
         id="stop3434" />
      <stop
         id="stop3793"
         offset="0.5"
         style="stop-color:#8d4b99;stop-opacity:1;" />
      <stop
         style="stop-color:#a8378f;stop-opacity:1"
         offset="1"
         id="stop3436" />
    </linearGradient>
  </defs>
  <sodipodi:namedview
     id="base"
     pagecolor="#ffffff"
     bordercolor="#666666"
     borderopacity="1.0"
     inkscape:pageopacity="0.0"
     inkscape:pageshadow="2"
     inkscape:zoom="0.49497475"
     inkscape:cx="114.54016"
     inkscape:cy="-115.18374"
     inkscape:document-units="px"
     inkscape:current-layer="layer1"
     showgrid="false"
     fit-margin-left="0.2"
     fit-margin-top="0.2"
     fit-margin-bottom="0.2"
     fit-margin-right="0.2"
     inkscape:window-width="469"
     inkscape:window-height="455"
     inkscape:window-x="69"
     inkscape:window-y="69"
     inkscape:window-maximized="0" />
  <metadata
     id="metadata3119">
    <rdf:RDF>
      <cc:Work
         rdf:about="">
        <dc:format>image/svg+xml</dc:format>
        <dc:type
           rdf:resource="http://purl.org/dc/dcmitype/StillImage" />
        <dc:title></dc:title>
      </cc:Work>
    </rdf:RDF>
  </metadata>
  <g
     inkscape:label="Layer 1"
     inkscape:groupmode="layer"
     id="layer1"
     transform="translate(-307.11354,-293.572)">
    <g
       transform="matrix(0.96766596,0,0,0.94944363,28.483307,-213.02941)"
       id="g3296">
      <g
         id="g3065">
        <text
           xml:space="preserve"
           style="font-size:15.04275513px;font-style:normal;font-weight:normal;line-height:125%;letter-spacing:0px;word-spacing:0px;fill:url(#linearGradient3081);fill-opacity:1;stroke:none;font-family:StoneSerITCStd Medium;-inkscape-font-specification:StoneSerITCStd Medium"
           x="319.97443"
           y="555.13312"
           id="text5503"
           sodipodi:linespacing="125%"
           transform="scale(0.99053965,1.0095507)"><tspan
             sodipodi:role="line"
             id="tspan5505"
             x="319.97443"
             y="555.13312"
             style="font-size:2.25641346px;fill:url(#linearGradient3081);fill-opacity:1">Created by Falzar FZ</tspan></text>
        <g
           transform="translate(0.00547206,0.0258127)"
           id="g3021"
           style="display:inline">
          <path
             style="fill:url(#linearGradient3083);fill-opacity:1;stroke:none"
             d="m 325.12487,533.76805 c -12.04619,0.12786 -23.83129,6.47825 -30.10708,16.8382 -9.98334,15.47574 -9.2208,37.5796 3.10803,51.55872 7.91058,8.9416 20.14109,13.52621 31.99522,12.68526 12.96871,-0.25474 25.57911,-7.74217 31.66968,-19.25774 5.39871,-9.43832 6.92244,-20.84042 4.7256,-31.45827 -2.298,-13.99137 -13.54381,-26.2257 -27.38604,-29.44165 -4.60618,-0.8471 -9.33291,-0.96193 -14.00541,-0.92452 z"
             id="path3048"
             inkscape:connector-curvature="0" />
          <g
             id="g4771"
             transform="translate(-85.682227,0.42272594)"
             style="fill:#ffffff;fill-opacity:1" />
          <path
             style="fill:url(#linearGradient3085);fill-opacity:1;stroke:none"
             d="m 313.77433,554.36015 c -16.09525,1.91834 -22.00562,49.43006 23.19335,43.55164 18.17503,-11.0868 26.88882,-21.81763 25.25395,-29.59012 -4.28871,-9.28069 -6.36597,-6.81399 -12.19801,-3.9823 -22.7935,5.71562 -22.42028,-12.56551 -36.24929,-9.97922 z"
             id="path3048-3-1"
             inkscape:connector-curvature="0"
             sodipodi:nodetypes="ccccc" />
          <path
             style="fill:url(#linearGradient3087);fill-opacity:1;stroke:none"
             d="m 319.25832,534.42259 c -17.1721,2.74453 -27.47255,16.64483 -30.52308,32.75312 -2.26633,13.24516 2.11531,28.84901 11.0273,36.73852 7.14713,6.32713 11.97183,10.97739 31.22638,11.13688 12.89226,0.10679 25.58694,-8.765 32.11536,-20.28954 6.64365,-11.7279 4.06281,-28.09614 3.09577,-32.22298 -2.69983,4.70986 -9.47854,7.07303 -12.11892,9.91923 -1.83691,2.32414 -3.82034,5.98533 -6.80747,8.43946 -6.73148,4.93847 -7.36609,6.57008 -10.86213,7.46593 -2.14967,-2.65959 -6.84292,-8.09326 -10.31532,-7.86934 -2.84444,17.35613 -10.7591,12.69319 -15.17995,6.49425 -9.81332,-15.53051 -11.50843,-17.57165 -11.65137,-25.45428 1.57491,-14.02577 5.3228,-21.8361 19.99343,-27.11125 z"
             id="path3048-3"
             inkscape:connector-curvature="0"
             sodipodi:nodetypes="ccssscccccccc" />
        </g>
      </g>
      <path
         sodipodi:nodetypes="ssssccssssssscccccccssscsccc"
         inkscape:connector-curvature="0"
         id="path3158"
         d="m 329.26934,542.47015 c -2.43377,-0.006 -4.90438,0.055 -7.27691,0.60793 -3.41226,0.79526 -6.8141,1.98446 -9.79866,3.84846 -2.9101,1.81747 -6.18536,3.81531 -7.61819,6.97245 -1.2191,2.68619 -2.23523,6.73339 -0.23863,8.87555 1.59753,1.71397 4.99904,1.36962 7.03829,0.24307 2.51254,-1.38796 2.88214,-5.0392 4.53316,-7.41661 1.47097,-2.11817 2.57416,-4.76857 4.77177,-6.07914 2.581,-1.53922 5.87496,-1.7633 8.85257,-1.4818 3.36926,0.31852 7.04743,1.19747 9.54349,3.52591 1.7213,1.60571 3.09706,4.09272 2.95749,6.4667 -0.18479,3.14331 -2.86277,5.6691 -4.89107,8.02452 -2.23122,2.59108 -5.10858,4.57928 -7.87332,6.56546 -1.74246,1.25176 -3.72952,2.38072 -5.48751,3.40436 -0.18326,3.85532 -0.26967,6.33119 -0.23867,10.6993 1.79366,1.8735 5.91398,1.82778 7.75411,0 0.33762,-2.29703 0.16292,-3.92036 0.11931,-6.68707 1.96616,-1.2594 3.57669,-2.09392 5.24894,-3.28275 3.45064,-2.45302 7.10126,-4.58114 9.90136,-7.78134 2.62596,-3.0011 6.00033,-6.31882 6.20327,-10.33458 0.20204,-4.00127 -2.15893,-8.15749 -5.01032,-10.94246 -2.79333,-2.72825 -6.95935,-3.60355 -10.71715,-4.54172 -2.52613,-0.63067 -5.17253,-0.68013 -7.77333,-0.68624 z m -1.9087,51.30807 c -2.72715,-0.0147 -6.4836,2.7105 -6.79973,5.47125 -0.38747,3.38371 3.45722,6.81511 6.79973,6.80869 3.31013,-0.008 7.05194,-3.45633 6.68042,-6.80869 -0.304,-2.74503 -3.97001,-5.45575 -6.68042,-5.47125 z"
         style="fill:#fff7ec;fill-opacity:1;stroke:none" />
    </g>
  </g>
</svg>
