<?xml version="1.0" encoding="UTF-8" standalone="no"?>
<!-- Created with Inkscape (http://www.inkscape.org/) -->

<svg
   xmlns:dc="http://purl.org/dc/elements/1.1/"
   xmlns:cc="http://creativecommons.org/ns#"
   xmlns:rdf="http://www.w3.org/1999/02/22-rdf-syntax-ns#"
   xmlns:svg="http://www.w3.org/2000/svg"
   xmlns="http://www.w3.org/2000/svg"
   xmlns:sodipodi="http://sodipodi.sourceforge.net/DTD/sodipodi-0.dtd"
   xmlns:inkscape="http://www.inkscape.org/namespaces/inkscape"
   width="264mm"
   height="65mm"
   viewBox="0 0 264 65"
   version="1.1"
   id="svg8"
   inkscape:version="0.92.4 (unknown)"
   sodipodi:docname="icon.svg"
   style="enable-background:new"
   inkscape:export-filename="/home/wilson/cosas para aprender/pagina web/frontend/angular/yugioh/src/assets/images/icon.png"
   inkscape:export-xdpi="150"
   inkscape:export-ydpi="150">
  <defs
     id="defs2">
    <filter
       inkscape:collect="always"
       style="color-interpolation-filters:sRGB"
       id="filter4759">
      <feBlend
         inkscape:collect="always"
         mode="multiply"
         in2="BackgroundImage"
         id="feBlend4761" />
    </filter>
    <filter
       inkscape:collect="always"
       style="color-interpolation-filters:sRGB"
       id="filter4837"
       x="-0.014086132"
       width="1.0281723"
       y="-0.081027274"
       height="1.1620545">
      <feGaussianBlur
         inkscape:collect="always"
         stdDeviation="0.60087262"
         id="feGaussianBlur4839" />
    </filter>
    <filter
       style="color-interpolation-filters:sRGB;"
       inkscape:label="Bump"
       id="filter5234">
      <feGaussianBlur
         in="SourceGraphic"
         stdDeviation="0.11"
         result="blur1"
         id="feGaussianBlur5212" />
      <feColorMatrix
         in="blur1"
         values="1 0 0 0 0 0 1 0 0 0 0 0 1 0 0 0 0 0 1 0 "
         result="colormatrix1"
         id="feColorMatrix5214" />
      <feColorMatrix
         in="colormatrix1"
         type="luminanceToAlpha"
         result="colormatrix2"
         id="feColorMatrix5216" />
      <feComposite
         in2="blur1"
         operator="arithmetic"
         k2="1"
         k3="0.1"
         result="composite1"
         id="feComposite5218" />
      <feGaussianBlur
         in="composite1"
         stdDeviation="0.01"
         result="blur2"
         id="feGaussianBlur5220" />
      <feSpecularLighting
         lighting-color="rgb(255,255,255)"
         surfaceScale="7.92"
         specularConstant="1.17"
         specularExponent="18"
         result="lighting"
         id="feSpecularLighting5224">
        <feDistantLight
           azimuth="225"
           elevation="45"
           id="feDistantLight5222" />
      </feSpecularLighting>
      <feFlood
         flood-color="rgb(255,152,0)"
         flood-opacity="1"
         result="flood"
         id="feFlood5226" />
      <feComposite
         in="lighting"
         in2="flood"
         operator="arithmetic"
         k3="1"
         k2="1"
         result="composite2"
         id="feComposite5228" />
      <feBlend
         in2="SourceGraphic"
         mode="normal"
         result="blend"
         id="feBlend5230" />
      <feComposite
         in="blend"
         in2="SourceGraphic"
         operator="in"
         k2="1"
         result="composite3"
         id="feComposite5232" />
    </filter>
  </defs>
  <sodipodi:namedview
     id="base"
     pagecolor="#ffffff"
     bordercolor="#666666"
     borderopacity="1.0"
     inkscape:pageopacity="0.0"
     inkscape:pageshadow="2"
     inkscape:zoom="0.98994949"
     inkscape:cx="527.18145"
     inkscape:cy="55.991574"
     inkscape:document-units="mm"
     inkscape:current-layer="layer1"
     showgrid="false"
     showborder="true"
     inkscape:snap-global="false"
     width="296mm" />
  <metadata
     id="metadata5">
    <rdf:RDF>
      <cc:Work
         rdf:about="">
        <dc:format>image/svg+xml</dc:format>
        <dc:type
           rdf:resource="http://purl.org/dc/dcmitype/StillImage" />
        <dc:title />
      </cc:Work>
    </rdf:RDF>
  </metadata>
  <g
     inkscape:label="Capa 1"
     inkscape:groupmode="layer"
     id="layer1"
     style="opacity:0.98999999;filter:url(#filter4759)"
     transform="translate(0,-232)">
    <g
       id="g921"
       transform="matrix(2.3754693,0,0,2.3754693,194.50715,-359.93927)"
       style="stroke:#2b2200;stroke-opacity:1;stroke-width:0.63145417;stroke-miterlimit:4;stroke-dasharray:none">
      <g
         aria-label="DUEL MONSTERS"
         style="font-style:normal;font-variant:normal;font-weight:normal;font-stretch:normal;font-size:10.58333302px;line-height:1.25;font-family:Sarai;-inkscape-font-specification:Sarai;letter-spacing:7.56708336px;word-spacing:0px;fill:#000000;fill-opacity:1;stroke:#2b2200;stroke-width:0.63145417;stroke-opacity:1;stroke-miterlimit:4;stroke-dasharray:none"
         id="text915"
         transform="translate(7.1815471,-3.96875)">
        <path
           style="font-style:normal;font-variant:normal;font-weight:normal;font-stretch:normal;font-family:'Bomber Escort';-inkscape-font-specification:'Bomber Escort';letter-spacing:0.26458332px;fill:#ff0000;stroke:#2b2200;stroke-width:0.63145417;stroke-miterlimit:4;stroke-dasharray:none;stroke-opacity:1"
           d="m -84.613281,254.28711 c -2.291786,-3.5e-4 -4.010638,2.0966 -3.560547,4.34375 0.201187,1.00565 0.582144,1.44496 0.77539,1.70703 v 0.008 c 0.0024,0.003 0.0074,0.008 0.0098,0.0117 0.0026,0.003 0.0073,0.02 0.0098,0.0234 l -0.01953,-0.0273 v 3.38476 c -8.6e-5,2.0053 1.625556,3.63095 3.63086,3.63086 h 6.404297 c 0.671324,0 1.13017,-0.28825 1.621093,-0.52344 0.507252,0.21486 0.974154,0.52344 1.509766,0.52344 h 5.576172 c 0.366792,0 0.568605,-0.19994 0.886719,-0.28516 0.442688,0.18664 0.918016,0.28357 1.398437,0.28516 h 5.941406 l 0.04688,7.19727 c 0.0035,0.53672 0.04874,1.12974 0.330078,1.86523 0.258588,0.67608 0.769081,1.44069 1.488281,1.97266 0.589114,0.43579 1.277994,0.6957 1.912109,0.81054 0.444367,0.0864 0.8656,0.12559 1.257813,0.12305 0.378899,-0.002 0.745002,-0.03 1.101562,-0.0781 0.0018,-2.5e-4 0.004,-0.002 0.0059,-0.002 0.303387,-0.0399 0.54331,-0.0634 0.992187,-0.18945 0.925925,-0.26067 1.710565,-0.87813 2.181641,-1.7168 0.224296,0.31698 0.356254,0.65881 0.679687,0.91992 0.67375,0.54401 1.44056,0.81509 2.070313,0.92188 v -0.002 c 0.421564,0.0716 0.8073,0.0941 1.18164,0.0918 0.377842,-0.002 0.743536,-0.0334 1.089844,-0.082 0.0011,-1.6e-4 0.0028,1.6e-4 0.0039,0 0.292669,-0.0402 0.529709,-0.0668 0.960938,-0.1875 0.189617,-0.0545 0.374474,-0.12442 0.552734,-0.20898 0.0996,0.041 0.159213,0.12609 0.263672,0.16015 0.703135,0.22926 1.432618,0.33279 2.138672,0.32813 0.583226,-0.003 1.196809,-0.0796 1.849609,-0.27149 0.666931,-0.18279 1.449848,-0.49307 2.175782,-1.22851 0.204467,-0.20951 0.382846,-0.44297 0.53125,-0.69531 0.270058,0.41023 0.454576,0.85015 0.878906,1.16406 0.609937,0.4512 1.304019,0.69677 1.912109,0.80664 0.442989,0.0861 0.863954,0.12755 1.257813,0.125 0.379007,-0.002 0.7451,-0.03 1.101562,-0.0781 0.0018,-2.4e-4 0.004,-0.002 0.0059,-0.002 0.303566,-0.0399 0.543474,-0.0635 0.992187,-0.18945 1.417754,-0.39903 2.453973,-1.61503 2.623047,-3.07813 0.724644,-0.19016 1.465359,-0.49686 2.050781,-1.08984 0.0019,-0.002 0.002,-0.004 0.0039,-0.006 0.393094,0.85224 0.880918,1.68561 1.576171,2.35547 0.765305,0.73733 1.696102,1.30392 2.669922,1.66601 0.01753,0.007 0.0351,0.0131 0.05273,0.0195 0.97484,0.34573 2.002238,0.5008 3.017578,0.49414 1.017149,-0.006 2.043254,-0.17607 3.009765,-0.53321 0.968944,-0.35805 1.90124,-0.92037 2.669922,-1.66211 v -0.002 c 0.797094,-0.77009 1.402792,-1.72248 1.792969,-2.7168 0.0026,-0.006 0.0052,-0.013 0.0078,-0.0195 0.411908,-1.06743 0.577583,-2.18751 0.570313,-3.29492 -0.0053,-0.80465 -0.246522,-1.59505 -0.46875,-2.38281 0.271857,0.0657 0.550397,0.0998 0.830078,0.10156 0.746438,0 1.3024985,-0.1838 1.7539064,-0.37695 0.031441,-0.0132 0.062694,-0.0269 0.09375,-0.041 0.1803137,-0.0832 0.4152467,-0.20028 0.6640625,-0.33789 0.3261532,-0.17571 0.544133,-0.32581 0.7265625,-0.45117 0.2696306,-0.17129 0.5096928,-0.34247 0.6992187,-0.48828 0.1072084,-0.0825 0.2190937,-0.17745 0.328125,-0.26758 0.5775317,0.36295 1.2456254,0.55586 1.9277344,0.55664 h 4.70117188 c 0.68638647,0.88666 1.74394612,1.40643 2.86523442,1.4082 0.8166533,0 1.3186459,-0.19212 1.7519531,-0.37695 0.032761,-0.0138 0.065316,-0.0282 0.097656,-0.043 0.1912641,-0.0883 0.4219721,-0.20489 0.6621094,-0.33789 0.3181727,-0.17135 0.5398528,-0.32259 0.7304687,-0.45312 0.2136673,-0.13584 0.3905012,-0.26414 0.5546876,-0.38672 0.3695116,0.12429 0.7566301,0.18826 1.1464843,0.18945 h 2.6132811 c 0.326862,-0.001 0.652066,-0.0465 0.966797,-0.13476 0.141927,0.0175 0.252022,0.13476 0.390625,0.13476 h 5.314453 c 0.980215,0 1.821884,-0.38167 2.367188,-0.76367 0.04972,-0.0346 0.09856,-0.0704 0.146484,-0.10742 0.473872,-0.36865 0.720189,-0.68687 0.869141,-0.87305 0.326427,-0.40804 0.535064,-0.81536 0.681641,-1.15625 0.160774,-0.35689 0.402343,-0.94755 0.402343,-1.78906 v -1.28125 c -1.25e-4,-0.24472 -0.02499,-0.4888 -0.07422,-0.72852 0.04806,-0.23396 0.07293,-0.4721 0.07422,-0.71094 v -0.98242 c 0,-1.02816 -0.24095,-1.41658 -0.365234,-1.71484 -0.146101,-0.35062 -0.374051,-0.78987 -0.71875,-1.2207 -0.148824,-0.18601 -0.395144,-0.5043 -0.869141,-0.87305 -0.0479,-0.0377 -0.09675,-0.0742 -0.146484,-0.10938 -0.421896,-0.29539 -1.106848,-0.77148 -2.367188,-0.77148 h -5.314453 c -0.460335,0 -0.841024,0.11751 -1.207031,0.23828 -0.35473,-0.1246 -0.7490076,-0.23828 -1.292969,-0.23828 H 2.6992188 c -0.140384,9.7e-4 -0.2805935,0.0101 -0.4199219,0.0273 -0.1347994,-0.0167 -0.2704293,-0.0258 -0.40625,-0.0273 h -7.5878907 c -0.09913,10e-4 -0.1981711,0.006 -0.296875,0.0156 -0.1025966,-0.01 -0.2055544,-0.0148 -0.3085937,-0.0156 h -7.2597655 c -0.324157,10e-4 -0.646685,0.0459 -0.958984,0.13281 -0.241439,-0.0462 -0.418666,-0.13281 -0.722657,-0.13281 h -5.3125 c -0.26442,0 -0.459125,0.0914 -0.693359,0.13672 -0.319682,-0.0903 -0.65024,-0.13624 -0.982422,-0.13663 h -2.220703 c -0.488056,5.8e-4 -0.970985,0.0996 -1.419922,0.29101 -0.448332,-0.1912 -0.930571,-0.29017 -1.417969,-0.29101 h -2.179687 c -0.321452,10e-4 -0.641306,0.0453 -0.951172,0.13086 -0.238946,-0.0451 -0.413017,-0.13086 -0.712891,-0.13086 h -5.578125 c -0.262128,0 -0.455025,0.0902 -0.6875,0.13477 -0.318509,-0.0893 -0.647727,-0.13463 -0.978515,-0.13477 h -2.97461 c -0.59928,6.3e-4 -1.189085,0.14959 -1.716797,0.43359 -0.525964,-0.28307 -1.113641,-0.432 -1.710937,-0.43359 h -2.97461 c -2.005304,-9e-5 -3.630945,1.62556 -3.630859,3.63086 v 0.60351 c -0.206365,-0.0362 -0.415479,-0.0545 -0.625,-0.0547 h -0.306641 v -0.54883 c 8.6e-5,-2.0053 -1.625555,-3.63095 -3.630859,-3.63086 h -3.068359 c -0.09652,0.001 -0.192954,0.007 -0.289063,0.0156 -0.101299,-0.009 -0.202951,-0.0147 -0.304687,-0.0156 h -7.587891 c -0.09913,0.001 -0.198171,0.006 -0.296875,0.0156 -0.101948,-0.01 -0.204252,-0.0147 -0.30664,-0.0156 h -2.222657 c -0.483052,5.6e-4 -0.961137,0.0975 -1.40625,0.28516 -0.442082,-0.18639 -0.916721,-0.28331 -1.396484,-0.28516 h -3.070313 c -0.289718,0.001 -0.578229,0.0375 -0.859375,0.10742 -0.205332,-0.0317 -0.340634,-0.10742 -0.58789,-0.10742 z"
           id="path4713"
           inkscape:connector-curvature="0"
           sodipodi:nodetypes="cccccccccscsscccccccccccccccccccccccccccccccccccccccccccccccccccccccccccccccssccccscccsccccsscsccccccccsscccccccssccccccccccccccccccccccccc" />
        <path
           style="font-style:normal;font-variant:normal;font-weight:normal;font-stretch:normal;font-family:'Bomber Escort';-inkscape-font-specification:'Bomber Escort';letter-spacing:0.26458332px;stroke-width:0.63145417;stroke:#2b2200;stroke-opacity:1;stroke-miterlimit:4;stroke-dasharray:none"
           d="m -84.613281,257.91797 c 0.02117,0.10583 0.08526,0.2117 0.169922,0.32812 0.08467,0.127 0.168422,0.24182 0.263671,0.34766 0.08467,0.10583 0.169238,0.20241 0.253907,0.28711 0.08467,0.0846 0.137031,0.14679 0.158203,0.16797 v 4.68945 h 6.404297 c 0.08467,0 0.179323,-0.0313 0.285156,-0.10547 0.09525,-0.0741 0.190722,-0.17069 0.275391,-0.28711 0.08467,-0.10583 0.148249,-0.22065 0.201172,-0.34765 0.05292,-0.11641 0.08398,-0.2223 0.08398,-0.32813 v -3.68359 c 0,-0.0847 -0.03106,-0.19136 -0.08398,-0.31836 -0.05292,-0.127 -0.116503,-0.24295 -0.201172,-0.35938 -0.08467,-0.10582 -0.180141,-0.20129 -0.275391,-0.27539 -0.105833,-0.0741 -0.200487,-0.11523 -0.285156,-0.11523 z m 8.697265,0 c 0.02117,0.10583 0.08525,0.2117 0.169922,0.32812 0.08467,0.127 0.168422,0.24182 0.263672,0.34766 0.08466,0.10583 0.169237,0.20241 0.253906,0.28711 0.08467,0.0846 0.138985,0.14679 0.160157,0.16797 v 3.63086 c 0,0.10584 0.02129,0.2117 0.07422,0.32812 0.05292,0.127 0.1165,0.24377 0.201172,0.34961 0.08466,0.10583 0.167605,0.20129 0.273438,0.27539 0.09525,0.0741 0.191859,0.10547 0.287109,0.10547 h 5.576172 c 0.08467,0 0.181275,-0.0313 0.287109,-0.10547 0.09525,-0.0741 0.179003,-0.16956 0.263672,-0.27539 0.08467,-0.10584 0.14825,-0.22261 0.201172,-0.34961 0.05292,-0.11642 0.08398,-0.22228 0.08398,-0.32812 v -4.76172 h -2.222657 v 3.99023 c 0,0.0423 -0.01903,0.0827 -0.05078,0.125 -0.03175,0.0423 -0.06395,0.0645 -0.0957,0.0645 h -2.507813 c -0.04233,0 -0.07567,-0.0222 -0.107422,-0.0645 -0.03175,-0.0423 -0.04102,-0.0827 -0.04102,-0.125 v -3.99023 z m 8.699219,0 c 0.02117,0.10583 0.0833,0.2117 0.167969,0.32812 0.08466,0.127 0.170375,0.24182 0.265625,0.34766 0.08467,0.10583 0.169237,0.20241 0.253906,0.28711 0.08467,0.0846 0.137031,0.14679 0.158203,0.16797 v 4.68945 h 6.742188 v -1.64062 h -4.498047 v -0.45508 h 3.396484 v -1.62891 h -3.396484 v -0.45508 h 4.498047 v -1.64062 z m 8.181641,0 c 0.02117,0.10583 0.08329,0.2117 0.167968,0.32812 0.08467,0.127 0.170375,0.24182 0.265626,0.34766 0.08466,0.10583 0.169242,0.20241 0.253906,0.28711 0.08467,0.0846 0.137034,0.14679 0.158203,0.16797 v 4.68945 h 6.160156 v -1.64062 h -3.9375 v -4.17969 z m 11.261718,0 v 7.22656 c 0.07408,0 0.17996,-0.0205 0.328126,-0.084 0.137583,-0.0635 0.285742,-0.13717 0.455078,-0.23243 0.15875,-0.0847 0.316994,-0.19023 0.486328,-0.30664 0.169333,-0.10584 0.317495,-0.21252 0.455078,-0.31836 0.137581,-0.10583 0.255177,-0.20048 0.339844,-0.28515 0.08467,-0.0847 0.137854,-0.13736 0.148437,-0.17969 h 0.0098 v -2.92187 l 1.68164,2.92187 h 1.56836 l 1.68164,-2.92187 v 2.92187 h 2.222657 v -5.82031 h -2.97461 l -1.714844,2.94141 -1.71289,-2.94141 z m 11.042969,0 c -0.09525,0 -0.189903,0.0412 -0.285156,0.11523 -0.10583,0.0741 -0.190719,0.16957 -0.275391,0.27539 -0.08467,0.10583 -0.148251,0.22261 -0.201172,0.34961 -0.05291,0.127 -0.07422,0.23366 -0.07422,0.31836 v 3.70313 c 0,0.10584 0.02128,0.2117 0.07422,0.32812 0.05291,0.127 0.116503,0.24377 0.201172,0.34961 0.08467,0.10583 0.169561,0.20129 0.275391,0.27539 0.09525,0.0741 0.189906,0.10547 0.285156,0.10547 h 5.578125 c 0.08467,0 0.179324,-0.0313 0.285156,-0.10547 0.09525,-0.0741 0.179002,-0.16956 0.263672,-0.27539 0.08467,-0.10584 0.148256,-0.22261 0.201172,-0.34961 0.05292,-0.11642 0.08594,-0.22228 0.08594,-0.32812 v -3.70313 c 0,-0.0847 -0.03302,-0.19136 -0.08594,-0.31836 -0.05291,-0.127 -0.116503,-0.24378 -0.201172,-0.34961 -0.08467,-0.10582 -0.168421,-0.20129 -0.263672,-0.27539 -0.105833,-0.0741 -0.200487,-0.11523 -0.285156,-0.11523 z m 7.242188,0 v 7.22656 c 0.07408,0 0.179959,-0.0206 0.328125,-0.084 0.137584,-0.0635 0.285747,-0.13712 0.455078,-0.23243 0.158751,-0.0847 0.316995,-0.19023 0.486328,-0.30664 0.169334,-0.10584 0.317495,-0.21251 0.455078,-0.31836 0.137583,-0.10583 0.255175,-0.20045 0.339844,-0.28515 0.08467,-0.0846 0.137862,-0.13739 0.148437,-0.17969 h 0.0098 v -2.85742 l 2.826172,2.85742 H -22.25 v -5.82031 h -2.220703 v 2.85742 l -2.837891,-2.85742 z m 8.914062,0 c -0.09525,0 -0.189906,0.0412 -0.285156,0.11523 -0.105833,0.0741 -0.190721,0.16957 -0.275391,0.27539 -0.08467,0.10583 -0.148251,0.22261 -0.201172,0.34961 -0.05291,0.127 -0.07422,0.23366 -0.07422,0.31836 v 1.2793 c 0.02117,0.10583 0.08525,0.20241 0.169922,0.28711 0.08467,0.0847 0.18014,0.15804 0.27539,0.21094 l 4.179688,1.35547 h -2.253906 c -0.04233,0 -0.07372,-0.0222 -0.105469,-0.0645 -0.03175,-0.0423 -0.04297,-0.0846 -0.04297,-0.12695 v -0.22266 h -2.222656 v 0.98438 c 0,0.10584 0.02131,0.2117 0.07422,0.32812 0.05292,0.127 0.116503,0.24377 0.201172,0.34961 0.08467,0.10583 0.169558,0.20129 0.275391,0.27539 0.09525,0.0741 0.189906,0.10547 0.285156,0.10547 h 5.3125 c 0.08467,0 0.179323,-0.0313 0.285157,-0.10547 0.09525,-0.0741 0.180955,-0.16956 0.265624,-0.27539 0.08467,-0.10584 0.148252,-0.22261 0.201172,-0.34961 0.05292,-0.11642 0.08399,-0.22228 0.08399,-0.32812 v -1.28125 c -0.03175,-0.10585 -0.08413,-0.19069 -0.158203,-0.27539 -0.08467,-0.0741 -0.179323,-0.14661 -0.285157,-0.22071 l -4.18164,-1.35546 h 2.255859 c 0.03175,0 0.06198,0.0222 0.09375,0.0645 0.03175,0.0423 0.05273,0.0846 0.05273,0.12695 v 0.2207 h 2.222657 v -0.98242 c 0,-0.0847 -0.03106,-0.19136 -0.08399,-0.31836 -0.05292,-0.127 -0.116501,-0.24378 -0.201172,-0.34961 -0.08467,-0.10582 -0.170375,-0.20129 -0.265624,-0.27539 -0.105834,-0.0741 -0.200487,-0.11523 -0.285157,-0.11523 z m 6.994141,0 v 1.64062 h 2.519531 v 5.58594 c 0.07408,0 0.178006,-0.0206 0.326172,-0.084 0.137584,-0.0635 0.287698,-0.13712 0.457031,-0.23243 0.15875,-0.0847 0.3169948,-0.19023 0.4863284,-0.30664 0.1693331,-0.10584 0.3174953,-0.21251 0.4550781,-0.31836 0.1375831,-0.10583 0.2543594,-0.20045 0.3496094,-0.28515 0.084667,-0.0846 0.1359013,-0.13739 0.1464843,-0.17969 v -4.17969 h 2.5195313 v -1.64062 z m 7.8652342,0 c 0.021167,0.10583 0.085255,0.2117 0.1699219,0.32812 0.084666,0.127 0.1684216,0.24182 0.2636719,0.34766 0.084666,0.10583 0.1711925,0.20241 0.2558594,0.28711 0.084667,0.0846 0.1370361,0.14679 0.1582031,0.16797 v 4.68945 h 6.7402344 v -1.64062 h -4.4960938 v -0.45508 h 3.3964844 v -1.62891 h -3.3964844 v -0.45508 h 4.4960938 v -1.64062 z m 8.4140626,0 v 7.22656 0.002 c 0.074083,0 0.1799585,-0.0226 0.328125,-0.0859 0.1375833,-0.0635 0.285745,-0.13712 0.4550781,-0.23243 0.1587503,-0.0847 0.3189479,-0.19022 0.4882812,-0.30664 0.1693334,-0.10583 0.3174948,-0.2125 0.4550781,-0.31836 0.1375834,-0.10581 0.2524064,-0.20045 0.3476563,-0.28515 0.084666,-0.0846 0.1378545,-0.13739 0.1484375,-0.17969 v -4.17969 h 2.65625 c 0.03175,0 0.063953,0.0202 0.095703,0.0625 0.03175,0.0423 0.052734,0.0846 0.052734,0.12696 v 0.67773 c 0,0.127 -0.053188,0.18945 -0.1484375,0.18945 h -2.148437 v 1.04883 l 2.2128906,2.07422 h 2.6132809 l -1.6718746,-1.58789 h 0.1054687 c 0.254,0 0.4673858,-0.0322 0.6367188,-0.0957 0.1693331,-0.0635 0.295375,-0.14725 0.390625,-0.26367 0.084667,-0.10583 0.1479375,-0.2545 0.1796875,-0.42383 0.03175,-0.16933 0.052734,-0.35896 0.052734,-0.5918 v -1.79883 c 0,-0.0847 -0.031068,-0.19136 -0.083984,-0.31836 -0.052917,-0.127 -0.1165047,-0.24378 -0.2011719,-0.34961 -0.084666,-0.10584 -0.170375,-0.20129 -0.265625,-0.27539 -0.1058333,-0.0741 -0.2004891,-0.11523 -0.2851563,-0.11523 z m 8.9140622,0 c -0.09525,0 -0.189906,0.0412 -0.285156,0.11523 -0.105833,0.0741 -0.190721,0.16957 -0.275391,0.27539 -0.08467,0.10583 -0.148251,0.22261 -0.201172,0.34961 -0.05291,0.127 -0.07422,0.23366 -0.07422,0.31836 v 1.2793 c 0.02117,0.10583 0.08525,0.20241 0.169922,0.28711 0.08467,0.0847 0.18014,0.15804 0.27539,0.21094 l 4.179688,1.35547 h -2.253906 c -0.04233,0 -0.07372,-0.0222 -0.105469,-0.0645 C 13.011219,262.00262 13,261.96029 13,261.91797 v -0.22266 h -2.222656 v 0.98438 c 0,0.10584 0.0213,0.2117 0.07422,0.32812 0.05292,0.127 0.116502,0.24377 0.201172,0.34961 0.08467,0.10583 0.169558,0.20129 0.275391,0.27539 0.09525,0.0741 0.189906,0.10547 0.285156,0.10547 h 5.314453 c 0.08467,0 0.179324,-0.0313 0.285157,-0.10547 0.09525,-0.0741 0.179002,-0.16956 0.263671,-0.27539 0.08467,-0.10584 0.148252,-0.22261 0.201172,-0.34961 0.05292,-0.11642 0.08594,-0.22228 0.08594,-0.32812 v -1.28125 c -0.03175,-0.10585 -0.08608,-0.19069 -0.160156,-0.27539 -0.08467,-0.0741 -0.179324,-0.14661 -0.285157,-0.22071 l -4.179687,-1.35546 h 2.253906 c 0.03175,0 0.06395,0.0222 0.0957,0.0645 0.03175,0.0423 0.05274,0.0846 0.05274,0.12695 v 0.2207 h 2.222656 v -0.98242 c 0,-0.0847 -0.03302,-0.19136 -0.08594,-0.31836 -0.05292,-0.127 -0.116501,-0.24378 -0.201172,-0.34961 -0.08467,-0.10582 -0.168421,-0.20129 -0.263671,-0.27539 -0.105833,-0.0741 -0.200487,-0.11523 -0.285157,-0.11523 z m -93.158203,1.64062 h 2.646484 c 0.03176,0 0.06314,0.03 0.105469,0.0723 0.03175,0.0423 0.05273,0.0846 0.05273,0.12695 v 2.13867 c 0,0.0424 -0.02098,0.0945 -0.05273,0.13672 -0.04233,0.0423 -0.07372,0.0645 -0.105469,0.0645 h -2.646484 z m 46.34961,0 h 2.507812 c 0.03175,0 0.06395,0.0202 0.0957,0.0625 0.03175,0.0423 0.05273,0.0846 0.05273,0.12696 v 2.16015 c 0,0.0423 -0.02098,0.0827 -0.05273,0.125 -0.03175,0.0423 -0.06395,0.0645 -0.0957,0.0645 h -2.507812 c -0.04233,0 -0.08429,-0.0222 -0.105469,-0.0645 -0.03175,-0.0423 -0.04297,-0.0827 -0.04297,-0.125 v -2.16015 c 0,-0.0317 0.01124,-0.0749 0.04297,-0.11719 0.03176,-0.0424 0.06314,-0.0723 0.105469,-0.0723 z m 15.638671,7.02149 c -0.630283,0.004 -1.217396,0.10746 -1.761718,0.30859 -0.534914,0.20107 -1.002319,0.49641 -1.404297,0.88477 -0.392632,0.37888 -0.706026,0.85004 -0.9375,1.41601 -0.222068,0.56592 -0.330988,1.21546 -0.326172,1.94922 0.0048,0.72434 0.122084,1.3687 0.351562,1.93164 0.229478,0.56296 0.543773,1.03681 0.941407,1.41992 0.397635,0.3831 0.869039,0.67553 1.416015,0.87891 0.546914,0.19397 1.14156,0.28936 1.78125,0.28516 0.63969,-0.004 1.23107,-0.10747 1.775391,-0.3086 0.544321,-0.20114 1.013617,-0.49027 1.40625,-0.86914 0.401978,-0.38836 0.71348,-0.86573 0.935547,-1.43164 0.222007,-0.57532 0.330989,-1.23107 0.326172,-1.96484 -0.0048,-0.73376 -0.128303,-1.38047 -0.367188,-1.94336 -0.229478,-0.56295 -0.546144,-1.03262 -0.953125,-1.40625 -0.407042,-0.38304 -0.884725,-0.67127 -1.431641,-0.86524 -0.537507,-0.19403 -1.12167,-0.28929 -1.751953,-0.28515 z m -22.5,0.28906 c -0.206962,10e-4 -0.418585,0.0173 -0.634765,0.0469 -0.206775,0.0296 -0.361548,0.0589 -0.464844,0.0879 l 0.01563,2.28515 c 0.0033,0.50799 0.01069,1.01551 0.02344,1.52344 0.01275,0.50793 0.03912,1.0157 0.08008,1.52344 l -0.07031,0.0156 c -0.133924,-0.33778 -0.25654,-0.63347 -0.371094,-0.88672 -0.114615,-0.26266 -0.243695,-0.53937 -0.386718,-0.83007 l -1.429688,-2.83985 c -0.190677,-0.38446 -0.447054,-0.6291 -0.767578,-0.73047 -0.311179,-0.11086 -0.640214,-0.16439 -0.988281,-0.16211 -0.310439,0.002 -0.60281,0.0506 -0.875,0.14649 -0.272193,0.0959 -0.47305,0.23872 -0.603516,0.42773 l 0.04687,7.05469 c 0.0016,0.23518 0.03045,0.42798 0.08789,0.57813 0.05737,0.14073 0.138152,0.2539 0.242187,0.33789 0.104034,0.084 0.236377,0.13886 0.396485,0.16601 0.160107,0.0272 0.343821,0.0404 0.550781,0.0391 0.206957,-0.001 0.412366,-0.0174 0.61914,-0.0469 0.216181,-0.0297 0.377175,-0.059 0.480469,-0.0879 l -0.01367,-2.18555 c -0.0033,-0.50799 -0.01253,-1.02599 -0.02539,-1.55273 -0.0035,-0.5268 -0.02544,-1.045 -0.06641,-1.55274 l 0.08398,-0.0137 c 0.133924,0.33778 0.258432,0.63773 0.373047,0.90039 0.114554,0.25327 0.2437,0.52571 0.386718,0.81641 l 1.416016,2.83984 c 0.200147,0.3938 0.45451,0.64269 0.765625,0.74414 0.311118,0.10144 0.642169,0.15074 0.990235,0.14844 0.348067,-0.002 0.642624,-0.0423 0.886718,-0.11914 0.253564,-0.0675 0.447288,-0.16823 0.578125,-0.30078 l -0.04883,-7.25196 c -0.003,-0.46095 -0.112787,-0.7607 -0.330078,-0.90039 -0.217353,-0.14909 -0.533349,-0.22342 -0.947266,-0.2207 z m 13.095703,0.041 -4.699218,0.0312 c -0.40451,0.003 -0.723393,0.12265 -0.957032,0.35937 -0.233634,0.23674 -0.350308,0.55643 -0.347656,0.96094 l 0.04102,6.13867 c 0.0016,0.24459 0.03241,0.44165 0.08984,0.5918 0.05743,0.15015 0.142417,0.26764 0.255859,0.35156 0.11344,0.084 0.250048,0.13887 0.410156,0.16602 0.169576,0.0365 0.361759,0.0541 0.578125,0.0527 0.216365,-0.001 0.434211,-0.0173 0.650391,-0.0469 0.225587,-0.0297 0.388894,-0.0589 0.492187,-0.0879 l -0.01953,-2.97656 2.46875,-0.0156 c 0.263401,-0.002 0.471565,-0.079 0.621094,-0.23047 0.158872,-0.16098 0.236722,-0.41987 0.234375,-0.77735 -0.0013,-0.18814 -0.03228,-0.36619 -0.08984,-0.53515 -0.04815,-0.16902 -0.109615,-0.30521 -0.185547,-0.4082 l -3.089843,0.0195 -0.0098,-1.59375 2.96289,-0.0195 c 0.263404,-0.002 0.469615,-0.079 0.619141,-0.23046 0.158872,-0.16095 0.236782,-0.42413 0.234375,-0.79102 -0.0013,-0.18814 -0.03033,-0.36815 -0.08789,-0.53711 -0.04821,-0.17843 -0.105344,-0.31882 -0.171876,-0.42187 z m -26.697265,0.0488 c -0.206957,0.001 -0.422915,0.0213 -0.648438,0.0605 -0.225589,0.0298 -0.390788,0.0547 -0.49414,0.0742 l 0.04883,7.44922 c 0.0016,0.24459 0.03241,0.44166 0.08984,0.5918 0.05743,0.15015 0.142416,0.26765 0.255859,0.35156 0.113443,0.084 0.250048,0.14082 0.410156,0.16797 0.169577,0.0366 0.361759,0.0541 0.578125,0.0527 0.216365,-10e-4 0.43421,-0.0173 0.650391,-0.0469 0.225586,-0.0297 0.388891,-0.0589 0.492187,-0.0879 l -0.04883,-7.45118 c -0.0016,-0.24459 -0.03045,-0.44164 -0.08789,-0.59179 -0.05743,-0.15014 -0.142422,-0.26765 -0.25586,-0.35157 -0.113443,-0.0839 -0.256265,-0.13892 -0.425781,-0.16601 -0.160171,-0.0365 -0.348085,-0.0541 -0.564453,-0.0527 z m 36.128906,1.61133 c 0.592653,-0.004 1.060906,0.2039 1.402344,0.625 0.350845,0.42102 0.527645,1.0557 0.533203,1.90235 0.0056,0.85605 -0.164478,1.49626 -0.509766,1.92187 -0.345287,0.42561 -0.813596,0.64064 -1.40625,0.64453 -0.583247,0.004 -1.049544,-0.20398 -1.40039,-0.625 -0.350845,-0.42104 -0.529538,-1.05995 -0.535156,-1.91601 -0.0056,-0.85606 0.164415,-1.49201 0.509765,-1.90821 0.354694,-0.42567 0.823003,-0.6407 1.40625,-0.64453 z"
           id="path999"
           inkscape:connector-curvature="0" />
        <path
           style="font-style:normal;font-variant:normal;font-weight:normal;font-stretch:normal;font-family:'Bomber Escort';-inkscape-font-specification:'Bomber Escort';letter-spacing:0.26458332px;fill:#808080;stroke-width:0.63145417;stroke:#2b2200;stroke-opacity:1;stroke-miterlimit:4;stroke-dasharray:none"
           d="m -84.613281,257.91797 c 0.02117,0.10583 0.08526,0.2117 0.169922,0.32812 0.08467,0.127 0.168422,0.24182 0.263671,0.34766 0.08467,0.10583 0.169238,0.20241 0.253907,0.28711 0.08467,0.0846 0.137031,0.14679 0.158203,0.16797 v 4.68945 h 6.404297 c 0.08467,0 0.179323,-0.0313 0.285156,-0.10547 0.09525,-0.0741 0.190722,-0.17069 0.275391,-0.28711 0.08467,-0.10583 0.148249,-0.22065 0.201172,-0.34765 0.05292,-0.11641 0.08398,-0.2223 0.08398,-0.32813 v -3.68359 c 0,-0.0847 -0.03106,-0.19136 -0.08398,-0.31836 -0.05292,-0.127 -0.116503,-0.24295 -0.201172,-0.35938 -0.08467,-0.10582 -0.180141,-0.20129 -0.275391,-0.27539 -0.105833,-0.0741 -0.200487,-0.11523 -0.285156,-0.11523 z m 8.697265,0 c 0.02117,0.10583 0.08525,0.2117 0.169922,0.32812 0.08467,0.127 0.168422,0.24182 0.263672,0.34766 0.08466,0.10583 0.169237,0.20241 0.253906,0.28711 0.08467,0.0846 0.138985,0.14679 0.160157,0.16797 v 3.63086 c 0,0.10584 0.02129,0.2117 0.07422,0.32812 0.05292,0.127 0.1165,0.24377 0.201172,0.34961 0.08466,0.10583 0.167605,0.20129 0.273438,0.27539 0.09525,0.0741 0.191859,0.10547 0.287109,0.10547 h 5.576172 c 0.08467,0 0.181275,-0.0313 0.287109,-0.10547 0.09525,-0.0741 0.179003,-0.16956 0.263672,-0.27539 0.08467,-0.10584 0.14825,-0.22261 0.201172,-0.34961 0.05292,-0.11642 0.08398,-0.22228 0.08398,-0.32812 v -4.76172 h -2.222657 v 3.99023 c 0,0.0423 -0.01903,0.0827 -0.05078,0.125 -0.03175,0.0423 -0.06395,0.0645 -0.0957,0.0645 h -2.507813 c -0.04233,0 -0.07567,-0.0222 -0.107422,-0.0645 -0.03175,-0.0423 -0.04102,-0.0827 -0.04102,-0.125 v -3.99023 z m 8.699219,0 c 0.02117,0.10583 0.0833,0.2117 0.167969,0.32812 0.08466,0.127 0.170375,0.24182 0.265625,0.34766 0.08467,0.10583 0.169237,0.20241 0.253906,0.28711 0.08467,0.0846 0.137031,0.14679 0.158203,0.16797 v 4.68945 h 6.742188 v -1.64062 h -4.498047 v -0.45508 h 3.396484 v -1.62891 h -3.396484 v -0.45508 h 4.498047 v -1.64062 z m 8.181641,0 c 0.02117,0.10583 0.08329,0.2117 0.167968,0.32812 0.08467,0.127 0.170375,0.24182 0.265626,0.34766 0.08466,0.10583 0.169242,0.20241 0.253906,0.28711 0.08467,0.0846 0.137034,0.14679 0.158203,0.16797 v 4.68945 h 6.160156 v -1.64062 h -3.9375 v -4.17969 z m 11.261718,0 v 7.22656 c 0.07408,0 0.17996,-0.0205 0.328126,-0.084 0.137583,-0.0635 0.285742,-0.13717 0.455078,-0.23243 0.15875,-0.0847 0.316994,-0.19023 0.486328,-0.30664 0.169333,-0.10584 0.317495,-0.21252 0.455078,-0.31836 0.137581,-0.10583 0.255177,-0.20048 0.339844,-0.28515 0.08467,-0.0847 0.137854,-0.13736 0.148437,-0.17969 h 0.0098 v -2.92187 l 1.68164,2.92187 h 1.56836 l 1.68164,-2.92187 v 2.92187 h 2.222657 v -5.82031 h -2.97461 l -1.714844,2.94141 -1.71289,-2.94141 z m 11.042969,0 c -0.09525,0 -0.189903,0.0412 -0.285156,0.11523 -0.10583,0.0741 -0.190719,0.16957 -0.275391,0.27539 -0.08467,0.10583 -0.148251,0.22261 -0.201172,0.34961 -0.05291,0.127 -0.07422,0.23366 -0.07422,0.31836 v 3.70313 c 0,0.10584 0.02128,0.2117 0.07422,0.32812 0.05291,0.127 0.116503,0.24377 0.201172,0.34961 0.08467,0.10583 0.169561,0.20129 0.275391,0.27539 0.09525,0.0741 0.189906,0.10547 0.285156,0.10547 h 5.578125 c 0.08467,0 0.179324,-0.0313 0.285156,-0.10547 0.09525,-0.0741 0.179002,-0.16956 0.263672,-0.27539 0.08467,-0.10584 0.148256,-0.22261 0.201172,-0.34961 0.05292,-0.11642 0.08594,-0.22228 0.08594,-0.32812 v -3.70313 c 0,-0.0847 -0.03302,-0.19136 -0.08594,-0.31836 -0.05291,-0.127 -0.116503,-0.24378 -0.201172,-0.34961 -0.08467,-0.10582 -0.168421,-0.20129 -0.263672,-0.27539 -0.105833,-0.0741 -0.200487,-0.11523 -0.285156,-0.11523 z m 7.242188,0 v 7.22656 c 0.07408,0 0.179959,-0.0206 0.328125,-0.084 0.137584,-0.0635 0.285747,-0.13712 0.455078,-0.23243 0.158751,-0.0847 0.316995,-0.19023 0.486328,-0.30664 0.169334,-0.10584 0.317495,-0.21251 0.455078,-0.31836 0.137583,-0.10583 0.255175,-0.20045 0.339844,-0.28515 0.08467,-0.0846 0.137862,-0.13739 0.148437,-0.17969 h 0.0098 v -2.85742 l 2.826172,2.85742 H -22.25 v -5.82031 h -2.220703 v 2.85742 l -2.837891,-2.85742 z m 8.914062,0 c -0.09525,0 -0.189906,0.0412 -0.285156,0.11523 -0.105833,0.0741 -0.190721,0.16957 -0.275391,0.27539 -0.08467,0.10583 -0.148251,0.22261 -0.201172,0.34961 -0.05291,0.127 -0.07422,0.23366 -0.07422,0.31836 v 1.2793 c 0.02117,0.10583 0.08525,0.20241 0.169922,0.28711 0.08467,0.0847 0.18014,0.15804 0.27539,0.21094 l 4.179688,1.35547 h -2.253906 c -0.04233,0 -0.07372,-0.0222 -0.105469,-0.0645 -0.03175,-0.0423 -0.04297,-0.0846 -0.04297,-0.12695 v -0.22266 h -2.222656 v 0.98438 c 0,0.10584 0.02131,0.2117 0.07422,0.32812 0.05292,0.127 0.116503,0.24377 0.201172,0.34961 0.08467,0.10583 0.169558,0.20129 0.275391,0.27539 0.09525,0.0741 0.189906,0.10547 0.285156,0.10547 h 5.3125 c 0.08467,0 0.179323,-0.0313 0.285157,-0.10547 0.09525,-0.0741 0.180955,-0.16956 0.265624,-0.27539 0.08467,-0.10584 0.148252,-0.22261 0.201172,-0.34961 0.05292,-0.11642 0.08399,-0.22228 0.08399,-0.32812 v -1.28125 c -0.03175,-0.10585 -0.08413,-0.19069 -0.158203,-0.27539 -0.08467,-0.0741 -0.179323,-0.14661 -0.285157,-0.22071 l -4.18164,-1.35546 h 2.255859 c 0.03175,0 0.06198,0.0222 0.09375,0.0645 0.03175,0.0423 0.05273,0.0846 0.05273,0.12695 v 0.2207 h 2.222657 v -0.98242 c 0,-0.0847 -0.03106,-0.19136 -0.08399,-0.31836 -0.05292,-0.127 -0.116501,-0.24378 -0.201172,-0.34961 -0.08467,-0.10582 -0.170375,-0.20129 -0.265624,-0.27539 -0.105834,-0.0741 -0.200487,-0.11523 -0.285157,-0.11523 z m 6.994141,0 v 1.64062 h 2.519531 v 5.58594 c 0.07408,0 0.178006,-0.0206 0.326172,-0.084 0.137584,-0.0635 0.287698,-0.13712 0.457031,-0.23243 0.15875,-0.0847 0.3169948,-0.19023 0.4863284,-0.30664 0.1693331,-0.10584 0.3174953,-0.21251 0.4550781,-0.31836 0.1375831,-0.10583 0.2543594,-0.20045 0.3496094,-0.28515 0.084667,-0.0846 0.1359013,-0.13739 0.1464843,-0.17969 v -4.17969 h 2.5195313 v -1.64062 z m 7.8652342,0 c 0.021167,0.10583 0.085255,0.2117 0.1699219,0.32812 0.084666,0.127 0.1684216,0.24182 0.2636719,0.34766 0.084666,0.10583 0.1711925,0.20241 0.2558594,0.28711 0.084667,0.0846 0.1370361,0.14679 0.1582031,0.16797 v 4.68945 h 6.7402344 v -1.64062 h -4.4960938 v -0.45508 h 3.3964844 v -1.62891 h -3.3964844 v -0.45508 h 4.4960938 v -1.64062 z m 8.4140626,0 v 7.22656 0.002 c 0.074083,0 0.1799585,-0.0226 0.328125,-0.0859 0.1375833,-0.0635 0.285745,-0.13712 0.4550781,-0.23243 0.1587503,-0.0847 0.3189479,-0.19022 0.4882812,-0.30664 0.1693334,-0.10583 0.3174948,-0.2125 0.4550781,-0.31836 0.1375834,-0.10581 0.2524064,-0.20045 0.3476563,-0.28515 0.084666,-0.0846 0.1378545,-0.13739 0.1484375,-0.17969 v -4.17969 h 2.65625 c 0.03175,0 0.063953,0.0202 0.095703,0.0625 0.03175,0.0423 0.052734,0.0846 0.052734,0.12696 v 0.67773 c 0,0.127 -0.053188,0.18945 -0.1484375,0.18945 h -2.148437 v 1.04883 l 2.2128906,2.07422 h 2.6132809 l -1.6718746,-1.58789 h 0.1054687 c 0.254,0 0.4673858,-0.0322 0.6367188,-0.0957 0.1693331,-0.0635 0.295375,-0.14725 0.390625,-0.26367 0.084667,-0.10583 0.1479375,-0.2545 0.1796875,-0.42383 0.03175,-0.16933 0.052734,-0.35896 0.052734,-0.5918 v -1.79883 c 0,-0.0847 -0.031068,-0.19136 -0.083984,-0.31836 -0.052917,-0.127 -0.1165047,-0.24378 -0.2011719,-0.34961 -0.084666,-0.10584 -0.170375,-0.20129 -0.265625,-0.27539 -0.1058333,-0.0741 -0.2004891,-0.11523 -0.2851563,-0.11523 z m 8.9140622,0 c -0.09525,0 -0.189906,0.0412 -0.285156,0.11523 -0.105833,0.0741 -0.190721,0.16957 -0.275391,0.27539 -0.08467,0.10583 -0.148251,0.22261 -0.201172,0.34961 -0.05291,0.127 -0.07422,0.23366 -0.07422,0.31836 v 1.2793 c 0.02117,0.10583 0.08525,0.20241 0.169922,0.28711 0.08467,0.0847 0.18014,0.15804 0.27539,0.21094 l 4.179688,1.35547 h -2.253906 c -0.04233,0 -0.07372,-0.0222 -0.105469,-0.0645 C 13.011219,262.00262 13,261.96029 13,261.91797 v -0.22266 h -2.222656 v 0.98438 c 0,0.10584 0.0213,0.2117 0.07422,0.32812 0.05292,0.127 0.116502,0.24377 0.201172,0.34961 0.08467,0.10583 0.169558,0.20129 0.275391,0.27539 0.09525,0.0741 0.189906,0.10547 0.285156,0.10547 h 5.314453 c 0.08467,0 0.179324,-0.0313 0.285157,-0.10547 0.09525,-0.0741 0.179002,-0.16956 0.263671,-0.27539 0.08467,-0.10584 0.148252,-0.22261 0.201172,-0.34961 0.05292,-0.11642 0.08594,-0.22228 0.08594,-0.32812 v -1.28125 c -0.03175,-0.10585 -0.08608,-0.19069 -0.160156,-0.27539 -0.08467,-0.0741 -0.179324,-0.14661 -0.285157,-0.22071 l -4.179687,-1.35546 h 2.253906 c 0.03175,0 0.06395,0.0222 0.0957,0.0645 0.03175,0.0423 0.05274,0.0846 0.05274,0.12695 v 0.2207 h 2.222656 v -0.98242 c 0,-0.0847 -0.03302,-0.19136 -0.08594,-0.31836 -0.05292,-0.127 -0.116501,-0.24378 -0.201172,-0.34961 -0.08467,-0.10582 -0.168421,-0.20129 -0.263671,-0.27539 -0.105833,-0.0741 -0.200487,-0.11523 -0.285157,-0.11523 z m -93.158203,1.64062 h 2.646484 c 0.03176,0 0.06314,0.03 0.105469,0.0723 0.03175,0.0423 0.05273,0.0846 0.05273,0.12695 v 2.13867 c 0,0.0424 -0.02098,0.0945 -0.05273,0.13672 -0.04233,0.0423 -0.07372,0.0645 -0.105469,0.0645 h -2.646484 z m 46.34961,0 h 2.507812 c 0.03175,0 0.06395,0.0202 0.0957,0.0625 0.03175,0.0423 0.05273,0.0846 0.05273,0.12696 v 2.16015 c 0,0.0423 -0.02098,0.0827 -0.05273,0.125 -0.03175,0.0423 -0.06395,0.0645 -0.0957,0.0645 h -2.507812 c -0.04233,0 -0.08429,-0.0222 -0.105469,-0.0645 -0.03175,-0.0423 -0.04297,-0.0827 -0.04297,-0.125 v -2.16015 c 0,-0.0317 0.01124,-0.0749 0.04297,-0.11719 0.03176,-0.0424 0.06314,-0.0723 0.105469,-0.0723 z m 15.638671,7.02149 c -0.630283,0.004 -1.217396,0.10746 -1.761718,0.30859 -0.534914,0.20107 -1.002319,0.49641 -1.404297,0.88477 -0.392632,0.37888 -0.706026,0.85004 -0.9375,1.41601 -0.222068,0.56592 -0.330988,1.21546 -0.326172,1.94922 0.0048,0.72434 0.122084,1.3687 0.351562,1.93164 0.229478,0.56296 0.543773,1.03681 0.941407,1.41992 0.397635,0.3831 0.869039,0.67553 1.416015,0.87891 0.546914,0.19397 1.14156,0.28936 1.78125,0.28516 0.63969,-0.004 1.23107,-0.10747 1.775391,-0.3086 0.544321,-0.20114 1.013617,-0.49027 1.40625,-0.86914 0.401978,-0.38836 0.71348,-0.86573 0.935547,-1.43164 0.222007,-0.57532 0.330989,-1.23107 0.326172,-1.96484 -0.0048,-0.73376 -0.128303,-1.38047 -0.367188,-1.94336 -0.229478,-0.56295 -0.546144,-1.03262 -0.953125,-1.40625 -0.407042,-0.38304 -0.884725,-0.67127 -1.431641,-0.86524 -0.537507,-0.19403 -1.12167,-0.28929 -1.751953,-0.28515 z m -22.5,0.28906 c -0.206962,10e-4 -0.418585,0.0173 -0.634765,0.0469 -0.206775,0.0296 -0.361548,0.0589 -0.464844,0.0879 l 0.01563,2.28515 c 0.0033,0.50799 0.01069,1.01551 0.02344,1.52344 0.01275,0.50793 0.03912,1.0157 0.08008,1.52344 l -0.07031,0.0156 c -0.133924,-0.33778 -0.25654,-0.63347 -0.371094,-0.88672 -0.114615,-0.26266 -0.243695,-0.53937 -0.386718,-0.83007 l -1.429688,-2.83985 c -0.190677,-0.38446 -0.447054,-0.6291 -0.767578,-0.73047 -0.311179,-0.11086 -0.640214,-0.16439 -0.988281,-0.16211 -0.310439,0.002 -0.60281,0.0506 -0.875,0.14649 -0.272193,0.0959 -0.47305,0.23872 -0.603516,0.42773 l 0.04687,7.05469 c 0.0016,0.23518 0.03045,0.42798 0.08789,0.57813 0.05737,0.14073 0.138152,0.2539 0.242187,0.33789 0.104034,0.084 0.236377,0.13886 0.396485,0.16601 0.160107,0.0272 0.343821,0.0404 0.550781,0.0391 0.206957,-0.001 0.412366,-0.0174 0.61914,-0.0469 0.216181,-0.0297 0.377175,-0.059 0.480469,-0.0879 l -0.01367,-2.18555 c -0.0033,-0.50799 -0.01253,-1.02599 -0.02539,-1.55273 -0.0035,-0.5268 -0.02544,-1.045 -0.06641,-1.55274 l 0.08398,-0.0137 c 0.133924,0.33778 0.258432,0.63773 0.373047,0.90039 0.114554,0.25327 0.2437,0.52571 0.386718,0.81641 l 1.416016,2.83984 c 0.200147,0.3938 0.45451,0.64269 0.765625,0.74414 0.311118,0.10144 0.642169,0.15074 0.990235,0.14844 0.348067,-0.002 0.642624,-0.0423 0.886718,-0.11914 0.253564,-0.0675 0.447288,-0.16823 0.578125,-0.30078 l -0.04883,-7.25196 c -0.003,-0.46095 -0.112787,-0.7607 -0.330078,-0.90039 -0.217353,-0.14909 -0.533349,-0.22342 -0.947266,-0.2207 z m 13.095703,0.041 -4.699218,0.0312 c -0.40451,0.003 -0.723393,0.12265 -0.957032,0.35937 -0.233634,0.23674 -0.350308,0.55643 -0.347656,0.96094 l 0.04102,6.13867 c 0.0016,0.24459 0.03241,0.44165 0.08984,0.5918 0.05743,0.15015 0.142417,0.26764 0.255859,0.35156 0.11344,0.084 0.250048,0.13887 0.410156,0.16602 0.169576,0.0365 0.361759,0.0541 0.578125,0.0527 0.216365,-0.001 0.434211,-0.0173 0.650391,-0.0469 0.225587,-0.0297 0.388894,-0.0589 0.492187,-0.0879 l -0.01953,-2.97656 2.46875,-0.0156 c 0.263401,-0.002 0.471565,-0.079 0.621094,-0.23047 0.158872,-0.16098 0.236722,-0.41987 0.234375,-0.77735 -0.0013,-0.18814 -0.03228,-0.36619 -0.08984,-0.53515 -0.04815,-0.16902 -0.109615,-0.30521 -0.185547,-0.4082 l -3.089843,0.0195 -0.0098,-1.59375 2.96289,-0.0195 c 0.263404,-0.002 0.469615,-0.079 0.619141,-0.23046 0.158872,-0.16095 0.236782,-0.42413 0.234375,-0.79102 -0.0013,-0.18814 -0.03033,-0.36815 -0.08789,-0.53711 -0.04821,-0.17843 -0.105344,-0.31882 -0.171876,-0.42187 z m -26.697265,0.0488 c -0.206957,0.001 -0.422915,0.0213 -0.648438,0.0605 -0.225589,0.0298 -0.390788,0.0547 -0.49414,0.0742 l 0.04883,7.44922 c 0.0016,0.24459 0.03241,0.44166 0.08984,0.5918 0.05743,0.15015 0.142416,0.26765 0.255859,0.35156 0.113443,0.084 0.250048,0.14082 0.410156,0.16797 0.169577,0.0366 0.361759,0.0541 0.578125,0.0527 0.216365,-10e-4 0.43421,-0.0173 0.650391,-0.0469 0.225586,-0.0297 0.388891,-0.0589 0.492187,-0.0879 l -0.04883,-7.45118 c -0.0016,-0.24459 -0.03045,-0.44164 -0.08789,-0.59179 -0.05743,-0.15014 -0.142422,-0.26765 -0.25586,-0.35157 -0.113443,-0.0839 -0.256265,-0.13892 -0.425781,-0.16601 -0.160171,-0.0365 -0.348085,-0.0541 -0.564453,-0.0527 z m 36.128906,1.61133 c 0.592653,-0.004 1.060906,0.2039 1.402344,0.625 0.350845,0.42102 0.527645,1.0557 0.533203,1.90235 0.0056,0.85605 -0.164478,1.49626 -0.509766,1.92187 -0.345287,0.42561 -0.813596,0.64064 -1.40625,0.64453 -0.583247,0.004 -1.049544,-0.20398 -1.40039,-0.625 -0.350845,-0.42104 -0.529538,-1.05995 -0.535156,-1.91601 -0.0056,-0.85606 0.164415,-1.49201 0.509765,-1.90821 0.354694,-0.42567 0.823003,-0.6407 1.40625,-0.64453 z"
           id="path4707"
           inkscape:connector-curvature="0" />
      </g>
      <g
         aria-label="INFO"
         transform="rotate(-0.3761077)"
         style="font-style:normal;font-variant:normal;font-weight:normal;font-stretch:normal;font-size:14.11111069px;line-height:1.25;font-family:Sarai;-inkscape-font-specification:Sarai;letter-spacing:7.56708336px;word-spacing:0px;fill:#000000;fill-opacity:1;stroke:#2b2200;stroke-width:0.63145417;stroke-opacity:1;stroke-miterlimit:4;stroke-dasharray:none"
         id="text919" />
    </g>
    <g
       style="fill:#0e0c02;stroke:#0c0c01;stroke-width:0.75;stroke-miterlimit:4;stroke-dasharray:none;stroke-opacity:1;fill-opacity:1;filter:url(#filter4837)"
       transform="matrix(2.3754693,0,0,2.3754693,211.56691,-369.3752)"
       id="g4795">
      <text
         xml:space="preserve"
         style="font-style:normal;font-variant:normal;font-weight:normal;font-stretch:normal;font-size:10.58333302px;line-height:1.25;font-family:Sarai;-inkscape-font-specification:Sarai;letter-spacing:7.56708336px;word-spacing:0px;fill:#0e0c02;fill-opacity:1;stroke:#0c0c01;stroke-width:0.75;stroke-miterlimit:4;stroke-dasharray:none;stroke-opacity:1"
         x="-84.666664"
         y="263.7381"
         id="text4789"><tspan
           sodipodi:role="line"
           id="tspan4787"
           x="-84.666664"
           y="263.7381"
           style="font-style:normal;font-variant:normal;font-weight:normal;font-stretch:normal;font-family:'Bomber Escort';-inkscape-font-specification:'Bomber Escort';letter-spacing:0.26458332px;fill:#0e0c02;stroke:#0c0c01;stroke-width:0.75;stroke-miterlimit:4;stroke-dasharray:none;stroke-opacity:1;fill-opacity:1">DUEL MONSTERS</tspan></text>
      <text
         xml:space="preserve"
         style="font-style:normal;font-variant:normal;font-weight:normal;font-stretch:normal;font-size:14.11111069px;line-height:1.25;font-family:Sarai;-inkscape-font-specification:Sarai;letter-spacing:7.56708336px;word-spacing:0px;fill:#0e0c02;fill-opacity:1;stroke:#0c0c01;stroke-width:0.75;stroke-miterlimit:4;stroke-dasharray:none;stroke-opacity:1"
         x="-59.469326"
         y="275.26593"
         id="text4793"
         transform="rotate(-0.3761077)"><tspan
           sodipodi:role="line"
           id="tspan4791"
           x="-59.469326"
           y="275.26593"
           style="font-style:normal;font-variant:normal;font-weight:normal;font-stretch:normal;font-family:'Baloo Bhai';-inkscape-font-specification:'Baloo Bhai';letter-spacing:3.96875px;fill:#0e0c02;stroke:#0c0c01;stroke-width:0.75;stroke-miterlimit:4;stroke-dasharray:none;stroke-opacity:1;fill-opacity:1">INFO</tspan></text>
    </g>
    <g
       id="g911"
       transform="matrix(2.3754693,0,0,2.3754693,211.56691,-369.3752)"
       style="fill:#ffcc00;stroke:none;stroke-width:0.75;stroke-miterlimit:4;stroke-dasharray:none;filter:url(#filter5234)"
       inkscape:export-xdpi="150"
       inkscape:export-ydpi="150">
      <text
         id="text817"
         y="263.7381"
         x="-84.666664"
         style="font-style:normal;font-variant:normal;font-weight:normal;font-stretch:normal;font-size:10.58333302px;line-height:1.25;font-family:Sarai;-inkscape-font-specification:Sarai;letter-spacing:7.56708336px;word-spacing:0px;fill:#ffcc00;fill-opacity:1;stroke:none;stroke-width:0.75;stroke-miterlimit:4;stroke-dasharray:none"
         xml:space="preserve"><tspan
           style="font-style:normal;font-variant:normal;font-weight:normal;font-stretch:normal;font-family:'Bomber Escort';-inkscape-font-specification:'Bomber Escort';letter-spacing:0.26458332px;fill:#ffcc00;stroke:none;stroke-width:0.75;stroke-miterlimit:4;stroke-dasharray:none"
           y="263.7381"
           x="-84.666664"
           id="tspan815"
           sodipodi:role="line">DUEL MONSTERS</tspan></text>
      <text
         transform="rotate(-0.3761077)"
         id="text821"
         y="275.26593"
         x="-59.469326"
         style="font-style:normal;font-variant:normal;font-weight:normal;font-stretch:normal;font-size:14.11111069px;line-height:1.25;font-family:Sarai;-inkscape-font-specification:Sarai;letter-spacing:7.56708336px;word-spacing:0px;fill:#ffcc00;fill-opacity:1;stroke:none;stroke-width:0.75;stroke-miterlimit:4;stroke-dasharray:none"
         xml:space="preserve"><tspan
           style="font-style:normal;font-variant:normal;font-weight:normal;font-stretch:normal;font-family:'Baloo Bhai';-inkscape-font-specification:'Baloo Bhai';letter-spacing:3.96875px;fill:#ffcc00;stroke:none;stroke-width:0.75;stroke-miterlimit:4;stroke-dasharray:none"
           y="275.26593"
           x="-59.469326"
           id="tspan819"
           sodipodi:role="line">INFO</tspan></text>
    </g>
  </g>
</svg>
